<svg width="988" height="603" viewBox="0 0 988 603" fill="none" xmlns="http://www.w3.org/2000/svg">
<mask id="mask0_2146_13" style="mask-type:alpha" maskUnits="userSpaceOnUse" x="28" y="53" width="960" height="550">
<rect x="28" y="53" width="960" height="550" rx="50" fill="#D9D9D9"/>
</mask>
<g mask="url(#mask0_2146_13)">
<path d="M11 603.107V498.62C167.5 575.399 275.5 519.302 346.5 504.749C417.5 490.196 493.746 420.843 554.5 397.359C628.5 368.755 680 411.41 759 421.949C822.2 430.379 880 378.83 920 349.183C946 329.913 983.333 320.245 999 329.612V603.107H11Z" fill="url(#paint0_linear_2146_13)"/>
<path d="M-2 390.728V49.4873H1013.5V266.5C852 269.5 820 160.892 811.5 155.372C803 149.852 643 89.1315 569.5 201.038C496 312.945 421.5 305.418 355.5 293.374C289.5 281.33 241 408.292 172.5 439.405C117.7 464.296 33.3333 417.325 -2 390.728Z" fill="url(#paint1_linear_2146_13)"/>
</g>
<path d="M58.8295 300.081C84.9883 351.103 148.202 365.16 176.539 365.811C238.665 373.096 360.353 335.436 358.298 288.146C356.242 240.856 220.939 172.365 150.146 174.171C79.3537 175.977 44.7147 272.287 58.8295 300.081Z" fill="#008BA8"/>
<path d="M122.594 323.357C122.594 323.357 123.594 296.673 124.843 287.827C126.092 278.98 127.842 263.708 127.842 262.623C127.842 261.538 120.512 253.192 116.264 246.933C111.933 240.673 109.351 236.417 108.934 232.745C108.518 229.073 109.184 215.97 107.851 214.468C106.602 212.965 103.853 209.293 104.103 207.123C104.436 204.953 104.853 199.779 104.103 198.945C103.354 198.11 93.8584 191.016 92.7756 189.681C91.6928 188.429 90.1935 184.924 89.7771 180.834C89.3606 176.745 88.9442 172.906 86.9451 169.234C84.9461 165.561 82.6139 161.472 81.1147 159.803C79.6987 158.05 78.1995 154.211 78.1995 154.211L79.2823 152.959C79.2823 152.959 81.8643 156.798 84.1965 158.801C86.5287 160.721 90.61 166.98 92.609 170.819C94.5247 174.658 96.6903 180.5 97.7731 182.42C98.8559 184.339 101.605 187.177 103.021 187.177C104.436 187.177 105.103 183.755 105.936 181.335C106.769 178.998 108.268 176.828 108.268 176.828L109.351 177.496C109.351 177.496 108.268 180.083 108.101 183.088C107.851 186.092 107.019 189.764 108.101 191.934C109.184 194.104 111.766 196.274 112.183 198.861C112.599 201.448 112.849 204.453 114.098 207.29C115.348 210.128 117.763 215.886 117.93 219.809C118.18 223.648 119.013 231.41 120.762 233.83C122.511 236.167 125.093 237.919 126.092 239.421C127.175 240.924 127.842 242.009 127.842 242.009C127.842 242.009 128.675 225.234 129.341 215.135C130.007 205.037 129.591 186.259 129.341 181.752C129.091 177.246 127.425 176.578 123.76 171.237C120.095 165.895 117.347 157.466 115.181 151.04C113.016 144.614 113.432 140.274 112.183 136.852C110.933 133.43 110.017 124.834 110.017 124.834H111.266C111.266 124.834 113.432 133.43 114.265 135.183C115.098 136.936 116.181 140.775 117.263 144.614C118.346 148.453 121.095 155.129 122.594 157.716C124.093 160.304 127.342 164.81 128.175 164.393C129.008 163.976 130.09 148.035 130.757 139.857C131.423 131.678 132.922 125.836 133.339 120.077C133.755 114.235 134.422 99.5466 134.838 94.6226H178.29C178.29 94.6226 178.29 108.226 178.29 114.485C178.29 120.745 178.29 127.839 178.29 130.009C178.29 132.178 178.04 136.018 178.29 136.936C178.54 137.77 183.621 134.348 187.285 131.344C190.95 128.339 192.033 126.587 195.198 124.417L196.281 125.669C196.281 125.669 193.449 129.508 191.783 131.678C190.034 133.848 187.452 137.019 185.786 139.439C184.037 141.776 178.706 145.031 178.29 145.866C177.873 146.7 176.791 164.81 176.791 174.074C176.791 183.338 177.04 194.521 177.04 201.198C177.04 207.874 176.374 233.913 176.207 245.764C176.041 257.615 175.958 278.229 175.958 280.232C175.958 282.235 176.207 287.576 176.374 288.161C176.624 288.828 181.538 283.904 184.787 281.734C188.035 279.565 191.866 273.973 191.866 273.973L192.949 274.807C192.949 274.807 190.617 280.816 188.451 282.986C186.286 285.156 181.205 290.497 180.539 291.415C179.872 292.25 177.54 295.755 177.54 295.755L175.958 337.042L122.594 323.357Z" fill="#3B96AF"/>
<path d="M108.476 142.543C93.637 117.48 104.643 86.0086 112.002 73.406C125.62 44.216 156.631 2.61523 176.365 16.1122C196.1 29.6091 211.867 104.793 192.013 135.364C172.158 165.934 116.596 156.136 108.476 142.543Z" fill="#066F85"/>
<path d="M38.7208 172.546C64.9793 185.15 95.3741 171.449 107.289 163.022C135.184 146.917 173.931 112.406 158.769 93.9205C143.608 75.4346 67.3371 66.2641 38.6089 88.7018C9.88073 111.139 24.4728 165.639 38.7208 172.546Z" fill="#066F85"/>
<path d="M322.334 309.787C322.334 309.787 316.67 268.521 315.421 259.674C314.171 250.828 312.422 235.555 312.422 234.47C312.422 233.385 319.752 225.04 324 218.78C328.331 212.521 330.913 208.265 331.33 204.593C331.746 200.92 331.08 187.818 332.412 186.315C333.662 184.813 336.41 181.141 336.161 178.971C335.827 176.801 335.411 171.627 336.161 170.792C336.91 169.958 346.406 162.864 347.488 161.528C348.571 160.277 350.07 156.771 350.487 152.682C350.903 148.592 351.32 144.753 353.319 141.081C355.318 137.409 357.65 133.32 359.149 131.651C360.565 129.898 362.064 126.059 362.064 126.059L360.982 124.807C360.982 124.807 358.4 128.646 356.067 130.649C353.735 132.569 349.654 138.828 347.655 142.667C345.739 146.506 343.574 152.348 342.491 154.268C341.408 156.187 338.659 159.025 337.243 159.025C335.827 159.025 335.161 155.603 334.328 153.183C333.495 150.846 331.996 148.676 331.996 148.676L330.913 149.344C330.913 149.344 331.996 151.931 332.163 154.935C332.412 157.94 333.245 161.612 332.163 163.782C331.08 165.952 328.498 168.122 328.081 170.709C327.665 173.296 327.415 176.3 326.166 179.138C324.916 181.975 322.501 187.734 322.334 191.657C322.084 195.496 321.251 203.257 319.502 205.677C317.753 208.014 315.171 209.767 314.171 211.269C313.089 212.771 312.422 213.856 312.422 213.856C312.422 213.856 311.589 197.081 310.923 186.983C310.257 176.885 310.673 158.107 310.923 153.6C311.173 149.093 312.839 148.426 316.504 143.084C320.168 137.743 322.917 129.314 325.083 122.888C327.248 116.461 326.832 112.122 328.081 108.7C329.331 105.278 330.247 96.6819 330.247 96.6819H328.997C328.997 96.6819 326.832 105.278 325.999 107.031C325.166 108.783 324.083 112.622 323 116.461C321.918 120.3 319.169 126.977 317.67 129.564C316.17 132.151 312.922 136.658 312.089 136.241C311.256 135.823 310.173 119.883 309.507 111.704C308.841 103.525 307.341 97.6833 306.925 91.9248C306.509 86.0827 305.842 71.3942 305.426 66.4702H261.974C261.974 66.4702 261.974 80.0738 261.974 86.3331C261.974 92.5924 261.974 99.6863 261.974 101.856C261.974 104.026 262.224 107.865 261.974 108.783C261.724 109.618 256.643 106.196 252.979 103.192C249.314 100.187 248.231 98.4345 245.066 96.2646L243.983 97.5164C243.983 97.5164 246.815 101.355 248.481 103.525C250.23 105.695 252.812 108.867 254.478 111.287C256.227 113.624 261.558 116.879 261.974 117.713C262.391 118.548 263.473 136.658 263.473 145.922C263.473 155.186 263.223 166.369 263.223 173.046C263.223 179.722 263.89 205.761 264.056 217.612C264.223 229.463 264.306 250.077 264.306 252.08C264.306 254.083 264.056 259.424 263.89 260.008C263.64 260.676 258.726 255.752 255.477 253.582C252.229 251.412 248.397 245.821 248.397 245.821L247.315 246.655C247.315 246.655 249.647 252.664 251.812 254.834C253.978 257.004 259.059 262.345 259.725 263.263C260.392 264.098 262.724 267.603 262.724 267.603L251.812 316.709L322.334 309.787Z" fill="#3B96AF"/>
<path d="M323.584 78.2285C343.996 75.0082 361.863 90.5075 368.246 98.6597C383.925 115.284 403.233 146.626 389.165 156.103C375.098 165.58 321.396 156.286 306.439 135.188C291.483 114.091 312.494 80.022 323.584 78.2285Z" fill="#066F85"/>
<path d="M211.954 91.5276C211.954 91.5276 211.319 99.6647 210.852 108.103C210.384 116.542 208.613 128.731 207.877 133.954C207.142 139.178 206.14 148.621 205.505 152.774C204.87 156.926 204.268 158.533 204.135 159.035C204.001 159.538 201.528 152.941 200.927 150.095C200.292 147.248 199.69 139.915 199.69 134.055C199.69 128.195 199.323 117.781 199.69 112.557C200.058 107.333 200.192 101.506 200.192 98.1244C200.192 94.7423 200.058 91.5276 200.058 91.5276H196.449C196.449 91.5276 196.215 97.1533 195.714 101.272C195.212 105.357 194.477 116.441 194.11 121.899C193.709 127.358 193.174 136.566 193.274 140.417C193.374 144.268 193.742 152.606 194.477 155.218C195.212 157.83 197.451 160.308 198.688 162.685C199.924 165.063 203.533 171.124 203.634 171.76C203.767 172.396 203.5 178.223 203.5 180.969C203.5 183.715 202.765 190.713 201.528 197.578C200.292 204.442 199.289 212.513 198.688 217.602C198.053 222.692 196.582 276.122 195.98 282.083C195.345 288.043 194.878 292.262 194.109 295.511C193.374 298.725 192.371 301.069 192.371 301.069L258.134 299.3C258.134 299.3 256.8 291.469 255.43 285.877C254.06 280.284 250.651 232.504 250.384 225.907C250.15 219.31 248.646 208.26 248.011 201.797C247.377 195.334 246.508 185.389 246.14 176.816C245.773 168.244 244.904 157.562 245.271 157.194C245.639 156.825 252.824 152.606 255.43 150.597C258.037 148.621 260.276 146.244 261.746 143.264C263.25 140.283 265.221 136.432 266.09 133.184C266.959 129.936 268.062 123.607 268.062 119.89C268.062 116.173 267.694 110.213 268.062 104.855C268.429 99.4973 268.062 91.4941 268.062 91.4941H265.956C265.956 91.4941 265.722 98.6267 265.221 102.846C264.72 107.065 264.219 112.055 263.851 115.771C263.484 119.488 262.615 125.215 260.877 130.07C259.139 134.925 258.137 136.298 256.9 137.537C255.664 138.776 249.348 142.025 247.844 142.996C246.341 144 245.004 144.603 245.004 143.632C245.004 142.627 244.87 131.075 244.77 125.616C244.636 120.158 244.536 116.039 244.269 111.083C244.035 106.128 243.634 104.386 243.634 100.267C243.701 96.1822 244.068 91.5276 244.068 91.5276H211.954Z" fill="#3B96AF"/>
<path d="M163.5 89.4308C180.602 120.782 220.662 128.919 238.555 129.069C277.85 133.024 341.127 126.436 339.28 97.1806C337.434 67.9249 268.106 4.16697 223.446 5.91692C178.787 7.66686 154.27 72.3518 163.5 89.4308Z" fill="#066F85"/>
<path d="M142.251 370.112C120.402 376.327 103 376 84.5077 370.112L65 602H382.976C377.904 588.923 362.922 558.264 343.57 540.241C319.381 517.712 329.915 511.886 314.699 478.482C299.483 445.077 296.752 455.953 283.096 448.573C269.441 441.193 260.467 445.466 252.664 433.425C244.861 421.384 251.104 409.343 252.664 395.748C253.913 384.872 258.386 374.126 260.467 370.112C251.884 361.567 229.255 345.02 207.406 347.195C180.095 349.914 169.561 362.344 142.251 370.112Z" fill="#066F85"/>
<g filter="url(#filter0_i_2146_13)">
<path d="M298.437 599.915C298.437 581.199 294.603 556.151 281.34 542.916C268.078 529.682 255.307 516.281 227.719 510.733C207.513 506.67 190.975 503.046 177.713 516.281C164.451 529.515 157 581.199 157 599.915L227.719 599.915H298.437Z" fill="#0C6090"/>
</g>
<path d="M712.901 87.7988C752.862 87.7988 777.462 209.708 777.462 248.871C741.738 283.928 645.313 254.556 638.674 248.871C632.034 243.186 662.95 87.7988 712.901 87.7988Z" fill="#066F85"/>
<path d="M899.676 71.0371C939.637 71.0371 964.237 217 964.237 263.89C928.512 305.864 832.087 270.697 825.448 263.89C818.809 257.084 849.725 71.0371 899.676 71.0371Z" fill="#066F85"/>
<path d="M810.809 0C860.817 0 891.602 188.058 891.602 248.47C846.895 302.549 726.227 257.239 717.918 248.47C709.61 239.7 748.298 0 810.809 0Z" fill="#066F85"/>
<path d="M526.317 296.885C552.513 332.669 605.336 337.597 628.474 335.589C679.761 335.557 760.655 319.855 754.444 284.735C743.682 223.884 717.24 245.324 667.519 209.163C651.221 187.724 648.137 172.448 590.726 164.479C533.315 156.51 512.157 277.381 526.317 296.885Z" fill="#008BA8"/>
<path d="M666.928 284.058C691.642 277.285 711.275 258.748 694.644 243.776C663.437 214.186 625.401 210.605 599.483 214.094C591.179 215.212 584.12 217.055 578.926 219.001C559.062 223.813 541.739 249.658 569.456 269.442C618.885 303.307 642.213 290.831 666.928 284.058Z" fill="#066F85"/>
<path d="M667.065 285.063C691.817 279.147 711.48 262.957 694.825 249.88C663.569 224.036 625.475 220.908 599.517 223.956C591.2 224.932 584.13 226.542 578.928 228.241C559.034 232.444 541.684 255.018 569.444 272.298C618.948 301.876 642.313 290.979 667.065 285.063Z" fill="url(#paint2_linear_2146_13)"/>
<defs>
<filter id="filter0_i_2146_13" x="157" y="507" width="141.437" height="92.915" filterUnits="userSpaceOnUse" color-interpolation-filters="sRGB">
<feFlood flood-opacity="0" result="BackgroundImageFix"/>
<feBlend mode="normal" in="SourceGraphic" in2="BackgroundImageFix" result="shape"/>
<feColorMatrix in="SourceAlpha" type="matrix" values="0 0 0 0 0 0 0 0 0 0 0 0 0 0 0 0 0 0 127 0" result="hardAlpha"/>
<feOffset dy="20"/>
<feComposite in2="hardAlpha" operator="arithmetic" k2="-1" k3="1"/>
<feColorMatrix type="matrix" values="0 0 0 0 0 0 0 0 0 0 0 0 0 0 0 0 0 0 0.25 0"/>
<feBlend mode="normal" in2="shape" result="effect1_innerShadow_2146_13"/>
</filter>
<linearGradient id="paint0_linear_2146_13" x1="11.5" y1="535.361" x2="1046.5" y2="537.354" gradientUnits="userSpaceOnUse">
<stop stop-color="#3DC0C3"/>
<stop offset="0.46" stop-color="#05C8FF"/>
<stop offset="1" stop-color="#123A63"/>
</linearGradient>
<linearGradient id="paint1_linear_2146_13" x1="25" y1="186.485" x2="1014" y2="186.485" gradientUnits="userSpaceOnUse">
<stop stop-color="#8BD2D0"/>
<stop offset="1" stop-color="#00A7E0"/>
</linearGradient>
<linearGradient id="paint2_linear_2146_13" x1="628" y1="223" x2="628" y2="292" gradientUnits="userSpaceOnUse">
<stop stop-color="#8BD2D0"/>
<stop offset="1" stop-color="#00A5E2"/>
</linearGradient>
</defs>
</svg>
