<svg width="12" height="13" viewBox="0 0 12 13" fill="none" xmlns="http://www.w3.org/2000/svg">
<path d="M6.06156 1.16101C6.5536 0.310694 7.8525 0.707873 7.89715 1.7223L7.99481 3.94105C8.01465 4.39199 8.32014 4.79111 8.74483 4.92097L10.8403 5.56172C11.7423 5.83755 11.866 7.1134 11.0258 7.47458L8.79805 8.43217C8.4382 8.58685 8.21549 8.95492 8.23354 9.36511L8.34495 11.8963C8.38872 12.8908 7.16521 13.283 6.57964 12.4621L5.38244 10.7837C5.10101 10.3892 4.60097 10.2363 4.18165 10.4165L2.39781 11.1833C1.5253 11.5584 0.644341 10.5227 1.12673 9.6891L2.35448 7.56739C2.55343 7.22356 2.5257 6.77891 2.28419 6.44034L0.789093 4.34438C0.225167 3.55382 0.902348 2.52287 1.80438 2.7987L3.89981 3.43945C4.3245 3.56931 4.76665 3.39881 4.98538 3.02082L6.06156 1.16101Z" fill="#CDF8FF"/>
</svg>
