<svg width="29" height="34" viewBox="0 0 29 34" fill="none" xmlns="http://www.w3.org/2000/svg">
<path d="M10.7427 1.80142C10.7812 0.786599 12.0766 0.379691 12.5738 1.22624L17.4576 9.54109C17.6787 9.91742 18.1216 10.0846 18.5452 9.95151L27.2533 7.21626C28.1534 6.93353 28.8367 7.96017 28.2775 8.75514L22.5255 16.933C22.2859 17.2736 22.2609 17.7189 22.4622 18.0615L27.4979 26.635C27.9855 27.4651 27.1118 28.5077 26.2372 28.1396L18.0118 24.6765C17.5917 24.4997 17.0932 24.6562 16.8144 25.0526L11.3552 32.8141C10.7748 33.6393 9.54968 33.2559 9.58742 32.2608L9.97723 21.9831C9.9928 21.5724 9.76769 21.2057 9.40675 21.0537L0.739966 17.4049C-0.102534 17.0502 0.0129234 15.7726 0.913032 15.4899L9.62107 12.7547C10.0447 12.6216 10.3475 12.2202 10.3646 11.769L10.7427 1.80142Z" fill="#CDF8FF"/>
</svg>
