<svg width="705" height="508" viewBox="0 0 705 508" fill="none" xmlns="http://www.w3.org/2000/svg">
<path d="M463.508 497.947C427.397 489.373 398.71 465.909 423.009 446.957C468.608 409.501 524.184 404.969 562.054 409.385C574.187 410.8 584.503 413.133 592.091 415.596C621.115 421.687 646.426 454.402 605.928 479.446C533.705 522.313 499.619 506.52 463.508 497.947Z" fill="white" fill-opacity="0.5"/>
<path d="M453.508 487.947C417.397 479.373 388.71 455.909 413.009 436.957C458.608 399.501 514.184 394.969 552.054 399.385C564.187 400.8 574.503 403.133 582.091 405.596C611.115 411.687 636.426 444.402 595.928 469.446C523.705 512.313 489.619 496.52 453.508 487.947Z" fill="#3DC0C3"/>
<path d="M61.8984 409.429C103.92 374.76 180.208 378.933 213.1 385.353C227.733 387.635 236.737 396.589 247.993 419.977C295.642 472.485 187.962 493.122 160.198 490.829C132.434 488.536 9.37173 452.766 61.8984 409.429Z" fill="white" fill-opacity="0.5"/>
<path d="M51.8984 399.429C93.9197 364.76 170.208 368.933 203.1 375.353C217.733 377.635 226.737 386.589 237.993 409.977C285.642 462.485 177.962 483.122 150.198 480.829C122.434 478.536 -0.628273 442.766 51.8984 399.429Z" fill="#3DC0C3"/>
<path d="M24.0598 211.014C69.8651 173.192 153.023 177.745 188.877 184.749C204.827 187.238 214.642 197.006 226.911 222.52C278.851 279.802 161.476 302.315 131.211 299.814C100.947 297.312 -33.1967 258.29 24.0598 211.014Z" fill="white" fill-opacity="0.5"/>
<path d="M14.0598 201.014C59.8651 163.192 143.023 167.745 178.877 174.749C194.827 177.238 204.642 187.006 216.911 212.52C268.851 269.802 151.476 292.315 121.211 289.814C90.9472 287.312 -43.1967 248.29 14.0598 201.014Z" fill="#3DC0C3"/>
<path d="M528.459 308.936C489.466 298.648 458.49 270.491 484.728 247.748C533.967 202.802 593.978 197.362 634.871 202.662C647.972 204.36 659.111 207.159 667.305 210.116C698.645 217.425 725.977 256.683 682.246 286.735C604.259 338.176 567.452 319.224 528.459 308.936Z" fill="white" fill-opacity="0.5"/>
<path d="M518.459 298.936C479.466 288.648 448.49 260.491 474.728 237.748C523.967 192.802 583.978 187.362 624.871 192.662C637.972 194.36 649.111 197.159 657.305 200.116C688.645 207.425 715.977 246.683 672.246 276.735C594.259 328.176 557.452 309.224 518.459 298.936Z" fill="#3DC0C3"/>
<path fill-rule="evenodd" clip-rule="evenodd" d="M490.196 17.694C479.807 14.3668 454.55 10.6169 436.631 22.2342C414.234 36.756 400.576 62.415 415.07 75.3976C420.096 79.8998 433.1 86.2915 449.37 90.7464C447.619 98.3018 449.65 105.437 456.777 110.814C475.411 124.874 577.726 157.896 619.097 110.264C634.439 106.794 648.24 99.9341 658.366 88.2144C665.749 72.9471 646.354 46.4009 588.226 31.9626C575.861 28.3214 547.002 23.7634 525.241 32.6421C516.572 26.8348 505.003 21.5969 490.196 17.694Z" fill="white" fill-opacity="0.5"/>
<path d="M487.009 51.4525C509.094 40.1053 540.932 45.0184 554.09 48.8934C612.218 63.3317 631.614 89.8779 624.231 105.145C582.926 152.951 480.457 119.885 461.808 105.814C443.158 91.743 459.402 65.6366 487.009 51.4525Z" fill="white"/>
<path d="M526.175 29.5219C548.26 18.1746 580.098 23.0878 593.256 26.9628C651.384 41.4011 670.78 67.9473 663.397 83.2146C622.093 131.021 519.623 97.9547 500.974 83.8835C482.324 69.8123 498.568 43.7059 526.175 29.5219Z" fill="white"/>
<path d="M441.662 17.2344C459.58 5.61698 484.838 9.36696 495.226 12.6941C541.193 24.8098 555.945 49.7906 549.646 64.7308C515.42 112.075 434.594 83.3804 420.101 70.3978C405.607 57.4151 419.264 31.7561 441.662 17.2344Z" fill="white"/>
<path d="M489.928 307.415C490.753 307.332 491.354 306.596 491.271 305.772C491.188 304.948 490.452 304.347 489.628 304.43L489.928 307.415ZM230 273.82L239.695 288.173L247.278 272.601L230 273.82ZM233.918 277.396C234.667 277.75 235.561 277.428 235.914 276.679C236.267 275.93 235.946 275.036 235.197 274.683L233.918 277.396ZM244.446 278.774C243.681 278.456 242.803 278.819 242.485 279.584C242.168 280.349 242.531 281.227 243.296 281.544L244.446 278.774ZM252.837 285.271C253.615 285.557 254.477 285.158 254.762 284.381C255.048 283.603 254.649 282.741 253.872 282.456L252.837 285.271ZM263.427 285.765C262.64 285.508 261.793 285.938 261.536 286.725C261.279 287.513 261.709 288.36 262.497 288.617L263.427 285.765ZM272.266 291.624C273.062 291.855 273.894 291.398 274.125 290.602C274.356 289.806 273.898 288.974 273.102 288.743L272.266 291.624ZM282.874 291.421C282.072 291.213 281.254 291.696 281.046 292.498C280.839 293.3 281.321 294.118 282.123 294.325L282.874 291.421ZM292.051 296.747C292.858 296.932 293.663 296.428 293.849 295.621C294.034 294.814 293.53 294.009 292.723 293.823L292.051 296.747ZM302.634 295.973C301.823 295.807 301.03 296.33 300.865 297.142C300.699 297.954 301.222 298.746 302.034 298.912L302.634 295.973ZM312.062 300.842C312.877 300.989 313.658 300.448 313.805 299.633C313.953 298.817 313.411 298.037 312.596 297.89L312.062 300.842ZM322.599 299.591C321.781 299.46 321.012 300.018 320.881 300.836C320.751 301.654 321.308 302.423 322.126 302.553L322.599 299.591ZM332.218 304.063C333.039 304.178 333.797 303.606 333.912 302.785C334.026 301.965 333.454 301.207 332.634 301.092L332.218 304.063ZM342.698 302.406C341.876 302.306 341.128 302.891 341.028 303.714C340.928 304.536 341.514 305.284 342.336 305.384L342.698 302.406ZM352.475 306.528C353.299 306.614 354.037 306.015 354.123 305.191C354.209 304.367 353.61 303.63 352.786 303.544L352.475 306.528ZM362.894 304.516C362.069 304.443 361.341 305.053 361.268 305.878C361.196 306.704 361.806 307.431 362.631 307.504L362.894 304.516ZM372.799 308.322C373.625 308.382 374.344 307.761 374.404 306.935C374.464 306.109 373.843 305.39 373.017 305.33L372.799 308.322ZM383.15 305.993C382.323 305.945 381.614 306.577 381.566 307.404C381.518 308.231 382.149 308.94 382.976 308.988L383.15 305.993ZM393.158 309.509C393.986 309.545 394.686 308.904 394.723 308.077C394.759 307.249 394.118 306.548 393.29 306.512L393.158 309.509ZM403.431 306.89C402.603 306.865 401.911 307.516 401.886 308.344C401.861 309.172 402.512 309.863 403.34 309.889L403.431 306.89ZM413.537 310.131C414.365 310.146 415.048 309.486 415.062 308.657C415.077 307.829 414.417 307.146 413.588 307.132L413.537 310.131ZM423.757 307.239C422.929 307.236 422.255 307.905 422.251 308.733C422.248 309.561 422.917 310.236 423.745 310.239L423.757 307.239ZM433.945 310.211C434.773 310.204 435.438 309.526 435.431 308.698C435.423 307.869 434.745 307.204 433.917 307.212L433.945 310.211ZM444.053 307.05C443.225 307.068 442.569 307.755 442.587 308.583C442.606 309.411 443.293 310.068 444.121 310.049L444.053 307.05ZM454.333 309.746C455.161 309.715 455.807 309.019 455.777 308.191C455.746 307.364 455.05 306.717 454.223 306.748L454.333 309.746ZM464.366 306.3C463.538 306.343 462.902 307.048 462.945 307.875C462.988 308.703 463.693 309.339 464.521 309.296L464.366 306.3ZM474.711 308.685C475.538 308.629 476.162 307.913 476.105 307.086C476.049 306.26 475.333 305.636 474.506 305.692L474.711 308.685ZM484.59 304.905C483.765 304.978 483.155 305.706 483.228 306.531C483.301 307.356 484.029 307.966 484.855 307.893L484.59 304.905ZM243.296 281.544C246.417 282.841 249.6 284.082 252.837 285.271L253.872 282.456C250.672 281.28 247.528 280.053 244.446 278.774L243.296 281.544ZM262.497 288.617C265.711 289.665 268.969 290.667 272.266 291.624L273.102 288.743C269.835 287.795 266.608 286.803 263.427 285.765L262.497 288.617ZM282.123 294.325C285.403 295.173 288.714 295.979 292.051 296.747L292.723 293.823C289.411 293.062 286.127 292.261 282.874 291.421L282.123 294.325ZM302.034 298.912C305.359 299.591 308.703 300.234 312.062 300.842L312.596 297.89C309.258 297.286 305.936 296.647 302.634 295.973L302.034 298.912ZM322.126 302.553C325.482 303.089 328.848 303.592 332.218 304.063L332.634 301.092C329.282 300.623 325.935 300.123 322.599 299.591L322.126 302.553ZM342.336 305.384C345.718 305.795 349.1 306.175 352.475 306.528L352.786 303.544C349.427 303.193 346.063 302.814 342.698 302.406L342.336 305.384ZM362.631 307.504C366.033 307.804 369.424 308.076 372.799 308.322L373.017 305.33C369.657 305.085 366.281 304.814 362.894 304.516L362.631 307.504ZM382.976 308.988C386.395 309.187 389.791 309.36 393.158 309.509L393.29 306.512C389.936 306.364 386.555 306.192 383.15 305.993L382.976 308.988ZM403.34 309.889C406.778 309.993 410.179 310.074 413.537 310.131L413.588 307.132C410.244 307.074 406.856 306.994 403.431 306.89L403.34 309.889ZM423.745 310.239C427.204 310.252 430.606 310.243 433.945 310.211L433.917 307.212C430.591 307.243 427.202 307.252 423.757 307.239L423.745 310.239ZM444.121 310.049C447.614 309.969 451.021 309.867 454.333 309.746L454.223 306.748C450.925 306.869 447.531 306.97 444.053 307.05L444.121 310.049ZM464.521 309.296C468.06 309.113 471.462 308.908 474.711 308.685L474.506 305.692C471.274 305.914 467.889 306.118 464.366 306.3L464.521 309.296ZM484.855 307.893C486.609 307.738 488.301 307.578 489.928 307.415L489.628 304.43C488.013 304.592 486.333 304.751 484.59 304.905L484.855 307.893Z" fill="#066F85"/>
<path d="M257.952 470.795C257.171 470.519 256.314 470.928 256.037 471.709C255.761 472.49 256.17 473.347 256.951 473.623L257.952 470.795ZM417.447 486.88L401.194 480.894L404.137 497.963L417.447 486.88ZM261.769 475.251C262.557 475.507 263.403 475.075 263.658 474.287C263.913 473.498 263.481 472.653 262.693 472.397L261.769 475.251ZM272.344 475.308C271.546 475.083 270.718 475.547 270.493 476.344C270.268 477.142 270.733 477.97 271.53 478.195L272.344 475.308ZM281.384 480.807C282.188 481.008 283.002 480.519 283.202 479.715C283.403 478.911 282.914 478.097 282.11 477.896L281.384 480.807ZM291.933 480.204C291.124 480.026 290.323 480.536 290.144 481.345C289.966 482.154 290.477 482.955 291.285 483.134L291.933 480.204ZM301.251 485.202C302.065 485.36 302.852 484.829 303.01 484.016C303.168 483.203 302.637 482.416 301.824 482.258L301.251 485.202ZM311.764 484.061C310.947 483.923 310.173 484.474 310.036 485.291C309.898 486.108 310.449 486.882 311.266 487.019L311.764 484.061ZM321.322 488.584C322.142 488.701 322.902 488.131 323.019 487.311C323.136 486.491 322.566 485.731 321.746 485.614L321.322 488.584ZM331.764 486.912C330.942 486.816 330.197 487.406 330.101 488.229C330.006 489.051 330.595 489.796 331.418 489.892L331.764 486.912ZM341.548 490.933C342.373 491.006 343.102 490.397 343.175 489.572C343.249 488.747 342.639 488.018 341.814 487.945L341.548 490.933ZM351.882 488.7C351.055 488.649 350.344 489.279 350.294 490.106C350.244 490.933 350.874 491.644 351.7 491.694L351.882 488.7ZM361.871 492.159C362.699 492.184 363.39 491.534 363.416 490.706C363.441 489.877 362.79 489.186 361.962 489.16L361.871 492.159ZM372.052 489.308C371.224 489.31 370.553 489.982 370.555 490.811C370.556 491.639 371.229 492.31 372.057 492.308L372.052 489.308ZM382.247 492.118C383.075 492.088 383.722 491.393 383.692 490.565C383.662 489.737 382.967 489.09 382.139 489.12L382.247 492.118ZM392.205 488.57C391.379 488.631 390.759 489.35 390.819 490.176C390.88 491.002 391.599 491.623 392.426 491.562L392.205 488.57ZM402.581 490.608C403.404 490.514 403.994 489.77 403.9 488.947C403.805 488.124 403.061 487.533 402.238 487.628L402.581 490.608ZM412.216 486.26C411.398 486.391 410.841 487.16 410.972 487.978C411.103 488.796 411.872 489.353 412.69 489.222L412.216 486.26ZM256.951 473.623C258.437 474.149 260.045 474.693 261.769 475.251L262.693 472.397C260.993 471.847 259.41 471.311 257.952 470.795L256.951 473.623ZM271.53 478.195C274.602 479.061 277.895 479.937 281.384 480.807L282.11 477.896C278.65 477.034 275.386 476.165 272.344 475.308L271.53 478.195ZM291.285 483.134C294.49 483.842 297.817 484.535 301.251 485.202L301.824 482.258C298.415 481.595 295.113 480.907 291.933 480.204L291.285 483.134ZM311.266 487.019C314.545 487.572 317.901 488.096 321.322 488.584L321.746 485.614C318.35 485.13 315.019 484.609 311.764 484.061L311.266 487.019ZM331.418 489.892C334.749 490.279 338.128 490.628 341.548 490.933L341.814 487.945C338.422 487.643 335.069 487.296 331.764 486.912L331.418 489.892ZM351.7 491.694C355.064 491.898 358.457 492.055 361.871 492.159L361.962 489.16C358.58 489.057 355.217 488.902 351.882 488.7L351.7 491.694ZM372.057 492.308C375.444 492.303 378.843 492.241 382.247 492.118L382.139 489.12C378.771 489.242 375.406 489.303 372.052 489.308L372.057 492.308ZM392.426 491.562C395.816 491.312 399.203 490.996 402.581 490.608L402.238 487.628C398.903 488.011 395.557 488.323 392.205 488.57L392.426 491.562Z" fill="white"/>
<path d="M614.882 119.787C614.212 119.3 613.274 119.448 612.787 120.118C612.3 120.788 612.448 121.726 613.118 122.213L614.882 119.787ZM623.226 191L637.173 180.73L621.305 173.786L623.226 191ZM616.536 125.167C617.121 125.754 618.071 125.754 618.657 125.169C619.243 124.583 619.244 123.634 618.658 123.048L616.536 125.167ZM624.753 130.801C624.316 130.097 623.391 129.882 622.687 130.319C621.984 130.757 621.769 131.682 622.206 132.386L624.753 130.801ZM626.271 140.666C626.562 141.441 627.427 141.834 628.202 141.544C628.978 141.253 629.371 140.388 629.08 139.613L626.271 140.666ZM631.649 149.072C631.506 148.256 630.728 147.71 629.912 147.854C629.096 147.997 628.551 148.774 628.694 149.59L631.649 149.072ZM629.5 158.817C629.503 159.645 630.177 160.315 631.005 160.312C631.833 160.309 632.503 159.635 632.5 158.806L629.5 158.817ZM631.78 168.538C631.902 167.719 631.337 166.956 630.517 166.834C629.698 166.712 628.935 167.277 628.813 168.096L631.78 168.538ZM626.825 177.216C626.598 178.013 627.06 178.843 627.856 179.07C628.653 179.297 629.483 178.836 629.71 178.039L626.825 177.216ZM626.531 187.188C626.844 186.421 626.477 185.545 625.71 185.232C624.943 184.918 624.067 185.286 623.754 186.053L626.531 187.188ZM613.118 122.213C614.193 122.995 615.35 123.98 616.536 125.167L618.658 123.048C617.372 121.759 616.096 120.669 614.882 119.787L613.118 122.213ZM622.206 132.386C623.715 134.811 625.112 137.575 626.271 140.666L629.08 139.613C627.85 136.33 626.364 133.389 624.753 130.801L622.206 132.386ZM628.694 149.59C629.199 152.469 629.488 155.546 629.5 158.817L632.5 158.806C632.487 155.365 632.183 152.118 631.649 149.072L628.694 149.59ZM628.813 168.096C628.379 171.012 627.728 174.053 626.825 177.216L629.71 178.039C630.647 174.754 631.327 171.586 631.78 168.538L628.813 168.096Z" fill="white"/>
<path d="M93.478 289.005C94.033 288.39 93.9844 287.441 93.3694 286.886C92.7543 286.331 91.8058 286.38 91.2508 286.995L93.478 289.005ZM95.8644 381L93.8668 363.795L79.9657 374.127L95.8644 381ZM87.9914 291.051C87.5066 291.722 87.6582 292.66 88.33 293.145C89.0017 293.63 89.9393 293.478 90.4241 292.806L87.9914 291.051ZM85.3726 301.263C85.7389 300.52 85.4334 299.621 84.6903 299.254C83.9472 298.888 83.048 299.194 82.6817 299.937L85.3726 301.263ZM78.8239 309.514C78.5721 310.303 79.0077 311.147 79.7969 311.399C80.5861 311.651 81.4301 311.215 81.6819 310.426L78.8239 309.514ZM79.378 320.026C79.5117 319.208 78.9573 318.437 78.1397 318.303C77.3221 318.169 76.551 318.724 76.4173 319.541L79.378 320.026ZM75.5073 329.824C75.4954 330.653 76.1572 331.334 76.9855 331.346C77.8138 331.358 78.495 330.696 78.507 329.868L75.5073 329.824ZM79.0874 339.731C78.9789 338.91 78.2252 338.332 77.4039 338.44C76.5826 338.549 76.0047 339.303 76.1132 340.124L79.0874 339.731ZM78.1768 350.217C78.3983 351.015 79.2249 351.482 80.0232 351.261C80.8215 351.04 81.2891 350.213 81.0676 349.415L78.1768 350.217ZM84.3332 358.765C84.0111 358.001 83.1313 357.644 82.368 357.966C81.6048 358.288 81.2471 359.168 81.5692 359.931L84.3332 358.765ZM86.1133 369.146C86.5211 369.867 87.4363 370.121 88.1574 369.713C88.8785 369.305 89.1325 368.39 88.7247 367.669L86.1133 369.146ZM94.0719 376.075C93.5932 375.398 92.657 375.238 91.9809 375.717C91.3048 376.196 91.1448 377.132 91.6235 377.808L94.0719 376.075ZM91.2508 286.995C90.1788 288.183 89.0821 289.539 87.9914 291.051L90.4241 292.806C91.4555 291.377 92.4841 290.106 93.478 289.005L91.2508 286.995ZM82.6817 299.937C81.2466 302.848 79.9284 306.053 78.8239 309.514L81.6819 310.426C82.7395 307.112 84.001 304.046 85.3726 301.263L82.6817 299.937ZM76.4173 319.541C75.8815 322.818 75.5589 326.253 75.5073 329.824L78.507 329.868C78.5564 326.449 78.8652 323.162 79.378 320.026L76.4173 319.541ZM76.1132 340.124C76.5471 343.409 77.2227 346.778 78.1768 350.217L81.0676 349.415C80.151 346.111 79.5031 342.879 79.0874 339.731L76.1132 340.124ZM81.5692 359.931C82.8498 362.966 84.3571 366.04 86.1133 369.146L88.7247 367.669C87.0241 364.662 85.568 361.691 84.3332 358.765L81.5692 359.931Z" fill="#066F85"/>
</svg>
