<svg width="705" height="508" viewBox="0 0 705 508" fill="none" xmlns="http://www.w3.org/2000/svg">
<path d="M463.508 497.947C427.397 489.373 398.71 465.909 423.009 446.957C468.608 409.501 524.184 404.969 562.054 409.385C574.187 410.8 584.503 413.133 592.091 415.596C621.115 421.687 646.426 454.402 605.928 479.446C533.705 522.313 499.619 506.52 463.508 497.947Z" fill="white" fill-opacity="0.5"/>
<path d="M453.508 487.947C417.397 479.373 388.71 455.909 413.009 436.957C458.608 399.501 514.184 394.969 552.054 399.385C564.187 400.8 574.503 403.133 582.091 405.596C611.115 411.687 636.426 444.402 595.928 469.446C523.705 512.313 489.619 496.52 453.508 487.947Z" fill="#3DC0C3"/>
<path d="M61.8984 409.429C103.92 374.76 180.208 378.933 213.1 385.353C227.733 387.635 236.737 396.589 247.993 419.977C295.642 472.485 187.962 493.122 160.198 490.829C132.434 488.536 9.37173 452.766 61.8984 409.429Z" fill="white" fill-opacity="0.5"/>
<path d="M51.8984 399.429C93.9197 364.76 170.208 368.933 203.1 375.353C217.733 377.635 226.737 386.589 237.993 409.977C285.642 462.485 177.962 483.122 150.198 480.829C122.434 478.536 -0.628273 442.766 51.8984 399.429Z" fill="#3DC0C3"/>
<path d="M24.0598 211.014C69.8651 173.192 153.023 177.745 188.877 184.749C204.827 187.238 214.642 197.006 226.911 222.52C278.851 279.802 161.476 302.315 131.211 299.814C100.947 297.312 -33.1967 258.29 24.0598 211.014Z" fill="white" fill-opacity="0.5"/>
<path d="M14.0598 201.014C59.8651 163.192 143.023 167.745 178.877 174.749C194.827 177.238 204.642 187.006 216.911 212.52C268.851 269.802 151.476 292.315 121.211 289.814C90.9472 287.312 -43.1967 248.29 14.0598 201.014Z" fill="#3DC0C3"/>
<path d="M528.459 308.936C489.466 298.648 458.49 270.491 484.728 247.748C533.967 202.802 593.978 197.362 634.871 202.662C647.972 204.36 659.111 207.159 667.305 210.116C698.645 217.425 725.977 256.683 682.246 286.735C604.259 338.176 567.452 319.224 528.459 308.936Z" fill="white" fill-opacity="0.5"/>
<path d="M518.459 298.936C479.466 288.648 448.49 260.491 474.728 237.748C523.967 192.802 583.978 187.362 624.871 192.662C637.972 194.36 649.111 197.159 657.305 200.116C688.645 207.425 715.977 246.683 672.246 276.735C594.259 328.176 557.452 309.224 518.459 298.936Z" fill="#3DC0C3"/>
<path fill-rule="evenodd" clip-rule="evenodd" d="M490.196 17.694C479.807 14.3668 454.55 10.6169 436.631 22.2342C414.234 36.756 400.576 62.415 415.07 75.3976C420.096 79.8998 433.1 86.2915 449.37 90.7464C447.619 98.3018 449.65 105.437 456.777 110.814C475.411 124.874 577.726 157.896 619.097 110.264C634.439 106.794 648.24 99.9341 658.366 88.2144C665.749 72.9471 646.354 46.4009 588.226 31.9626C575.861 28.3214 547.002 23.7634 525.241 32.6421C516.572 26.8348 505.003 21.5969 490.196 17.694Z" fill="white" fill-opacity="0.5"/>
<path d="M487.009 51.4525C509.094 40.1053 540.932 45.0184 554.09 48.8934C612.218 63.3317 631.614 89.8779 624.231 105.145C582.926 152.951 480.457 119.885 461.808 105.814C443.158 91.743 459.402 65.6366 487.009 51.4525Z" fill="white"/>
<path d="M526.175 29.5219C548.26 18.1746 580.098 23.0878 593.256 26.9628C651.384 41.4011 670.78 67.9473 663.397 83.2146C622.093 131.021 519.623 97.9547 500.974 83.8835C482.324 69.8123 498.568 43.7059 526.175 29.5219Z" fill="white"/>
<path d="M441.662 17.2344C459.58 5.61698 484.838 9.36696 495.226 12.6941C541.193 24.8098 555.945 49.7906 549.646 64.7308C515.42 112.075 434.594 83.3804 420.101 70.3978C405.607 57.4151 419.264 31.7561 441.662 17.2344Z" fill="white"/>
<path d="M531.35 228.424H538.518V227.656H531.334V226.104H540.614V229.88H533.462V230.696H540.998V232.28H531.35V228.424ZM529.51 225.464V223.8H534.95V222.36H537.078V223.8H542.534V225.464H529.51ZM531.654 223.288L530.886 221.56L534.358 220.024C534.534 219.944 534.662 219.848 534.742 219.768H531.254V218.04H540.79V219.768H537.286C537.382 219.848 537.51 219.928 537.686 220.008L541.158 221.56L540.39 223.288L536.918 221.736C536.55 221.576 536.246 221.368 536.006 221.144C535.782 221.352 535.494 221.56 535.126 221.72L531.654 223.288ZM550.489 232.728C548.249 232.728 546.681 231.416 546.681 229.592C546.681 227.736 548.249 226.44 550.489 226.44C552.761 226.44 554.345 227.736 554.345 229.592C554.345 231.416 552.761 232.728 550.489 232.728ZM544.009 221.384H548.281V220.392H544.009V218.664H550.409V223H546.137V223.976H551.081V225.72H544.009V221.384ZM550.489 231.032C551.561 231.032 552.249 230.456 552.249 229.592C552.249 228.712 551.561 228.136 550.489 228.136C549.449 228.136 548.761 228.712 548.761 229.592C548.761 230.456 549.449 231.032 550.489 231.032ZM552.617 226.232V217.96H554.745V221.288H556.649V223.032H554.745V226.232H552.617ZM559.1 228.424H566.268V227.656H559.084V226.104H568.364V229.88H561.212V230.696H568.748V232.28H559.1V228.424ZM557.26 225.464V223.8H562.7V222.36H564.828V223.8H570.284V225.464H557.26ZM559.404 223.288L558.636 221.56L562.108 220.024C562.284 219.944 562.412 219.848 562.492 219.768H559.004V218.04H568.54V219.768H565.036C565.132 219.848 565.26 219.928 565.436 220.008L568.908 221.56L568.14 223.288L564.668 221.736C564.3 221.576 563.996 221.368 563.756 221.144C563.532 221.352 563.244 221.56 562.876 221.72L559.404 223.288ZM578.239 232.728C575.999 232.728 574.431 231.416 574.431 229.592C574.431 227.736 575.999 226.44 578.239 226.44C580.511 226.44 582.095 227.736 582.095 229.592C582.095 231.416 580.511 232.728 578.239 232.728ZM571.759 221.384H576.031V220.392H571.759V218.664H578.159V223H573.887V223.976H578.831V225.72H571.759V221.384ZM578.239 231.032C579.311 231.032 579.999 230.456 579.999 229.592C579.999 228.712 579.311 228.136 578.239 228.136C577.199 228.136 576.511 228.712 576.511 229.592C576.511 230.456 577.199 231.032 578.239 231.032ZM580.367 226.232V217.96H582.495V221.288H584.399V223.032H582.495V226.232H580.367ZM595.689 219.064H600.553V220.776H597.801V224.04H600.553V225.72H595.689V219.064ZM588.713 230.248V228.504H594.137V226.36H596.249V228.504H601.737V230.248H588.713ZM589.929 225.72V219.064H594.825V220.776H592.057V224.04H594.825V225.72H589.929ZM609.676 232.728C607.436 232.728 605.868 231.416 605.868 229.592C605.868 227.736 607.436 226.44 609.676 226.44C611.948 226.44 613.532 227.736 613.532 229.592C613.532 231.416 611.948 232.728 609.676 232.728ZM603.196 221.384H607.468V220.392H603.196V218.664H609.596V223H605.324V223.976H610.268V225.72H603.196V221.384ZM609.676 231.032C610.748 231.032 611.436 230.456 611.436 229.592C611.436 228.712 610.748 228.136 609.676 228.136C608.636 228.136 607.948 228.712 607.948 229.592C607.948 230.456 608.636 231.032 609.676 231.032ZM611.804 226.232V217.96H613.932V221.288H615.836V223.032H613.932V226.232H611.804ZM626.703 217.976H628.735V226.328H626.703V223.016H625.647V226.168H623.647V218.2H625.647V221.304H626.703V217.976ZM619.407 226.904H628.735V232.216H619.407V226.904ZM626.639 228.552H621.503V230.536H626.639V228.552ZM617.855 225.96L616.255 224.808L618.383 221.848C618.783 221.272 618.895 220.84 618.895 220.424V218.456H620.975V220.424C620.975 220.84 621.087 221.24 621.519 221.848L623.647 224.808L622.047 225.96L619.951 223.048L617.855 225.96Z" fill="#123A63"/>
<path d="M511.02 247.058H519.182V242.48H512.28V241.486H520.414V247.058H522.15V248.066H517.166V253.078H515.948V248.066H511.02V247.058ZM522.955 247.072H534.113V248.052H522.955V247.072ZM524.761 241.038H532.307V243.992H525.965V245.126H532.559V246.078H524.789V243.11H531.103V241.99H524.761V241.038ZM524.775 249.116H532.363V252.896H524.775V249.116ZM531.173 250.082H525.965V251.916H531.173V250.082ZM543.823 240.744H545.041V249.396H543.823V244.748H541.485C541.247 246.19 540.057 247.156 538.447 247.156C536.641 247.156 535.381 245.938 535.381 244.216C535.381 242.48 536.641 241.262 538.447 241.262C540.099 241.262 541.303 242.27 541.499 243.768H543.823V240.744ZM537.411 248.766H538.629V251.804H545.111V252.784H537.411V248.766ZM538.447 246.162C539.553 246.162 540.337 245.364 540.337 244.216C540.337 243.054 539.553 242.256 538.447 242.256C537.341 242.256 536.571 243.054 536.571 244.216C536.571 245.364 537.341 246.162 538.447 246.162ZM549.137 248.556H556.977V253.064H555.759V249.536H549.137V248.556ZM555.759 240.73H556.977V247.94H555.759V244.65H552.511V243.67H555.759V240.73ZM553.771 246.05V247.058H547.541V241.262H553.085V242.27H548.745V246.05H553.771ZM565.314 241.92V247.17H564.11V242.914H559.224V241.92H565.314ZM567.022 252.63V240.73H568.226V245.868H570.158V246.876H568.226V252.63H567.022ZM566.028 249.13V250.11H558.776V249.13H561.17V245.588H562.36V249.13H566.028ZM582.856 240.744H584.074V249.06H582.856V246.218H579.678C579.132 246.792 578.334 247.142 577.368 247.142C575.562 247.142 574.288 245.924 574.288 244.202C574.288 242.466 575.562 241.248 577.368 241.248C578.432 241.248 579.314 241.668 579.846 242.382H582.856V240.744ZM576.444 248.78H577.662V251.804H584.144V252.784H576.444V248.78ZM577.368 246.148C578.474 246.148 579.244 245.35 579.244 244.202C579.244 243.04 578.474 242.256 577.368 242.256C576.262 242.256 575.478 243.04 575.478 244.202C575.478 245.35 576.262 246.148 577.368 246.148ZM580.266 245.224H582.856V243.376H580.336C580.392 243.628 580.434 243.908 580.434 244.202C580.434 244.566 580.378 244.916 580.266 245.224ZM588.254 249.704H594.792V248.528H588.24V247.562H596.01V250.628H589.458V251.972H596.276V252.938H588.254V249.704ZM586.392 245.812C588.828 245.364 590.592 244.51 590.648 242.312H586.658V241.304H591.782V242.312L591.768 242.494H594.792V240.73H596.01V247.002H594.792V245.798H591.628V244.846H594.792V243.432H591.628C591.04 245.49 588.982 246.498 586.588 246.918L586.392 245.812ZM598.943 241.248H604.837V242.242H600.133V244.734H604.837V245.714H602.597V247.226H605.915V248.206H597.949V247.226H601.393V245.714H598.943V241.248ZM606.671 240.744H607.889V249.438H606.671V240.744ZM600.049 249.34H601.267V251.804H608.043V252.784H600.049V249.34ZM621.819 240.716H623.037V252.658H621.819V240.716ZM616.485 248.71C614.567 248.71 613.209 247.31 613.209 245.322C613.209 243.32 614.567 241.906 616.485 241.906C618.389 241.906 619.733 243.32 619.733 245.322C619.733 247.31 618.389 248.71 616.485 248.71ZM616.485 247.646C617.717 247.646 618.571 246.694 618.571 245.322C618.571 243.936 617.717 242.97 616.485 242.97C615.239 242.97 614.385 243.936 614.385 245.322C614.385 246.694 615.239 247.646 616.485 247.646ZM624.907 247.338V246.372H629.765V243.922H630.969V246.372H636.009V247.338H624.907ZM626.461 253.092L625.845 252.224L628.981 250.04C629.709 249.536 629.877 249.172 629.877 248.948V248.276H631.025V248.948C631.025 249.158 631.207 249.536 631.935 250.026L635.071 252.224L634.455 253.092L631.319 250.922C630.941 250.67 630.661 250.404 630.451 250.152C630.255 250.404 629.975 250.656 629.597 250.908L626.461 253.092ZM626.391 242.27V241.276H634.175V245H632.943V242.27H626.391ZM636.829 247.072H647.945V248.052H636.829V247.072ZM638.551 249.102H639.769V251.804H646.433V252.798H638.551V249.102ZM639.069 243.32C639.069 241.682 640.427 240.646 642.359 240.646C644.333 240.646 645.705 241.682 645.705 243.32C645.705 244.832 644.333 245.98 642.359 245.98C640.427 245.98 639.069 244.832 639.069 243.32ZM640.231 243.32C640.231 244.244 641.099 244.958 642.359 244.958C643.647 244.958 644.543 244.244 644.543 243.32C644.543 242.27 643.647 241.654 642.359 241.654C641.099 241.654 640.231 242.27 640.231 243.32ZM495.598 266.896H506.714V267.876H501.758V269.01H504.964V271.824H498.496V272.986H505.342V273.924H497.292V270.956H503.76V269.934H497.25V269.01H500.54V267.876H495.598V266.896ZM497.292 262.15H505.02V266.028H497.292V262.15ZM503.83 263.102H498.482V265.076H503.83V263.102ZM516.368 261.716H517.586V273.658H516.368V261.716ZM515.668 269.976V270.984H507.898V269.976H515.668ZM508.43 265.384C508.43 263.578 509.718 262.304 511.552 262.304C513.442 262.304 514.744 263.578 514.744 265.384C514.744 267.19 513.442 268.45 511.552 268.45C509.718 268.45 508.43 267.19 508.43 265.384ZM509.564 265.384C509.564 266.588 510.376 267.428 511.552 267.428C512.784 267.428 513.624 266.602 513.624 265.398C513.624 264.18 512.784 263.326 511.552 263.326C510.376 263.326 509.564 264.166 509.564 265.384ZM522.696 271.208H525.79V268.24C525.048 267.624 524.614 266.7 524.614 265.594C524.614 263.55 526.126 262.108 528.254 262.108C530.41 262.108 531.922 263.55 531.922 265.594C531.922 266.686 531.488 267.624 530.746 268.24V271.208H533.854V272.202H522.696V271.208ZM525.79 265.594C525.79 267.036 526.798 268.058 528.254 268.058C529.724 268.058 530.746 267.036 530.746 265.594C530.746 264.152 529.724 263.13 528.254 263.13C526.798 263.13 525.79 264.152 525.79 265.594ZM526.994 271.208H529.542V268.884C529.15 269.01 528.716 269.08 528.254 269.08C527.806 269.08 527.386 269.01 526.994 268.898V271.208ZM541.323 264.642H543.563V261.744H544.781V269.052H543.563V265.65H541.323V264.642ZM536.017 268.142L535.177 267.414L537.207 265.006C537.641 264.488 537.753 264.026 537.753 263.62V263.326H535.331V262.318H541.211V263.326H538.915V263.62C538.915 264.054 538.985 264.488 539.447 265.006L541.491 267.414L540.651 268.142L538.607 265.734C538.495 265.608 538.411 265.482 538.327 265.37C538.243 265.482 538.159 265.608 538.047 265.734L536.017 268.142ZM541.113 274.26C539.363 274.26 538.131 273.168 538.131 271.628C538.131 270.074 539.363 268.982 541.113 268.982C542.891 268.982 544.137 270.074 544.137 271.628C544.137 273.168 542.891 274.26 541.113 274.26ZM541.113 273.238C542.205 273.238 542.961 272.58 542.961 271.628C542.961 270.662 542.205 270.004 541.113 270.004C540.049 270.004 539.307 270.662 539.307 271.628C539.307 272.58 540.049 273.238 541.113 273.238ZM546.581 266.966H557.697V267.932H546.581V266.966ZM548.317 262.122H555.989V263.102H549.521V265.034H556.101V266H548.317V262.122ZM548.219 268.87H555.933V271.712H549.465V272.916H556.311V273.854H548.261V270.83H554.715V269.808H548.219V268.87ZM567.336 261.716H568.554V273.658H567.336V261.716ZM566.636 269.976V270.984H558.866V269.976H566.636ZM559.398 265.384C559.398 263.578 560.686 262.304 562.52 262.304C564.41 262.304 565.712 263.578 565.712 265.384C565.712 267.19 564.41 268.45 562.52 268.45C560.686 268.45 559.398 267.19 559.398 265.384ZM560.532 265.384C560.532 266.588 561.344 267.428 562.52 267.428C563.752 267.428 564.592 266.602 564.592 265.398C564.592 264.18 563.752 263.326 562.52 263.326C561.344 263.326 560.532 264.166 560.532 265.384ZM582.022 261.744H583.24V264.95H585.032V265.958H583.24V268.912H582.022V261.744ZM575.638 269.57H583.24V274.064H582.022V270.55H575.638V269.57ZM574.91 268.198L574.098 267.47L576.17 265.146C576.618 264.656 576.702 264.208 576.702 263.774V263.354H574.238V262.346H580.244V263.354H577.864V263.774C577.864 264.194 577.962 264.642 578.41 265.16L580.482 267.47L579.67 268.198L577.598 265.888C577.486 265.762 577.388 265.636 577.29 265.51C577.206 265.636 577.108 265.776 576.982 265.902L574.91 268.198ZM585.6 268.072H596.716V269.052H585.6V268.072ZM587.322 270.102H588.54V272.804H595.204V273.798H587.322V270.102ZM587.84 264.32C587.84 262.682 589.198 261.646 591.13 261.646C593.104 261.646 594.476 262.682 594.476 264.32C594.476 265.832 593.104 266.98 591.13 266.98C589.198 266.98 587.84 265.832 587.84 264.32ZM589.002 264.32C589.002 265.244 589.87 265.958 591.13 265.958C592.418 265.958 593.314 265.244 593.314 264.32C593.314 263.27 592.418 262.654 591.13 262.654C589.87 262.654 589.002 263.27 589.002 264.32ZM604.08 268.296C602.274 268.296 601.014 267.078 601.014 265.356C601.014 263.62 602.274 262.402 604.08 262.402C605.886 262.402 607.16 263.62 607.16 265.356C607.16 267.078 605.886 268.296 604.08 268.296ZM602.82 269.738H604.024V272.804H610.646V273.784H602.82V269.738ZM604.08 267.288C605.186 267.288 605.956 266.49 605.956 265.356C605.956 264.194 605.186 263.396 604.08 263.396C602.974 263.396 602.204 264.194 602.204 265.356C602.204 266.49 602.974 267.288 604.08 267.288ZM609.12 270.158V261.73H610.338V265.44H612.13V266.448H610.338V270.158H609.12ZM614.966 269.388H622.792V274.064H621.574V270.382H614.966V269.388ZM621.574 261.744H622.792V268.786H621.574V261.744ZM614.112 268.296L613.272 267.568L615.288 265.202C615.75 264.642 615.834 264.152 615.834 263.676V262.122H616.996V263.676C616.996 264.152 617.08 264.628 617.542 265.202L619.558 267.568L618.718 268.296L616.702 265.902C616.59 265.776 616.506 265.636 616.422 265.51C616.338 265.65 616.24 265.776 616.128 265.902L614.112 268.296ZM633.579 261.716H634.769V273.658H633.579V267.008H631.087V266H633.579V261.716ZM625.655 270.438L624.815 269.738L627.111 267.008C627.643 266.364 627.755 265.902 627.755 265.398V264.768H625.193V263.76H627.769V262.206H628.931V263.76H631.465V264.768H628.903V265.398C628.903 265.902 629.015 266.364 629.547 267.008L631.843 269.738L631.003 270.438L628.707 267.708C628.567 267.54 628.441 267.358 628.329 267.204C628.217 267.358 628.091 267.54 627.951 267.708L625.655 270.438ZM645.893 261.73H647.055V273.63H645.893V261.73ZM643.499 261.996H644.647V273.014H643.499V268.31H641.875C641.371 269.178 640.517 269.71 639.481 269.71C637.801 269.71 636.611 268.31 636.611 266.322C636.611 264.32 637.801 262.906 639.481 262.906C640.573 262.906 641.469 263.494 641.945 264.46H643.499V261.996ZM639.481 268.632C640.517 268.632 641.245 267.68 641.245 266.322C641.245 264.95 640.517 263.984 639.481 263.984C638.459 263.984 637.745 264.95 637.745 266.322C637.745 267.68 638.459 268.632 639.481 268.632ZM642.253 267.316H643.499V265.454H642.281C642.337 265.734 642.365 266.014 642.365 266.322C642.365 266.672 642.323 267.008 642.253 267.316ZM648.504 271.208H651.598V268.24C650.856 267.624 650.422 266.7 650.422 265.594C650.422 263.55 651.934 262.108 654.062 262.108C656.218 262.108 657.73 263.55 657.73 265.594C657.73 266.686 657.296 267.624 656.554 268.24V271.208H659.662V272.202H648.504V271.208ZM651.598 265.594C651.598 267.036 652.606 268.058 654.062 268.058C655.532 268.058 656.554 267.036 656.554 265.594C656.554 264.152 655.532 263.13 654.062 263.13C652.606 263.13 651.598 264.152 651.598 265.594ZM652.802 271.208H655.35V268.884C654.958 269.01 654.524 269.08 654.062 269.08C653.614 269.08 653.194 269.01 652.802 268.898V271.208ZM661.644 271.712C662.078 271.712 662.386 272.02 662.386 272.468C662.386 272.916 662.078 273.238 661.644 273.238C661.196 273.238 660.874 272.916 660.874 272.468C660.874 272.02 661.196 271.712 661.644 271.712Z" fill="white"/>
<path d="M472.678 419.944H474.806V425.4H476.79V427.16H474.806V433.864H472.678V419.944ZM464.134 422.936V421.192H470.934V422.904V422.936C470.918 427.16 467.558 429.656 464.182 430.472L463.734 428.536C466.502 427.864 468.902 426.168 468.918 422.936H464.134ZM479.785 434.216V429.032H488.745V434.216H479.785ZM481.881 432.536H486.665V430.696H481.881V432.536ZM478.009 423.512H482.281V422.424H478.009V420.68H484.409V425.128H480.137V426.248H485.081V427.992H478.009V423.512ZM486.617 428.328V419.976H488.745V423.336H490.649V425.08H488.745V428.328H486.617ZM500.428 419.944H502.556V425.4H504.54V427.16H502.556V433.864H500.428V419.944ZM491.884 422.936V421.192H498.684V422.904V422.936C498.668 427.16 495.308 429.656 491.932 430.472L491.484 428.536C494.252 427.864 496.652 426.168 496.668 422.936H491.884ZM507.535 434.216V429.032H516.495V434.216H507.535ZM509.631 432.536H514.415V430.696H509.631V432.536ZM505.759 423.512H510.031V422.424H505.759V420.68H512.159V425.128H507.887V426.248H512.831V427.992H505.759V423.512ZM514.367 428.328V419.976H516.495V423.336H518.399V425.08H516.495V428.328H514.367ZM522.697 427.24H535.721V428.936H522.697V427.24ZM524.697 429.88H526.825V432.424H533.929V434.136H524.697V429.88ZM525.225 423.16C525.225 421.24 526.857 419.928 529.193 419.928C531.545 419.928 533.193 421.24 533.193 423.16C533.193 425.016 531.545 426.36 529.193 426.36C526.857 426.36 525.225 425.016 525.225 423.16ZM527.257 423.16C527.257 424.04 528.025 424.664 529.209 424.664C530.393 424.664 531.161 424.04 531.161 423.16C531.161 422.2 530.393 421.624 529.209 421.624C528.025 421.624 527.257 422.2 527.257 423.16ZM545.756 419.976H547.9V425.56H549.948V427.32H547.9V433.896H545.756V419.976ZM536.716 421.752H539.74V420.264H541.884V421.752H544.908V423.432H536.716V421.752ZM540.812 430.808C538.7 430.808 537.212 429.384 537.212 427.352C537.212 425.32 538.7 423.88 540.812 423.88C542.924 423.88 544.412 425.32 544.412 427.352C544.412 429.384 542.924 430.808 540.812 430.808ZM540.812 429.064C541.74 429.064 542.348 428.376 542.348 427.352C542.348 426.312 541.74 425.624 540.812 425.624C539.884 425.624 539.276 426.312 539.276 427.352C539.276 428.376 539.884 429.064 540.812 429.064ZM550.463 427.88H563.487V429.608H557.983V434.376H555.871V429.608H550.463V427.88ZM552.463 426.872L551.343 425.24L555.039 422.696C555.727 422.216 555.887 421.784 555.887 421.544V420.328H558.047V421.544C558.047 421.784 558.207 422.216 558.895 422.696L562.575 425.24L561.455 426.872L557.775 424.328C557.455 424.104 557.183 423.864 556.975 423.64C556.751 423.864 556.479 424.104 556.159 424.328L552.463 426.872Z" fill="#123A63"/>
<path d="M435.826 450.136H446.984V451.13H441.972V455.064H440.768V451.13H435.826V450.136ZM438.024 446.02C438.024 444.214 439.41 442.94 441.356 442.94C443.358 442.94 444.758 444.214 444.758 446.02C444.758 447.826 443.358 449.1 441.356 449.1C439.41 449.1 438.024 447.826 438.024 446.02ZM439.2 446.02C439.2 447.238 440.082 448.078 441.356 448.078C442.672 448.078 443.582 447.252 443.582 446.034C443.582 444.816 442.672 443.948 441.356 443.948C440.082 443.948 439.2 444.802 439.2 446.02ZM447.761 449.73H458.891V450.724H453.907V455.064H452.703V450.724H447.761V449.73ZM449.273 448.708L448.685 447.812L451.849 445.74C452.549 445.278 452.689 444.942 452.689 444.648V444.27H449.133V443.262H457.491V444.27H453.935V444.648C453.935 444.942 454.075 445.278 454.775 445.74L457.939 447.812L457.351 448.708L454.187 446.636C453.795 446.384 453.515 446.132 453.319 445.88C453.109 446.132 452.829 446.384 452.437 446.636L449.273 448.708ZM459.697 448.442H470.855V449.352H459.697V448.442ZM461.335 450.29H469.119V452.964H462.581V454.042H469.525V454.91H461.363V452.138H467.929V451.158H461.335V450.29ZM461.503 443.08H469.049V445.698H462.707V446.692H469.273V447.574H461.531V444.886H467.845V443.948H461.503V443.08ZM480.459 454.882V449.66H484.463V454.882H480.459ZM476.063 454.882V451.816H478.765V450.584H476.049V449.632H479.927V452.698H477.225V453.916H480.067V454.882H476.063ZM475.573 443.262H481.117V444.256H476.777V447.504H482.069V448.512H475.573V443.262ZM481.523 453.972H483.413V450.57H481.523V453.972ZM483.231 449.086V442.73H484.449V445.516H486.227V446.524H484.449V449.086H483.231ZM486.794 449.072H497.91V450.052H486.794V449.072ZM488.516 451.102H489.734V453.804H496.398V454.798H488.516V451.102ZM489.034 445.32C489.034 443.682 490.392 442.646 492.324 442.646C494.298 442.646 495.67 443.682 495.67 445.32C495.67 446.832 494.298 447.98 492.324 447.98C490.392 447.98 489.034 446.832 489.034 445.32ZM490.196 445.32C490.196 446.244 491.064 446.958 492.324 446.958C493.612 446.958 494.508 446.244 494.508 445.32C494.508 444.27 493.612 443.654 492.324 443.654C491.064 443.654 490.196 444.27 490.196 445.32ZM510.244 442.744H511.462V447.63H513.436V448.638H511.462V454.644H510.244V442.744ZM505.344 450.71C503.426 450.71 502.068 449.31 502.068 447.322C502.068 445.32 503.426 443.906 505.344 443.906C507.248 443.906 508.592 445.32 508.592 447.322C508.592 449.31 507.248 450.71 505.344 450.71ZM505.344 449.646C506.576 449.646 507.43 448.694 507.43 447.322C507.43 445.936 506.576 444.97 505.344 444.97C504.098 444.97 503.244 445.936 503.244 447.322C503.244 448.694 504.098 449.646 505.344 449.646ZM513.892 449.072H525.05V450.052H513.892V449.072ZM515.698 443.038H523.244V445.992H516.902V447.126H523.496V448.078H515.726V445.11H522.04V443.99H515.698V443.038ZM515.712 451.116H523.3V454.896H515.712V451.116ZM522.11 452.082H516.902V453.916H522.11V452.082ZM534.116 442.716H535.334V447.546H537.308V448.554H535.334V454.658H534.116V442.716ZM532.632 450.29V451.298H526.318V443.78H531.946V444.788H527.508V450.29H532.632ZM537.763 448.834H548.921V449.828H544.035V452.264H542.803V449.828H537.763V448.834ZM539.443 451.06H540.661V453.79H547.283V454.784H539.443V451.06ZM540.003 445.418C540.003 443.78 541.361 442.744 543.293 442.744C545.281 442.744 546.667 443.78 546.667 445.418C546.667 446.93 545.281 448.078 543.293 448.078C541.361 448.078 540.003 446.93 540.003 445.418ZM541.165 445.418C541.165 446.342 542.033 447.07 543.293 447.07C544.595 447.07 545.505 446.342 545.505 445.418C545.505 444.368 544.595 443.752 543.293 443.752C542.033 443.752 541.165 444.368 541.165 445.418ZM553.443 448.176C555.949 447.686 557.839 446.37 557.853 444.354H553.723V443.346H558.973V444.34V444.354C558.959 446.986 556.509 448.75 553.653 449.268L553.443 448.176ZM558.861 455.26C557.097 455.26 555.865 454.168 555.865 452.628C555.865 451.074 557.097 449.982 558.861 449.982C560.625 449.982 561.871 451.074 561.871 452.628C561.871 454.168 560.625 455.26 558.861 455.26ZM558.861 454.238C559.939 454.238 560.695 453.58 560.695 452.628C560.695 451.662 559.939 451.004 558.861 451.004C557.783 451.004 557.041 451.662 557.041 452.628C557.041 453.58 557.783 454.238 558.861 454.238ZM561.283 449.954V442.73H562.501V445.88H564.293V446.902H562.501V449.954H561.283ZM573.135 442.716H574.353V447.616H576.285V448.638H574.353V454.63H573.135V442.716ZM565.603 444.774V443.78H571.217V444.802C571.217 448.344 568.417 450.738 565.561 451.508L565.253 450.388C567.759 449.702 570.041 447.784 570.041 444.802V444.774H565.603ZM578.462 443.178H579.666V446.636H586.512V447.602H578.462V443.178ZM576.796 448.848H587.954V449.842H576.796V448.848ZM578.518 450.948H579.708V453.804H586.344V454.784H578.518V450.948ZM459.702 463.744H460.92V475.644H459.702V463.744ZM451.848 472.494L450.924 471.878L453.164 468.476C453.71 467.664 453.836 467.202 453.836 466.6V465.83H451.344V464.822H457.49V465.83H455.012V466.6C455.012 467.216 455.124 467.664 455.67 468.476L457.91 471.878L456.986 472.494L454.746 469.092L454.424 468.546L454.088 469.092L451.848 472.494ZM462.663 470.058H470.825V465.48H463.923V464.486H472.057V470.058H473.793V471.066H468.809V476.078H467.591V471.066H462.663V470.058ZM483.545 463.744H484.749V470.142H483.545V468.406H480.969V469.526H475.369V464.234H476.573V466.138H479.779V464.234H480.969V465.214H483.545V463.744ZM476.965 470.73H484.749V473.698H478.183V474.93H485.071V475.896H477.007V472.788H483.545V471.696H476.965V470.73ZM476.573 467.104V468.546H479.779V467.104H476.573ZM480.969 467.468H483.545V466.166H480.969V467.468ZM493.087 464.92V470.17H491.883V465.914H486.997V464.92H493.087ZM494.795 475.63V463.73H495.999V468.868H497.931V469.876H495.999V475.63H494.795ZM493.801 472.13V473.11H486.549V472.13H488.943V468.588H490.133V472.13H493.801ZM510.559 463.716H511.777V475.658H510.559V463.716ZM505.225 471.71C503.307 471.71 501.949 470.31 501.949 468.322C501.949 466.32 503.307 464.906 505.225 464.906C507.129 464.906 508.473 466.32 508.473 468.322C508.473 470.31 507.129 471.71 505.225 471.71ZM505.225 470.646C506.457 470.646 507.311 469.694 507.311 468.322C507.311 466.936 506.457 465.97 505.225 465.97C503.979 465.97 503.125 466.936 503.125 468.322C503.125 469.694 503.979 470.646 505.225 470.646ZM517.02 471.71C515.102 471.71 513.744 470.31 513.744 468.322C513.744 466.32 515.102 464.906 517.02 464.906C518.784 464.906 520.072 466.124 520.254 467.902H522.578V463.716H523.782V475.658H522.578V468.882H520.226C520.002 470.562 518.742 471.71 517.02 471.71ZM517.02 470.646C518.252 470.646 519.106 469.694 519.106 468.322C519.106 466.936 518.252 465.97 517.02 465.97C515.774 465.97 514.92 466.936 514.92 468.322C514.92 469.694 515.774 470.646 517.02 470.646ZM534.514 463.744H535.704V475.644H534.514V470.45H532.344V469.442H534.514V467.468H532.344V466.446H534.514V463.744ZM526.52 472.382L525.596 471.766L527.85 468.476C528.382 467.678 528.522 467.118 528.522 466.488V465.83H526.03V464.822H532.176V465.83H529.684V466.488C529.684 467.118 529.81 467.678 530.356 468.476L532.596 471.766L531.672 472.382L529.432 469.092C529.306 468.91 529.194 468.728 529.096 468.56C529.012 468.728 528.9 468.91 528.774 469.092L526.52 472.382ZM540.961 470.128C539.155 470.128 537.895 468.91 537.895 467.188C537.895 465.452 539.155 464.234 540.961 464.234C542.767 464.234 544.041 465.452 544.041 467.188C544.041 468.91 542.767 470.128 540.961 470.128ZM539.659 476.064L538.763 475.448L540.387 473.124C540.709 472.662 540.835 472.382 540.835 472.13V471.234H541.983V472.13C541.983 472.382 542.081 472.648 542.431 473.096L543.635 474.636L544.895 473.096C545.231 472.662 545.329 472.396 545.329 472.13V471.234H546.435V472.13C546.435 472.368 546.561 472.648 546.897 473.124L548.507 475.448L547.611 476.064L546.001 473.74L545.889 473.572L545.735 473.768L543.915 476.008H543.327L541.591 473.768L541.423 473.544L541.283 473.74L539.659 476.064ZM540.961 469.134C542.067 469.134 542.837 468.336 542.837 467.188C542.837 466.026 542.067 465.228 540.961 465.228C539.855 465.228 539.085 466.026 539.085 467.188C539.085 468.336 539.855 469.134 540.961 469.134ZM546.393 470.772V463.744H547.625V470.772H546.393ZM558.735 463.73H559.897V475.63H558.735V469.652H557.083V475H555.963V464.01H557.083V468.644H558.735V463.73ZM554.899 471.29V472.298H549.999V464.78H554.605V465.788H551.203V471.29H554.899ZM561.374 473.208H564.468V470.24C563.726 469.624 563.292 468.7 563.292 467.594C563.292 465.55 564.804 464.108 566.932 464.108C569.088 464.108 570.6 465.55 570.6 467.594C570.6 468.686 570.166 469.624 569.424 470.24V473.208H572.532V474.202H561.374V473.208ZM564.468 467.594C564.468 469.036 565.476 470.058 566.932 470.058C568.402 470.058 569.424 469.036 569.424 467.594C569.424 466.152 568.402 465.13 566.932 465.13C565.476 465.13 564.468 466.152 564.468 467.594ZM565.672 473.208H568.22V470.884C567.828 471.01 567.394 471.08 566.932 471.08C566.484 471.08 566.064 471.01 565.672 470.898V473.208ZM574.514 473.712C574.948 473.712 575.256 474.02 575.256 474.468C575.256 474.916 574.948 475.238 574.514 475.238C574.066 475.238 573.744 474.916 573.744 474.468C573.744 474.02 574.066 473.712 574.514 473.712Z" fill="white"/>
<path d="M63.9963 198.832H66.1403V200.688H69.3883V202.416H60.6363V200.688H63.9963V198.832ZM70.0443 190.96H72.1723V196.576H73.8363V198.336H72.1723V204.88H70.0443V190.96ZM62.1083 198.448L60.3163 197.584L61.7403 194.704C62.0443 194.112 62.0923 193.888 62.0923 193.424V191.808H64.1083V193.424C64.1083 193.824 64.1883 194.064 64.5083 194.704L65.1003 195.872L65.7083 194.688C65.9963 194.144 66.0763 193.856 66.0763 193.424V191.808H68.0603V193.424C68.0603 193.872 68.1243 194.096 68.4283 194.704L69.8523 197.568L68.0923 198.464L67.0683 196.4L66.0443 198.368H64.1403L63.1323 196.352L62.1083 198.448ZM83.6313 190.976H85.7593V196.368H87.8233V198.128H85.7593V204.896H83.6313V190.976ZM78.4633 200.544C76.0953 200.544 74.4153 198.816 74.4153 196.368C74.4153 193.888 76.0953 192.144 78.4633 192.144C80.8153 192.144 82.4792 193.888 82.4792 196.368C82.4792 198.816 80.8153 200.544 78.4633 200.544ZM78.4633 198.768C79.6313 198.768 80.3833 197.808 80.3833 196.368C80.3833 194.896 79.6313 193.936 78.4633 193.936C77.2793 193.936 76.5273 194.896 76.5273 196.368C76.5273 197.808 77.2793 198.768 78.4633 198.768ZM91.7463 198.832H93.8903V200.688H97.1383V202.416H88.3863V200.688H91.7463V198.832ZM97.7943 190.96H99.9223V196.576H101.586V198.336H99.9223V204.88H97.7943V190.96ZM89.8583 198.448L88.0663 197.584L89.4903 194.704C89.7943 194.112 89.8423 193.888 89.8423 193.424V191.808H91.8583V193.424C91.8583 193.824 91.9383 194.064 92.2583 194.704L92.8503 195.872L93.4583 194.688C93.7463 194.144 93.8263 193.856 93.8263 193.424V191.808H95.8103V193.424C95.8103 193.872 95.8743 194.096 96.1783 194.704L97.6023 197.568L95.8423 198.464L94.8183 196.4L93.7943 198.368H91.8903L90.8823 196.352L89.8583 198.448ZM111.381 190.976H113.509V196.368H115.573V198.128H113.509V204.896H111.381V190.976ZM106.213 200.544C103.845 200.544 102.165 198.816 102.165 196.368C102.165 193.888 103.845 192.144 106.213 192.144C108.565 192.144 110.229 193.888 110.229 196.368C110.229 198.816 108.565 200.544 106.213 200.544ZM106.213 198.768C107.381 198.768 108.133 197.808 108.133 196.368C108.133 194.896 107.381 193.936 106.213 193.936C105.029 193.936 104.277 194.896 104.277 196.368C104.277 197.808 105.029 198.768 106.213 198.768ZM126.752 192.064H131.616V193.776H128.864V197.04H131.616V198.72H126.752V192.064ZM119.776 203.248V201.504H125.2V199.36H127.312V201.504H132.8V203.248H119.776ZM120.992 198.72V192.064H125.888V193.776H123.12V197.04H125.888V198.72H120.992ZM133.651 201.536H146.675V203.264H133.651V201.536ZM135.475 191.92H144.867V196.72H137.603V198.208H145.187V199.92H135.507V195.056H142.755V193.616H135.475V191.92ZM147.526 201.536H160.55V203.264H147.526V201.536ZM149.35 191.92H158.742V196.72H151.478V198.208H159.062V199.92H149.382V195.056H156.63V193.616H149.35V191.92ZM163.081 200.096H166.809V198.928H161.385V197.216H174.409V198.928H168.969V200.096H172.761V201.76H171.369V203.472H172.761V205.152H163.081V203.472H164.457V201.76H163.081V200.096ZM163.513 196.72L162.489 195.088L166.073 192.864C166.697 192.48 166.857 191.856 166.857 191.616V190.864H168.937V191.616C168.937 191.856 169.097 192.48 169.737 192.864L173.321 195.088L172.297 196.72L168.745 194.496C168.409 194.288 168.121 194.048 167.897 193.808C167.673 194.048 167.401 194.288 167.065 194.496L163.513 196.72ZM166.537 203.472H169.273V201.76H166.537V203.472Z" fill="#123A63"/>
<path d="M46.3702 220.296C44.5642 220.296 43.3042 219.078 43.3042 217.356C43.3042 215.62 44.5642 214.402 46.3702 214.402C48.1762 214.402 49.4502 215.62 49.4502 217.356C49.4502 219.078 48.1762 220.296 46.3702 220.296ZM45.1102 221.738H46.3142V224.804H52.9362V225.784H45.1102V221.738ZM46.3702 219.288C47.4762 219.288 48.2462 218.49 48.2462 217.356C48.2462 216.194 47.4762 215.396 46.3702 215.396C45.2642 215.396 44.4942 216.194 44.4942 217.356C44.4942 218.49 45.2642 219.288 46.3702 219.288ZM51.4102 222.158V213.73H52.6282V217.44H54.4202V218.448H52.6282V222.158H51.4102ZM64.2557 225.63V219.4H62.6737V225.042H61.5257V214.052H62.6737V218.406H64.2557V213.73H65.4317V225.63H64.2557ZM55.1557 221.276C57.2137 220.604 59.0897 218.966 59.0897 215.76H55.6037V214.766H60.2657V215.76C60.2657 219.47 57.9277 221.598 55.5337 222.396L55.1557 221.276ZM75.1973 213.716H76.4153V218.616H78.3473V219.638H76.4153V225.63H75.1973V213.716ZM67.6653 215.774V214.78H73.2793V215.802C73.2793 219.344 70.4793 221.738 67.6233 222.508L67.3153 221.388C69.8213 220.702 72.1033 218.784 72.1033 215.802V215.774H67.6653ZM90.3594 213.744H91.5774V218.686H93.5514V219.694H91.5774V225.644H90.3594V213.744ZM82.7854 222.396L81.8894 221.752L84.1434 218.574C84.6894 217.804 84.8014 217.342 84.8014 216.726V215.83H82.2954V214.822H88.4554V215.83H85.9634V216.726C85.9634 217.342 86.0754 217.804 86.6214 218.574L88.8614 221.752L87.9654 222.396L85.7254 219.218C85.5854 219.036 85.4734 218.854 85.3754 218.686L85.0394 219.218L82.7854 222.396ZM94.0209 219.456H105.137V220.436H100.181V221.85H103.513V226.064H102.309V222.83H95.6589V221.85H98.9629V220.436H94.0209V219.456ZM96.2609 216.278C96.2609 214.64 97.6189 213.604 99.5509 213.604C101.539 213.604 102.925 214.64 102.925 216.278C102.925 217.79 101.539 218.938 99.5509 218.938C97.6189 218.938 96.2609 217.79 96.2609 216.278ZM97.4229 216.278C97.4229 217.202 98.2909 217.93 99.5509 217.93C100.853 217.93 101.763 217.202 101.763 216.278C101.763 215.228 100.853 214.612 99.5509 214.612C98.2909 214.612 97.4229 215.228 97.4229 216.278ZM114.314 213.744H115.532V217.748H117.324V218.756H115.532V222.326H114.314V213.744ZM108.084 221.92H109.288V224.804H115.812V225.784H108.084V221.92ZM113.054 215.242V216.25H111.724C112.2 216.726 112.55 217.37 112.55 218.098C112.55 219.722 111.346 220.856 109.624 220.856C107.958 220.856 106.782 219.722 106.768 218.098C106.768 217.37 107.118 216.726 107.58 216.25H106.264V215.242H109.064V213.772H110.254V215.242H113.054ZM107.916 218.098C107.916 219.162 108.616 219.89 109.624 219.89C110.674 219.89 111.416 219.162 111.416 218.098C111.416 217.02 110.674 216.264 109.624 216.264C108.616 216.264 107.916 217.02 107.916 218.098ZM127.013 214.738H130.933V215.732H128.203V219.274H130.933V220.268H127.013V214.738ZM121.119 224.09V223.068H126.075V220.954H127.279V223.068H132.277V224.09H121.119ZM122.421 220.268V214.738H126.355V215.732H123.611V219.274H126.355V220.268H122.421ZM133.054 223.096H144.212V224.104H133.054V223.096ZM134.804 214.682H142.448V218.35H136.022V220.142H142.728V221.122H134.832V217.384H141.258V215.662H134.804V214.682ZM144.99 223.096H156.148V224.104H144.99V223.096ZM146.74 214.682H154.384V218.35H147.958V220.142H154.664V221.122H146.768V217.384H153.194V215.662H146.74V214.682ZM158.507 221.612H161.867V220.142H156.925V219.148H168.041V220.142H163.085V221.612H166.501V222.578H165.045V224.888H166.501V225.868H158.507V224.888H159.949V222.578H158.507V221.612ZM158.465 218.476L157.877 217.552L161.027 215.48C161.741 215.018 161.895 214.612 161.895 214.318V213.478H163.099V214.318C163.099 214.612 163.253 215.018 163.967 215.48L167.131 217.552L166.515 218.476L163.379 216.404C162.987 216.152 162.707 215.886 162.497 215.634C162.301 215.886 162.021 216.152 161.643 216.404L158.465 218.476ZM161.153 224.888H163.841V222.578H161.153V224.888ZM178.185 213.73H179.347V225.63H178.185V213.73ZM175.763 213.996H176.897V225.014H175.763V218.91H174.615C174.405 220.576 173.299 221.71 171.773 221.71C170.093 221.71 168.903 220.31 168.903 218.322C168.903 216.32 170.093 214.906 171.773 214.906C173.355 214.906 174.489 216.138 174.643 217.916H175.763V213.996ZM171.773 220.632C172.809 220.632 173.537 219.68 173.537 218.322C173.537 216.95 172.809 215.984 171.773 215.984C170.751 215.984 170.037 216.95 170.037 218.322C170.037 219.68 170.751 220.632 171.773 220.632ZM182.462 214.178H183.666V217.636H190.512V218.602H182.462V214.178ZM180.796 219.848H191.954V220.842H180.796V219.848ZM182.518 221.948H183.708V224.804H190.344V225.784H182.518V221.948ZM47.3749 247.26C45.6249 247.26 44.3929 246.168 44.3929 244.628C44.3929 243.074 45.6249 241.982 47.3749 241.982C49.1529 241.982 50.3849 243.074 50.3849 244.628C50.3849 246.168 49.1529 247.26 47.3749 247.26ZM47.3749 246.238C48.4529 246.238 49.2229 245.58 49.2229 244.628C49.2229 243.662 48.4529 243.004 47.3749 243.004C46.3109 243.004 45.5689 243.662 45.5689 244.628C45.5689 245.58 46.3109 246.238 47.3749 246.238ZM42.6989 241.086L41.8589 240.358L43.8889 238.034C44.3369 237.53 44.4349 237.096 44.4349 236.704V236.34H42.0129V235.332H47.9069V236.34H45.5969V236.704C45.5969 237.096 45.6809 237.516 46.1429 238.034L48.1729 240.358L47.3329 241.086L45.3029 238.762C45.1909 238.636 45.0929 238.524 45.0089 238.398C44.9389 238.524 44.8409 238.636 44.7289 238.762L42.6989 241.086ZM49.7969 241.898V234.744H51.0149V237.838H52.8069V238.832H51.0149V241.898H49.7969ZM61.7464 234.744H62.9644V238.356H64.7424V239.392H62.9644V243.116H61.7464V234.744ZM55.4604 242.654H56.6924V245.804H63.1464V246.784H55.4604V242.654ZM60.2764 240.064V241.058H54.0744V235.514H55.2784V240.064H60.2764ZM65.31 240.862H68.978V236.48H66.22V235.486H70.196V240.862H73.752V236.48H70.98V235.486H74.984V240.862H76.426V241.856H71.456V247.064H70.252V241.856H65.31V240.862ZM77.8615 238.986H82.3275V236.732H77.8195V235.752H83.5315V239.966H79.0655V242.416H84.1475V243.41H77.8615V238.986ZM83.9655 239.952V238.972H86.1775V234.716H87.3815V246.658H86.1775V239.952H83.9655ZM98.0851 234.73H99.2891V246.63H98.0851V234.73ZM95.8171 235.78V236.774C95.8031 240.4 92.9891 242.612 90.1611 243.396L89.8531 242.262C92.3591 241.576 94.6411 239.826 94.6411 236.774H90.2031V235.78H95.8171ZM104.343 244.208H107.437V241.24C106.695 240.624 106.261 239.7 106.261 238.594C106.261 236.55 107.773 235.108 109.901 235.108C112.057 235.108 113.569 236.55 113.569 238.594C113.569 239.686 113.135 240.624 112.393 241.24V244.208H115.501V245.202H104.343V244.208ZM107.437 238.594C107.437 240.036 108.445 241.058 109.901 241.058C111.371 241.058 112.393 240.036 112.393 238.594C112.393 237.152 111.371 236.13 109.901 236.13C108.445 236.13 107.437 237.152 107.437 238.594ZM108.641 244.208H111.189V241.884C110.797 242.01 110.363 242.08 109.901 242.08C109.453 242.08 109.033 242.01 108.641 241.898V244.208ZM122.971 237.642H125.211V234.744H126.429V242.052H125.211V238.65H122.971V237.642ZM117.665 241.142L116.825 240.414L118.855 238.006C119.289 237.488 119.401 237.026 119.401 236.62V236.326H116.979V235.318H122.859V236.326H120.563V236.62C120.563 237.054 120.633 237.488 121.095 238.006L123.139 240.414L122.299 241.142L120.255 238.734C120.143 238.608 120.059 238.482 119.975 238.37C119.891 238.482 119.807 238.608 119.695 238.734L117.665 241.142ZM122.761 247.26C121.011 247.26 119.779 246.168 119.779 244.628C119.779 243.074 121.011 241.982 122.761 241.982C124.539 241.982 125.785 243.074 125.785 244.628C125.785 246.168 124.539 247.26 122.761 247.26ZM122.761 246.238C123.853 246.238 124.609 245.58 124.609 244.628C124.609 243.662 123.853 243.004 122.761 243.004C121.697 243.004 120.955 243.662 120.955 244.628C120.955 245.58 121.697 246.238 122.761 246.238ZM128.228 239.966H139.344V240.932H128.228V239.966ZM129.964 235.122H137.636V236.102H131.168V238.034H137.748V239H129.964V235.122ZM129.866 241.87H137.58V244.712H131.112V245.916H137.958V246.854H129.908V243.83H136.362V242.808H129.866V241.87ZM149.012 234.716H150.23V246.658H149.012V234.716ZM143.678 242.71C141.76 242.71 140.402 241.31 140.402 239.322C140.402 237.32 141.76 235.906 143.678 235.906C145.582 235.906 146.926 237.32 146.926 239.322C146.926 241.31 145.582 242.71 143.678 242.71ZM143.678 241.646C144.91 241.646 145.764 240.694 145.764 239.322C145.764 237.936 144.91 236.97 143.678 236.97C142.432 236.97 141.578 237.936 141.578 239.322C141.578 240.694 142.432 241.646 143.678 241.646ZM155.816 240.638V235.29H161.5V240.638H155.816ZM156.81 246.882V242.192H158V245.86H160.758V246.882H156.81ZM163.054 247.036C161.85 247.036 161.01 246.196 161.01 244.978C161.01 244.516 161.178 244.11 161.43 243.788H160.646V242.836H162.564V241.702H163.544V242.836H165.434V243.788H164.664C164.916 244.11 165.084 244.516 165.084 244.978C165.084 246.196 164.244 247.036 163.054 247.036ZM163.054 246.07C163.642 246.07 164.006 245.65 164.006 244.978C164.006 244.278 163.642 243.83 163.054 243.83C162.452 243.83 162.088 244.278 162.088 244.978C162.088 245.65 162.452 246.07 163.054 246.07ZM157.006 239.644H160.31V236.27H157.006V239.644ZM163.684 241.17V234.744H164.902V237.488H166.68V238.482H164.902V241.17H163.684ZM175.535 234.744H176.753V239.63H178.727V240.638H176.753V246.644H175.535V234.744ZM170.635 242.71C168.717 242.71 167.359 241.31 167.359 239.322C167.359 237.32 168.717 235.906 170.635 235.906C172.539 235.906 173.883 237.32 173.883 239.322C173.883 241.31 172.539 242.71 170.635 242.71ZM170.635 241.646C171.867 241.646 172.721 240.694 172.721 239.322C172.721 237.936 171.867 236.97 170.635 236.97C169.389 236.97 168.535 237.936 168.535 239.322C168.535 240.694 169.389 241.646 170.635 241.646ZM185.203 238.874H188.129V234.716H189.319V246.658H188.129V239.868H185.203V238.874ZM179.897 243.564L179.001 242.892L181.297 239.826C181.857 239.084 181.969 238.51 181.969 237.866V235.556H183.131V237.866C183.131 238.496 183.257 239.084 183.817 239.826L186.113 242.892L185.217 243.564L182.921 240.498C182.781 240.302 182.655 240.12 182.557 239.938C182.459 240.12 182.333 240.302 182.193 240.498L179.897 243.564ZM79.8158 265.068H84.7858V262.548H86.0038V265.068H90.9738V266.076H79.8158V265.068ZM81.3698 263.038L80.6698 262.17L83.8338 259.608C84.5758 259.02 84.7158 258.586 84.7158 258.18V257.62H81.1878V256.612H89.5458V257.62H86.0178V258.18C86.0178 258.586 86.1578 259.02 86.8998 259.608L90.0638 262.17L89.3638 263.038L86.1998 260.476C85.8358 260.182 85.5558 259.888 85.3738 259.608C85.1778 259.888 84.8978 260.182 84.5338 260.476L81.3698 263.038ZM100.627 255.744H101.845V262.618H100.627V255.744ZM94.2854 263.304H101.845V267.896H94.2854V263.304ZM100.669 264.27H95.4614V266.916H100.669V264.27ZM93.1654 262.072L92.2974 261.4L94.2434 258.922C94.6774 258.376 94.7894 257.914 94.7894 257.508V256.122H95.9514V257.508C95.9514 257.928 96.0494 258.362 96.4834 258.908L98.4294 261.4L97.5614 262.072L95.6154 259.608L95.3634 259.244L95.1114 259.594L93.1654 262.072ZM112.969 255.73H114.117V267.63H112.969V261.918H111.471V267.042H110.323V256.024H111.471V260.924H112.969V255.73ZM103.617 257.452H105.955V255.94H107.131V257.452H109.469V258.432H103.617V257.452ZM106.543 264.424C104.947 264.424 103.827 263.304 103.827 261.694C103.827 260.084 104.947 258.964 106.543 258.964C108.139 258.964 109.259 260.084 109.259 261.694C109.259 263.304 108.139 264.424 106.543 264.424ZM106.543 263.402C107.495 263.402 108.153 262.702 108.153 261.694C108.153 260.672 107.495 259.986 106.543 259.986C105.591 259.986 104.933 260.672 104.933 261.694C104.933 262.702 105.591 263.402 106.543 263.402ZM123.896 255.744H125.128V258.81H127.046V259.818H125.128V262.464H127.046V263.472H125.128V267.644H123.896V255.744ZM119.01 263.71C117.092 263.71 115.734 262.31 115.734 260.322C115.734 258.32 117.092 256.906 119.01 256.906C120.914 256.906 122.258 258.32 122.258 260.322C122.258 262.31 120.914 263.71 119.01 263.71ZM119.01 262.646C120.242 262.646 121.096 261.694 121.096 260.322C121.096 258.936 120.242 257.97 119.01 257.97C117.764 257.97 116.91 258.936 116.91 260.322C116.91 261.694 117.764 262.646 119.01 262.646ZM136.84 255.73H137.988V267.63H136.84V261.918H135.342V267.042H134.194V256.024H135.342V260.924H136.84V255.73ZM127.488 257.452H129.826V255.94H131.002V257.452H133.34V258.432H127.488V257.452ZM130.414 264.424C128.818 264.424 127.698 263.304 127.698 261.694C127.698 260.084 128.818 258.964 130.414 258.964C132.01 258.964 133.13 260.084 133.13 261.694C133.13 263.304 132.01 264.424 130.414 264.424ZM130.414 263.402C131.366 263.402 132.024 262.702 132.024 261.694C132.024 260.672 131.366 259.986 130.414 259.986C129.462 259.986 128.804 260.672 128.804 261.694C128.804 262.702 129.462 263.402 130.414 263.402ZM139.494 265.208H142.588V262.24C141.846 261.624 141.412 260.7 141.412 259.594C141.412 257.55 142.924 256.108 145.052 256.108C147.208 256.108 148.72 257.55 148.72 259.594C148.72 260.686 148.286 261.624 147.544 262.24V265.208H150.652V266.202H139.494V265.208ZM142.588 259.594C142.588 261.036 143.596 262.058 145.052 262.058C146.522 262.058 147.544 261.036 147.544 259.594C147.544 258.152 146.522 257.13 145.052 257.13C143.596 257.13 142.588 258.152 142.588 259.594ZM143.792 265.208H146.34V262.884C145.948 263.01 145.514 263.08 145.052 263.08C144.604 263.08 144.184 263.01 143.792 262.898V265.208ZM154.047 256.738L153.865 264.48H152.773L152.563 256.738H154.047ZM153.333 265.712C153.767 265.712 154.075 266.02 154.075 266.468C154.075 266.916 153.767 267.238 153.333 267.238C152.885 267.238 152.563 266.916 152.563 266.468C152.563 266.02 152.885 265.712 153.333 265.712Z" fill="white"/>
<path d="M108.478 397.944H110.606V411.912H108.478V406.328H105.454C104.75 407.096 103.726 407.544 102.526 407.544C100.158 407.544 98.4778 405.816 98.4778 403.368C98.4778 400.888 100.158 399.144 102.526 399.144C103.774 399.144 104.814 399.624 105.534 400.456H108.478V397.944ZM102.526 405.768C103.694 405.768 104.446 404.808 104.446 403.368C104.446 401.896 103.694 400.936 102.526 400.936C101.342 400.936 100.59 401.896 100.59 403.368C100.59 404.808 101.342 405.768 102.526 405.768ZM106.382 404.616H108.478V402.168H106.398C106.494 402.536 106.542 402.952 106.542 403.368C106.542 403.816 106.494 404.232 106.382 404.616ZM118.881 403.288C116.449 403.288 114.753 402.12 114.753 400.44C114.753 398.744 116.449 397.544 118.881 397.544C121.345 397.544 123.057 398.744 123.057 400.44C123.057 402.12 121.345 403.288 118.881 403.288ZM114.225 412.28V408.52H121.393V407.88H114.209V406.296H117.809V405.4H112.385V403.736H125.409V405.4H119.953V406.296H123.489V410.008H116.337V410.68H123.873V412.28H114.225ZM118.897 401.576C120.161 401.576 120.993 401.128 120.993 400.44C120.993 399.736 120.161 399.256 118.897 399.256C117.633 399.256 116.817 399.736 116.817 400.44C116.817 401.128 117.633 401.576 118.897 401.576ZM136.228 397.944H138.356V411.912H136.228V406.328H133.204C132.5 407.096 131.476 407.544 130.276 407.544C127.908 407.544 126.228 405.816 126.228 403.368C126.228 400.888 127.908 399.144 130.276 399.144C131.524 399.144 132.564 399.624 133.284 400.456H136.228V397.944ZM130.276 405.768C131.444 405.768 132.196 404.808 132.196 403.368C132.196 401.896 131.444 400.936 130.276 400.936C129.092 400.936 128.34 401.896 128.34 403.368C128.34 404.808 129.092 405.768 130.276 405.768ZM134.132 404.616H136.228V402.168H134.148C134.244 402.536 134.292 402.952 134.292 403.368C134.292 403.816 134.244 404.232 134.132 404.616ZM146.631 403.288C144.199 403.288 142.503 402.12 142.503 400.44C142.503 398.744 144.199 397.544 146.631 397.544C149.095 397.544 150.807 398.744 150.807 400.44C150.807 402.12 149.095 403.288 146.631 403.288ZM141.975 412.28V408.52H149.143V407.88H141.959V406.296H145.559V405.4H140.135V403.736H153.159V405.4H147.703V406.296H151.239V410.008H144.087V410.68H151.623V412.28H141.975ZM146.647 401.576C147.911 401.576 148.743 401.128 148.743 400.44C148.743 399.736 147.911 399.256 146.647 399.256C145.383 399.256 144.567 399.736 144.567 400.44C144.567 401.128 145.383 401.576 146.647 401.576ZM157.745 403.336H162.497V401.304H164.609V403.336H170.689V405H157.745V403.336ZM159.377 405.816H168.849V409.736H161.521V410.632H169.217V412.28H159.393V408.296H166.721V407.48H159.377V405.816ZM168.625 398.328V402.648H166.481V400.056H159.185V398.328H168.625ZM181.252 397.976H183.38V403.352H184.9V405.096H183.38V411.896H181.252V397.976ZM173.252 408.552L171.396 407.88L172.788 404.12C173.108 403.256 173.188 402.728 173.188 402.008V400.904H171.796V399.176H175.876V400.904H175.204V402.008C175.204 402.76 175.252 403.272 175.604 404.04L176.148 405.224L176.692 404.04C177.028 403.288 177.076 402.76 177.076 402.008V400.904H176.34V399.176H180.34V400.904H179.06V402.008C179.06 402.728 179.14 403.256 179.46 404.104L180.884 407.864L179.028 408.568L178.004 405.88L176.788 408.504H175.444L174.244 405.848L173.252 408.552ZM195.319 397.96H197.447V411.88H195.319V397.96ZM193.191 399.192V400.936C193.127 405.608 189.703 407.656 186.439 408.44L185.991 406.488C188.791 405.816 191.111 404.456 191.175 400.936H186.391V399.192H193.191Z" fill="#123A63"/>
<path d="M84.3884 425.602H88.8964V423.544H90.0864V425.602H95.4904V426.582H84.3884V425.602ZM85.9844 427.66H93.7964V430.67H87.2444V431.958H94.1184V432.924H86.0264V429.802H92.5924V428.626H85.9844V427.66ZM93.6564 421.136V424.776H92.4244V422.13H85.8724V421.136H93.6564ZM104.892 420.744H106.11V425.588H107.776V426.61H106.11V432.644H104.892V420.744ZM97.332 429.452L96.296 429.06L97.528 425.84C97.822 425.07 97.892 424.412 97.892 423.74V422.83H96.506V421.822H99.88V422.83H99.04V423.74C99.04 424.426 99.096 425.056 99.432 425.812L100.188 427.506L100.958 425.812C101.28 425.084 101.322 424.426 101.322 423.74V422.83H100.44V421.822H103.8V422.83H102.442V423.74C102.442 424.412 102.526 425.056 102.834 425.84L104.08 429.06L103.044 429.452L101.882 426.442L100.58 429.354H99.782L98.494 426.414L97.332 429.452ZM117.15 420.73H118.354V432.63H117.15V420.73ZM114.882 421.78V422.774C114.868 426.4 112.054 428.612 109.226 429.396L108.918 428.262C111.424 427.576 113.706 425.826 113.706 422.774H109.268V421.78H114.882ZM123.408 426.54H128.364V424.566H129.568V426.54H134.566V427.52H123.408V426.54ZM125.046 428.906H132.9V433.064H131.696V429.886H125.046V428.906ZM124.948 425.532L124.36 424.608L127.524 422.634C128.224 422.186 128.378 421.808 128.378 421.5V420.604H129.582V421.5C129.582 421.808 129.736 422.186 130.45 422.634L133.6 424.608L133.012 425.532L129.862 423.558C129.47 423.32 129.19 423.068 128.98 422.816C128.784 423.068 128.504 423.32 128.112 423.558L124.948 425.532ZM139.004 426.12C141.51 425.7 143.274 424.468 143.274 422.242V422.228H139.27V421.22H144.408V422.242C144.408 425.098 142.042 426.75 139.186 427.24L139.004 426.12ZM140.88 432.84V431.86H142.476V429.13H140.88V428.15H148.692V429.13H147.096V431.86H148.692V432.84H140.88ZM147.446 427.212V420.73H148.664V427.212H147.446ZM143.666 431.86H145.906V429.13H143.666V431.86ZM150.505 427.072H161.621V428.052H150.505V427.072ZM152.227 429.102H153.445V431.804H160.109V432.798H152.227V429.102ZM152.745 423.32C152.745 421.682 154.103 420.646 156.035 420.646C158.009 420.646 159.381 421.682 159.381 423.32C159.381 424.832 158.009 425.98 156.035 425.98C154.103 425.98 152.745 424.832 152.745 423.32ZM153.907 423.32C153.907 424.244 154.775 424.958 156.035 424.958C157.323 424.958 158.219 424.244 158.219 423.32C158.219 422.27 157.323 421.654 156.035 421.654C154.775 421.654 153.907 422.27 153.907 423.32ZM165.681 426.4H170.637V425.042H167.333V421.29H175.145V422.256H168.523V424.062H175.215V425.042H171.841V426.4H176.797V427.38H165.681V426.4ZM171.239 433.4C169.391 433.4 168.103 432.266 168.103 430.726C168.103 429.214 169.391 428.08 171.239 428.08C173.087 428.08 174.389 429.214 174.389 430.726C174.389 432.266 173.087 433.4 171.239 433.4ZM171.239 432.364C172.401 432.364 173.213 431.65 173.213 430.726C173.213 429.816 172.401 429.116 171.239 429.116C170.077 429.116 169.279 429.816 169.279 430.726C169.279 431.65 170.077 432.364 171.239 432.364ZM177.603 425.154H185.653V422.13H179.101V421.136H186.885V425.154H188.761V426.134H183.763V427.632H187.025V430.684H180.473V431.958H187.347V432.924H179.255V429.816H185.821V428.612H179.213V427.632H182.559V426.134H177.603V425.154ZM198.862 420.73H200.024V432.63H198.862V420.73ZM196.44 420.996H197.574V432.014H196.44V425.91H195.292C195.082 427.576 193.976 428.71 192.45 428.71C190.77 428.71 189.58 427.31 189.58 425.322C189.58 423.32 190.77 421.906 192.45 421.906C194.032 421.906 195.166 423.138 195.32 424.916H196.44V420.996ZM192.45 427.632C193.486 427.632 194.214 426.68 194.214 425.322C194.214 423.95 193.486 422.984 192.45 422.984C191.428 422.984 190.714 423.95 190.714 425.322C190.714 426.68 191.428 427.632 192.45 427.632ZM203.14 421.178H204.344V424.636H211.19V425.602H203.14V421.178ZM201.474 426.848H212.632V427.842H201.474V426.848ZM203.196 428.948H204.386V431.804H211.022V432.784H203.196V428.948ZM88.6362 441.716H89.8402V453.658H88.6362V441.716ZM80.5582 442.654H81.7622V445.496H85.0802V442.654H86.2702V450.354H80.5582V442.654ZM81.7622 446.462V449.36H85.0802V446.462H81.7622ZM94.1317 450.802H100.614V449.626H94.1037V448.674H101.804V451.684H95.3077V452.958H102.084V453.924H94.1317V450.802ZM92.4937 447.414V442.248H98.0657V447.414H92.4937ZM93.6697 446.42H96.8897V443.228H93.6697V446.42ZM100.586 448.044V441.744H101.804V448.044H100.586ZM109.567 454.26C107.817 454.26 106.585 453.168 106.585 451.628C106.585 450.074 107.817 448.982 109.567 448.982C111.345 448.982 112.577 450.074 112.577 451.628C112.577 453.168 111.345 454.26 109.567 454.26ZM109.567 453.238C110.645 453.238 111.415 452.58 111.415 451.628C111.415 450.662 110.645 450.004 109.567 450.004C108.503 450.004 107.761 450.662 107.761 451.628C107.761 452.58 108.503 453.238 109.567 453.238ZM104.891 448.086L104.051 447.358L106.081 445.034C106.529 444.53 106.627 444.096 106.627 443.704V443.34H104.205V442.332H110.099V443.34H107.789V443.704C107.789 444.096 107.873 444.516 108.335 445.034L110.365 447.358L109.525 448.086L107.495 445.762C107.383 445.636 107.285 445.524 107.201 445.398C107.131 445.524 107.033 445.636 106.921 445.762L104.891 448.086ZM111.989 448.898V441.744H113.207V444.838H114.999V445.832H113.207V448.898H111.989ZM115.567 451.04H120.537V448.506H121.741V451.04H126.725V452.048H115.567V451.04ZM117.121 448.996L116.421 448.128L119.627 445.552C120.397 445.034 120.509 444.6 120.509 444.152V442.64H121.811V444.152C121.811 444.558 121.951 444.964 122.693 445.566L125.885 448.128L125.185 448.996L121.993 446.434C121.643 446.14 121.377 445.874 121.181 445.608C120.985 445.888 120.705 446.168 120.299 446.448L117.121 448.996ZM135.776 441.716H136.994V446.616H138.926V447.638H136.994V453.63H135.776V441.716ZM128.244 443.774V442.78H133.858V443.802C133.858 447.344 131.058 449.738 128.202 450.508L127.894 449.388C130.4 448.702 132.682 446.784 132.682 443.802V443.774H128.244ZM144.344 449.696H147.62V448.254H142.664V447.274H153.78V448.254H148.824V449.696H152.1V453.896H144.344V449.696ZM150.896 450.676H145.548V452.916H150.896V450.676ZM144.218 446.602L143.602 445.678L146.766 443.592C147.466 443.13 147.634 442.752 147.634 442.458V441.604H148.838V442.458C148.838 442.752 149.006 443.13 149.706 443.592L152.87 445.678L152.254 446.602L149.118 444.516C148.726 444.264 148.446 444.012 148.236 443.76C148.04 443.998 147.76 444.264 147.382 444.516L144.218 446.602ZM163.518 453.63V448.786H160.186V447.792H163.518V445.454H160.522C159.878 448.114 157.68 449.738 155.3 450.396L154.992 449.262C157.498 448.59 159.542 446.896 159.542 443.816V443.774H155.342V442.78H160.718V443.816C160.718 444.04 160.704 444.264 160.69 444.474H163.518V441.73H164.722V453.63H163.518ZM175.482 441.744H176.672V453.644H175.482V448.45H173.312V447.442H175.482V445.468H173.312V444.446H175.482V441.744ZM167.488 450.382L166.564 449.766L168.818 446.476C169.35 445.678 169.49 445.118 169.49 444.488V443.83H166.998V442.822H173.144V443.83H170.652V444.488C170.652 445.118 170.778 445.678 171.324 446.476L173.564 449.766L172.64 450.382L170.4 447.092C170.274 446.91 170.162 446.728 170.064 446.56C169.98 446.728 169.868 446.91 169.742 447.092L167.488 450.382ZM181.929 448.128C180.123 448.128 178.863 446.91 178.863 445.188C178.863 443.452 180.123 442.234 181.929 442.234C183.735 442.234 185.009 443.452 185.009 445.188C185.009 446.91 183.735 448.128 181.929 448.128ZM180.627 454.064L179.731 453.448L181.355 451.124C181.677 450.662 181.803 450.382 181.803 450.13V449.234H182.951V450.13C182.951 450.382 183.049 450.648 183.399 451.096L184.603 452.636L185.863 451.096C186.199 450.662 186.297 450.396 186.297 450.13V449.234H187.403V450.13C187.403 450.368 187.529 450.648 187.865 451.124L189.475 453.448L188.579 454.064L186.969 451.74L186.857 451.572L186.703 451.768L184.883 454.008H184.295L182.559 451.768L182.391 451.544L182.251 451.74L180.627 454.064ZM181.929 447.134C183.035 447.134 183.805 446.336 183.805 445.188C183.805 444.026 183.035 443.228 181.929 443.228C180.823 443.228 180.053 444.026 180.053 445.188C180.053 446.336 180.823 447.134 181.929 447.134ZM187.361 448.772V441.744H188.593V448.772H187.361ZM193.795 449.71C191.877 449.71 190.519 448.31 190.519 446.322C190.519 444.32 191.877 442.906 193.795 442.906C195.559 442.906 196.847 444.124 197.029 445.902H199.353V441.716H200.557V453.658H199.353V446.882H197.001C196.777 448.562 195.517 449.71 193.795 449.71ZM193.795 448.646C195.027 448.646 195.881 447.694 195.881 446.322C195.881 444.936 195.027 443.97 193.795 443.97C192.549 443.97 191.695 444.936 191.695 446.322C191.695 447.694 192.549 448.646 193.795 448.646ZM202.342 451.208H205.436V448.24C204.694 447.624 204.26 446.7 204.26 445.594C204.26 443.55 205.772 442.108 207.9 442.108C210.056 442.108 211.568 443.55 211.568 445.594C211.568 446.686 211.134 447.624 210.392 448.24V451.208H213.5V452.202H202.342V451.208ZM205.436 445.594C205.436 447.036 206.444 448.058 207.9 448.058C209.37 448.058 210.392 447.036 210.392 445.594C210.392 444.152 209.37 443.13 207.9 443.13C206.444 443.13 205.436 444.152 205.436 445.594ZM206.64 451.208H209.188V448.884C208.796 449.01 208.362 449.08 207.9 449.08C207.452 449.08 207.032 449.01 206.64 448.898V451.208ZM215.482 451.712C215.916 451.712 216.224 452.02 216.224 452.468C216.224 452.916 215.916 453.238 215.482 453.238C215.034 453.238 214.712 452.916 214.712 452.468C214.712 452.02 215.034 451.712 215.482 451.712Z" fill="white"/>
<path d="M485.88 46.456H495.24V51.464H491.624V52.392H497.096V54.056H484.072V52.392H489.496V51.464H485.88V46.456ZM493.144 48.12H487.96V49.8H493.144V48.12ZM490.6 60.92C488.264 60.92 486.632 59.592 486.632 57.768C486.632 55.944 488.264 54.648 490.6 54.648C492.936 54.648 494.584 55.944 494.584 57.768C494.584 59.592 492.936 60.92 490.6 60.92ZM490.6 59.192C491.736 59.192 492.472 58.616 492.472 57.768C492.472 56.936 491.736 56.36 490.6 56.36C489.48 56.36 488.744 56.936 488.744 57.768C488.744 58.616 489.48 59.192 490.6 59.192ZM507.771 45.976H509.915V53.224H507.771V45.976ZM500.731 53.848H509.915V57.784H502.843V58.632H510.187V60.28H500.747V56.264H507.803V55.48H500.731V53.848ZM499.659 53.16L498.219 51.816L500.699 49.16C501.147 48.68 501.259 48.376 501.259 48.088V46.456H503.371V48.088C503.371 48.408 503.467 48.664 503.931 49.16L506.411 51.816L504.971 53.16L502.491 50.504L502.315 50.312L502.139 50.504L499.659 53.16ZM513.63 46.456H522.99V51.464H519.374V52.392H524.846V54.056H511.822V52.392H517.246V51.464H513.63V46.456ZM520.894 48.12H515.71V49.8H520.894V48.12ZM518.35 60.92C516.014 60.92 514.382 59.592 514.382 57.768C514.382 55.944 516.014 54.648 518.35 54.648C520.686 54.648 522.334 55.944 522.334 57.768C522.334 59.592 520.686 60.92 518.35 60.92ZM518.35 59.192C519.486 59.192 520.222 58.616 520.222 57.768C520.222 56.936 519.486 56.36 518.35 56.36C517.23 56.36 516.494 56.936 516.494 57.768C516.494 58.616 517.23 59.192 518.35 59.192ZM535.521 45.976H537.665V53.224H535.521V45.976ZM528.481 53.848H537.665V57.784H530.593V58.632H537.937V60.28H528.497V56.264H535.553V55.48H528.481V53.848ZM527.409 53.16L525.969 51.816L528.449 49.16C528.897 48.68 529.009 48.376 529.009 48.088V46.456H531.121V48.088C531.121 48.408 531.217 48.664 531.681 49.16L534.161 51.816L532.721 53.16L530.241 50.504L530.065 50.312L529.889 50.504L527.409 53.16ZM543.276 53.016H552.076V48.408H544.652V46.664H554.236V53.016H556.3V54.744H550.796V60.392H548.636V54.744H543.276V53.016ZM557.151 53.208H570.175V54.888H557.151V53.208ZM559.103 46.232H568.351V50.104H561.215V50.872H568.623V52.488H559.135V48.616H566.255V47.848H559.103V46.232ZM559.071 55.72H568.399V60.216H559.071V55.72ZM566.303 57.384H561.151V58.536H566.303V57.384ZM580.93 45.976H583.09V56.104H580.93V51.192H578.834C578.45 52.872 577.01 53.976 575.074 53.976C572.802 53.976 571.218 52.456 571.218 50.296C571.218 48.12 572.802 46.6 575.074 46.6C577.042 46.6 578.514 47.752 578.85 49.496H580.93V45.976ZM573.858 55.4H576.002V58.424H583.202V60.12H573.858V55.4ZM575.074 52.248C576.146 52.248 576.85 51.48 576.85 50.296C576.85 49.112 576.146 48.344 575.074 48.344C574.002 48.344 573.282 49.112 573.282 50.296C573.282 51.48 574.002 52.248 575.074 52.248ZM587.589 55.208H596.965V60.376H594.821V56.904H587.589V55.208ZM594.821 45.96H596.965V54.6H594.821V51.144H591.525V49.448H594.821V45.96ZM592.821 52.232V53.976H585.541V46.632H592.325V48.36H587.669V52.232H592.821ZM505.585 75.058H513.747V70.48H506.845V69.486H514.979V75.058H516.715V76.066H511.731V81.078H510.513V76.066H505.585V75.058ZM517.521 75.072H528.679V76.052H517.521V75.072ZM519.327 69.038H526.873V71.992H520.531V73.126H527.125V74.078H519.355V71.11H525.669V69.99H519.327V69.038ZM519.341 77.116H526.929V80.896H519.341V77.116ZM525.739 78.082H520.531V79.916H525.739V78.082ZM538.388 68.744H539.606V77.396H538.388V72.748H536.05C535.812 74.19 534.622 75.156 533.012 75.156C531.206 75.156 529.946 73.938 529.946 72.216C529.946 70.48 531.206 69.262 533.012 69.262C534.664 69.262 535.868 70.27 536.064 71.768H538.388V68.744ZM531.976 76.766H533.194V79.804H539.676V80.784H531.976V76.766ZM533.012 74.162C534.118 74.162 534.902 73.364 534.902 72.216C534.902 71.054 534.118 70.256 533.012 70.256C531.906 70.256 531.136 71.054 531.136 72.216C531.136 73.364 531.906 74.162 533.012 74.162ZM543.702 76.556H551.542V81.064H550.324V77.536H543.702V76.556ZM550.324 68.73H551.542V75.94H550.324V72.65H547.076V71.67H550.324V68.73ZM548.336 74.05V75.058H542.106V69.262H547.65V70.27H543.31V74.05H548.336ZM562.652 68.73H563.814V80.63H562.652V68.73ZM560.23 68.996H561.364V80.014H560.23V73.91H559.082C558.872 75.576 557.766 76.71 556.24 76.71C554.56 76.71 553.37 75.31 553.37 73.322C553.37 71.32 554.56 69.906 556.24 69.906C557.822 69.906 558.956 71.138 559.11 72.916H560.23V68.996ZM556.24 75.632C557.276 75.632 558.004 74.68 558.004 73.322C558.004 71.95 557.276 70.984 556.24 70.984C555.218 70.984 554.504 71.95 554.504 73.322C554.504 74.68 555.218 75.632 556.24 75.632ZM571.283 72.874H574.209V68.716H575.399V80.658H574.209V73.868H571.283V72.874ZM565.977 77.564L565.081 76.892L567.377 73.826C567.937 73.084 568.049 72.51 568.049 71.866V69.556H569.211V71.866C569.211 72.496 569.337 73.084 569.897 73.826L572.193 76.892L571.297 77.564L569.001 74.498C568.861 74.302 568.735 74.12 568.637 73.938C568.539 74.12 568.413 74.302 568.273 74.498L565.977 77.564ZM468.637 94.896H479.753V95.876H474.797V97.01H478.003V99.824H471.535V100.986H478.381V101.924H470.331V98.956H476.799V97.934H470.289V97.01H473.579V95.876H468.637V94.896ZM470.331 90.15H478.059V94.028H470.331V90.15ZM476.869 91.102H471.521V93.076H476.869V91.102ZM483.785 95.596H494.943V96.576H490.071V99.278H488.839V96.576H483.785V95.596ZM485.465 98.116H486.683V100.804H493.333V101.798H485.465V98.116ZM485.339 94.77L484.751 93.846L487.915 91.872C488.629 91.424 488.769 91.018 488.769 90.724V89.87H489.973V90.724C489.973 91.018 490.113 91.41 490.841 91.872L493.991 93.846L493.403 94.77L490.253 92.796C489.861 92.558 489.581 92.306 489.371 92.054C489.175 92.306 488.895 92.558 488.503 92.796L485.339 94.77ZM497.653 98.62H498.857V100.804H505.493V101.784H497.653V98.62ZM503.309 96.716V97.696H495.749V96.716H498.899V95.932C497.625 95.708 496.771 94.77 496.757 93.51C496.757 92.922 497.037 92.404 497.443 91.998H496.099V90.99H498.927V89.8H500.103V90.99H502.931V91.998H501.615C502.021 92.404 502.301 92.922 502.301 93.51C502.301 94.77 501.419 95.708 500.103 95.918V96.716H503.309ZM499.487 95.008C500.467 95.008 501.167 94.392 501.167 93.51C501.167 92.642 500.467 92.054 499.487 92.054C498.563 92.054 497.905 92.642 497.905 93.51C497.905 94.392 498.563 95.008 499.487 95.008ZM504.093 98.844V89.73H505.297V94H507.089V95.008H505.297V98.844H504.093ZM516.504 89.716H517.722V101.658H516.504V89.716ZM515.804 97.976V98.984H508.034V97.976H515.804ZM508.566 93.384C508.566 91.578 509.854 90.304 511.688 90.304C513.578 90.304 514.88 91.578 514.88 93.384C514.88 95.19 513.578 96.45 511.688 96.45C509.854 96.45 508.566 95.19 508.566 93.384ZM509.7 93.384C509.7 94.588 510.512 95.428 511.688 95.428C512.92 95.428 513.76 94.602 513.76 93.398C513.76 92.18 512.92 91.326 511.688 91.326C510.512 91.326 509.7 92.166 509.7 93.384ZM531.778 89.716H532.982V101.658H531.778V96.562H528.74C528.152 97.276 527.27 97.71 526.22 97.71C524.302 97.71 522.944 96.31 522.944 94.322C522.944 92.32 524.302 90.906 526.22 90.906C527.34 90.906 528.264 91.396 528.824 92.194H531.778V89.716ZM526.22 96.646C527.452 96.646 528.306 95.694 528.306 94.322C528.306 92.936 527.452 91.97 526.22 91.97C524.974 91.97 524.12 92.936 524.12 94.322C524.12 95.694 524.974 96.646 526.22 96.646ZM529.272 95.568H531.778V93.188H529.314C529.412 93.538 529.468 93.916 529.468 94.322C529.468 94.77 529.398 95.19 529.272 95.568ZM541.46 92.642H543.7V89.744H544.918V97.052H543.7V93.65H541.46V92.642ZM536.154 96.142L535.314 95.414L537.344 93.006C537.778 92.488 537.89 92.026 537.89 91.62V91.326H535.468V90.318H541.348V91.326H539.052V91.62C539.052 92.054 539.122 92.488 539.584 93.006L541.628 95.414L540.788 96.142L538.744 93.734C538.632 93.608 538.548 93.482 538.464 93.37C538.38 93.482 538.296 93.608 538.184 93.734L536.154 96.142ZM541.25 102.26C539.5 102.26 538.268 101.168 538.268 99.628C538.268 98.074 539.5 96.982 541.25 96.982C543.028 96.982 544.274 98.074 544.274 99.628C544.274 101.168 543.028 102.26 541.25 102.26ZM541.25 101.238C542.342 101.238 543.098 100.58 543.098 99.628C543.098 98.662 542.342 98.004 541.25 98.004C540.186 98.004 539.444 98.662 539.444 99.628C539.444 100.58 540.186 101.238 541.25 101.238ZM555.566 89.716H556.784V101.658H555.566V89.716ZM550.232 97.71C548.314 97.71 546.956 96.31 546.956 94.322C546.956 92.32 548.314 90.906 550.232 90.906C552.136 90.906 553.48 92.32 553.48 94.322C553.48 96.31 552.136 97.71 550.232 97.71ZM550.232 96.646C551.464 96.646 552.318 95.694 552.318 94.322C552.318 92.936 551.464 91.97 550.232 91.97C548.986 91.97 548.132 92.936 548.132 94.322C548.132 95.694 548.986 96.646 550.232 96.646ZM570.728 89.716H571.932V101.658H570.728V89.716ZM562.846 98.564L561.95 97.892L564.232 94.826C564.792 94.084 564.904 93.51 564.904 92.866V90.556H566.066V92.866C566.066 93.51 566.178 94.084 566.738 94.826L569.02 97.892L568.124 98.564L565.842 95.498C565.702 95.316 565.59 95.12 565.492 94.952C565.38 95.12 565.268 95.316 565.128 95.498L562.846 98.564ZM582.159 89.744H583.377V92.95H585.169V93.958H583.377V96.912H582.159V89.744ZM575.775 97.57H583.377V102.064H582.159V98.55H575.775V97.57ZM575.047 96.198L574.235 95.47L576.307 93.146C576.755 92.656 576.839 92.208 576.839 91.774V91.354H574.375V90.346H580.381V91.354H578.001V91.774C578.001 92.194 578.099 92.642 578.547 93.16L580.619 95.47L579.807 96.198L577.735 93.888C577.623 93.762 577.525 93.636 577.427 93.51C577.343 93.636 577.245 93.776 577.119 93.902L575.047 96.198ZM595.005 89.73H596.167V101.63H595.005V95.82H593.591V100.986H592.457V89.996H593.591V94.84H595.005V89.73ZM586.437 90.85H591.533V91.844H587.613V94.994H591.533V95.974H589.573V97.906H592.037V98.886H585.877V97.906H588.411V95.974H586.437V90.85ZM597.672 99.208H600.766V96.24C600.024 95.624 599.59 94.7 599.59 93.594C599.59 91.55 601.102 90.108 603.23 90.108C605.386 90.108 606.898 91.55 606.898 93.594C606.898 94.686 606.464 95.624 605.722 96.24V99.208H608.83V100.202H597.672V99.208ZM600.766 93.594C600.766 95.036 601.774 96.058 603.23 96.058C604.7 96.058 605.722 95.036 605.722 93.594C605.722 92.152 604.7 91.13 603.23 91.13C601.774 91.13 600.766 92.152 600.766 93.594ZM601.97 99.208H604.518V96.884C604.126 97.01 603.692 97.08 603.23 97.08C602.782 97.08 602.362 97.01 601.97 96.898V99.208ZM612.226 90.738L612.044 98.48H610.952L610.742 90.738H612.226ZM611.512 99.712C611.946 99.712 612.254 100.02 612.254 100.468C612.254 100.916 611.946 101.238 611.512 101.238C611.064 101.238 610.742 100.916 610.742 100.468C610.742 100.02 611.064 99.712 611.512 99.712Z" fill="#123A63"/>
<path d="M489.928 307.415C490.753 307.332 491.354 306.596 491.271 305.772C491.188 304.948 490.452 304.347 489.628 304.43L489.928 307.415ZM230 273.82L239.695 288.173L247.278 272.601L230 273.82ZM233.918 277.396C234.667 277.75 235.561 277.428 235.914 276.679C236.267 275.93 235.946 275.036 235.197 274.683L233.918 277.396ZM244.446 278.774C243.681 278.456 242.803 278.819 242.485 279.584C242.168 280.349 242.531 281.227 243.296 281.544L244.446 278.774ZM252.837 285.271C253.615 285.557 254.477 285.158 254.762 284.381C255.048 283.603 254.649 282.741 253.872 282.456L252.837 285.271ZM263.427 285.765C262.64 285.508 261.793 285.938 261.536 286.725C261.279 287.513 261.709 288.36 262.497 288.617L263.427 285.765ZM272.266 291.624C273.062 291.855 273.894 291.398 274.125 290.602C274.356 289.806 273.898 288.974 273.102 288.743L272.266 291.624ZM282.874 291.421C282.072 291.213 281.254 291.696 281.046 292.498C280.839 293.3 281.321 294.118 282.123 294.325L282.874 291.421ZM292.051 296.747C292.858 296.932 293.663 296.428 293.849 295.621C294.034 294.814 293.53 294.009 292.723 293.823L292.051 296.747ZM302.634 295.973C301.823 295.807 301.03 296.33 300.865 297.142C300.699 297.954 301.222 298.746 302.034 298.912L302.634 295.973ZM312.062 300.842C312.877 300.989 313.658 300.448 313.805 299.633C313.953 298.817 313.411 298.037 312.596 297.89L312.062 300.842ZM322.599 299.591C321.781 299.46 321.012 300.018 320.881 300.836C320.751 301.654 321.308 302.423 322.126 302.553L322.599 299.591ZM332.218 304.063C333.039 304.178 333.797 303.606 333.912 302.785C334.026 301.965 333.454 301.207 332.634 301.092L332.218 304.063ZM342.698 302.406C341.876 302.306 341.128 302.891 341.028 303.714C340.928 304.536 341.514 305.284 342.336 305.384L342.698 302.406ZM352.475 306.528C353.299 306.614 354.037 306.015 354.123 305.191C354.209 304.367 353.61 303.63 352.786 303.544L352.475 306.528ZM362.894 304.516C362.069 304.443 361.341 305.053 361.268 305.878C361.196 306.704 361.806 307.431 362.631 307.504L362.894 304.516ZM372.799 308.322C373.625 308.382 374.344 307.761 374.404 306.935C374.464 306.109 373.843 305.39 373.017 305.33L372.799 308.322ZM383.15 305.993C382.323 305.945 381.614 306.577 381.566 307.404C381.518 308.231 382.149 308.94 382.976 308.988L383.15 305.993ZM393.158 309.509C393.986 309.545 394.686 308.904 394.723 308.077C394.759 307.249 394.118 306.548 393.29 306.512L393.158 309.509ZM403.431 306.89C402.603 306.865 401.911 307.516 401.886 308.344C401.861 309.172 402.512 309.863 403.34 309.889L403.431 306.89ZM413.537 310.131C414.365 310.146 415.048 309.486 415.062 308.657C415.077 307.829 414.417 307.146 413.588 307.132L413.537 310.131ZM423.757 307.239C422.929 307.236 422.255 307.905 422.251 308.733C422.248 309.561 422.917 310.236 423.745 310.239L423.757 307.239ZM433.945 310.211C434.773 310.204 435.438 309.526 435.431 308.698C435.423 307.869 434.745 307.204 433.917 307.212L433.945 310.211ZM444.053 307.05C443.225 307.068 442.569 307.755 442.587 308.583C442.606 309.411 443.293 310.068 444.121 310.049L444.053 307.05ZM454.333 309.746C455.161 309.715 455.807 309.019 455.777 308.191C455.746 307.364 455.05 306.717 454.223 306.748L454.333 309.746ZM464.366 306.3C463.538 306.343 462.902 307.048 462.945 307.875C462.988 308.703 463.693 309.339 464.521 309.296L464.366 306.3ZM474.711 308.685C475.538 308.629 476.162 307.913 476.105 307.086C476.049 306.26 475.333 305.636 474.506 305.692L474.711 308.685ZM484.59 304.905C483.765 304.978 483.155 305.706 483.228 306.531C483.301 307.356 484.029 307.966 484.855 307.893L484.59 304.905ZM243.296 281.544C246.417 282.841 249.6 284.082 252.837 285.271L253.872 282.456C250.672 281.28 247.528 280.053 244.446 278.774L243.296 281.544ZM262.497 288.617C265.711 289.665 268.969 290.667 272.266 291.624L273.102 288.743C269.835 287.795 266.608 286.803 263.427 285.765L262.497 288.617ZM282.123 294.325C285.403 295.173 288.714 295.979 292.051 296.747L292.723 293.823C289.411 293.062 286.127 292.261 282.874 291.421L282.123 294.325ZM302.034 298.912C305.359 299.591 308.703 300.234 312.062 300.842L312.596 297.89C309.258 297.286 305.936 296.647 302.634 295.973L302.034 298.912ZM322.126 302.553C325.482 303.089 328.848 303.592 332.218 304.063L332.634 301.092C329.282 300.623 325.935 300.123 322.599 299.591L322.126 302.553ZM342.336 305.384C345.718 305.795 349.1 306.175 352.475 306.528L352.786 303.544C349.427 303.193 346.063 302.814 342.698 302.406L342.336 305.384ZM362.631 307.504C366.033 307.804 369.424 308.076 372.799 308.322L373.017 305.33C369.657 305.085 366.281 304.814 362.894 304.516L362.631 307.504ZM382.976 308.988C386.395 309.187 389.791 309.36 393.158 309.509L393.29 306.512C389.936 306.364 386.555 306.192 383.15 305.993L382.976 308.988ZM403.34 309.889C406.778 309.993 410.179 310.074 413.537 310.131L413.588 307.132C410.244 307.074 406.856 306.994 403.431 306.89L403.34 309.889ZM423.745 310.239C427.204 310.252 430.606 310.243 433.945 310.211L433.917 307.212C430.591 307.243 427.202 307.252 423.757 307.239L423.745 310.239ZM444.121 310.049C447.614 309.969 451.021 309.867 454.333 309.746L454.223 306.748C450.925 306.869 447.531 306.97 444.053 307.05L444.121 310.049ZM464.521 309.296C468.06 309.113 471.462 308.908 474.711 308.685L474.506 305.692C471.274 305.914 467.889 306.118 464.366 306.3L464.521 309.296ZM484.855 307.893C486.609 307.738 488.301 307.578 489.928 307.415L489.628 304.43C488.013 304.592 486.333 304.751 484.59 304.905L484.855 307.893Z" fill="#066F85"/>
<path d="M257.952 470.795C257.171 470.519 256.314 470.928 256.037 471.709C255.761 472.49 256.17 473.347 256.951 473.623L257.952 470.795ZM417.447 486.88L401.194 480.894L404.137 497.963L417.447 486.88ZM261.769 475.251C262.557 475.507 263.403 475.075 263.658 474.287C263.913 473.498 263.481 472.653 262.693 472.397L261.769 475.251ZM272.344 475.308C271.546 475.083 270.718 475.547 270.493 476.344C270.268 477.142 270.733 477.97 271.53 478.195L272.344 475.308ZM281.384 480.807C282.188 481.008 283.002 480.519 283.202 479.715C283.403 478.911 282.914 478.097 282.11 477.896L281.384 480.807ZM291.933 480.204C291.124 480.026 290.323 480.536 290.144 481.345C289.966 482.154 290.477 482.955 291.285 483.134L291.933 480.204ZM301.251 485.202C302.065 485.36 302.852 484.829 303.01 484.016C303.168 483.203 302.637 482.416 301.824 482.258L301.251 485.202ZM311.764 484.061C310.947 483.923 310.173 484.474 310.036 485.291C309.898 486.108 310.449 486.882 311.266 487.019L311.764 484.061ZM321.322 488.584C322.142 488.701 322.902 488.131 323.019 487.311C323.136 486.491 322.566 485.731 321.746 485.614L321.322 488.584ZM331.764 486.912C330.942 486.816 330.197 487.406 330.101 488.229C330.006 489.051 330.595 489.796 331.418 489.892L331.764 486.912ZM341.548 490.933C342.373 491.006 343.102 490.397 343.175 489.572C343.249 488.747 342.639 488.018 341.814 487.945L341.548 490.933ZM351.882 488.7C351.055 488.649 350.344 489.279 350.294 490.106C350.244 490.933 350.874 491.644 351.7 491.694L351.882 488.7ZM361.871 492.159C362.699 492.184 363.39 491.534 363.416 490.706C363.441 489.877 362.79 489.186 361.962 489.16L361.871 492.159ZM372.052 489.308C371.224 489.31 370.553 489.982 370.555 490.811C370.556 491.639 371.229 492.31 372.057 492.308L372.052 489.308ZM382.247 492.118C383.075 492.088 383.722 491.393 383.692 490.565C383.662 489.737 382.967 489.09 382.139 489.12L382.247 492.118ZM392.205 488.57C391.379 488.631 390.759 489.35 390.819 490.176C390.88 491.002 391.599 491.623 392.426 491.562L392.205 488.57ZM402.581 490.608C403.404 490.514 403.994 489.77 403.9 488.947C403.805 488.124 403.061 487.533 402.238 487.628L402.581 490.608ZM412.216 486.26C411.398 486.391 410.841 487.16 410.972 487.978C411.103 488.796 411.872 489.353 412.69 489.222L412.216 486.26ZM256.951 473.623C258.437 474.149 260.045 474.693 261.769 475.251L262.693 472.397C260.993 471.847 259.41 471.311 257.952 470.795L256.951 473.623ZM271.53 478.195C274.602 479.061 277.895 479.937 281.384 480.807L282.11 477.896C278.65 477.034 275.386 476.165 272.344 475.308L271.53 478.195ZM291.285 483.134C294.49 483.842 297.817 484.535 301.251 485.202L301.824 482.258C298.415 481.595 295.113 480.907 291.933 480.204L291.285 483.134ZM311.266 487.019C314.545 487.572 317.901 488.096 321.322 488.584L321.746 485.614C318.35 485.13 315.019 484.609 311.764 484.061L311.266 487.019ZM331.418 489.892C334.749 490.279 338.128 490.628 341.548 490.933L341.814 487.945C338.422 487.643 335.069 487.296 331.764 486.912L331.418 489.892ZM351.7 491.694C355.064 491.898 358.457 492.055 361.871 492.159L361.962 489.16C358.58 489.057 355.217 488.902 351.882 488.7L351.7 491.694ZM372.057 492.308C375.444 492.303 378.843 492.241 382.247 492.118L382.139 489.12C378.771 489.242 375.406 489.303 372.052 489.308L372.057 492.308ZM392.426 491.562C395.816 491.312 399.203 490.996 402.581 490.608L402.238 487.628C398.903 488.011 395.557 488.323 392.205 488.57L392.426 491.562Z" fill="white"/>
<path d="M614.882 119.787C614.212 119.3 613.274 119.448 612.787 120.118C612.3 120.788 612.448 121.726 613.118 122.213L614.882 119.787ZM623.226 191L637.173 180.73L621.305 173.786L623.226 191ZM616.536 125.167C617.121 125.754 618.071 125.754 618.657 125.169C619.243 124.583 619.244 123.634 618.658 123.048L616.536 125.167ZM624.753 130.801C624.316 130.097 623.391 129.882 622.687 130.319C621.984 130.757 621.769 131.682 622.206 132.386L624.753 130.801ZM626.271 140.666C626.562 141.441 627.427 141.834 628.202 141.544C628.978 141.253 629.371 140.388 629.08 139.613L626.271 140.666ZM631.649 149.072C631.506 148.256 630.728 147.71 629.912 147.854C629.096 147.997 628.551 148.774 628.694 149.59L631.649 149.072ZM629.5 158.817C629.503 159.645 630.177 160.315 631.005 160.312C631.833 160.309 632.503 159.635 632.5 158.806L629.5 158.817ZM631.78 168.538C631.902 167.719 631.337 166.956 630.517 166.834C629.698 166.712 628.935 167.277 628.813 168.096L631.78 168.538ZM626.825 177.216C626.598 178.013 627.06 178.843 627.856 179.07C628.653 179.297 629.483 178.836 629.71 178.039L626.825 177.216ZM626.531 187.188C626.844 186.421 626.477 185.545 625.71 185.232C624.943 184.918 624.067 185.286 623.754 186.053L626.531 187.188ZM613.118 122.213C614.193 122.995 615.35 123.98 616.536 125.167L618.658 123.048C617.372 121.759 616.096 120.669 614.882 119.787L613.118 122.213ZM622.206 132.386C623.715 134.811 625.112 137.575 626.271 140.666L629.08 139.613C627.85 136.33 626.364 133.389 624.753 130.801L622.206 132.386ZM628.694 149.59C629.199 152.469 629.488 155.546 629.5 158.817L632.5 158.806C632.487 155.365 632.183 152.118 631.649 149.072L628.694 149.59ZM628.813 168.096C628.379 171.012 627.728 174.053 626.825 177.216L629.71 178.039C630.647 174.754 631.327 171.586 631.78 168.538L628.813 168.096Z" fill="white"/>
<path d="M93.478 289.005C94.033 288.39 93.9844 287.441 93.3694 286.886C92.7543 286.331 91.8058 286.38 91.2508 286.995L93.478 289.005ZM95.8644 381L93.8668 363.795L79.9657 374.127L95.8644 381ZM87.9914 291.051C87.5066 291.722 87.6582 292.66 88.33 293.145C89.0017 293.63 89.9393 293.478 90.4241 292.806L87.9914 291.051ZM85.3726 301.263C85.7389 300.52 85.4334 299.621 84.6903 299.254C83.9472 298.888 83.048 299.194 82.6817 299.937L85.3726 301.263ZM78.8239 309.514C78.5721 310.303 79.0077 311.147 79.7969 311.399C80.5861 311.651 81.4301 311.215 81.6819 310.426L78.8239 309.514ZM79.378 320.026C79.5117 319.208 78.9573 318.437 78.1397 318.303C77.3221 318.169 76.551 318.724 76.4173 319.541L79.378 320.026ZM75.5073 329.824C75.4954 330.653 76.1572 331.334 76.9855 331.346C77.8138 331.358 78.495 330.696 78.507 329.868L75.5073 329.824ZM79.0874 339.731C78.9789 338.91 78.2252 338.332 77.4039 338.44C76.5826 338.549 76.0047 339.303 76.1132 340.124L79.0874 339.731ZM78.1768 350.217C78.3983 351.015 79.2249 351.482 80.0232 351.261C80.8215 351.04 81.2891 350.213 81.0676 349.415L78.1768 350.217ZM84.3332 358.765C84.0111 358.001 83.1313 357.644 82.368 357.966C81.6048 358.288 81.2471 359.168 81.5692 359.931L84.3332 358.765ZM86.1133 369.146C86.5211 369.867 87.4363 370.121 88.1574 369.713C88.8785 369.305 89.1325 368.39 88.7247 367.669L86.1133 369.146ZM94.0719 376.075C93.5932 375.398 92.657 375.238 91.9809 375.717C91.3048 376.196 91.1448 377.132 91.6235 377.808L94.0719 376.075ZM91.2508 286.995C90.1788 288.183 89.0821 289.539 87.9914 291.051L90.4241 292.806C91.4555 291.377 92.4841 290.106 93.478 289.005L91.2508 286.995ZM82.6817 299.937C81.2466 302.848 79.9284 306.053 78.8239 309.514L81.6819 310.426C82.7395 307.112 84.001 304.046 85.3726 301.263L82.6817 299.937ZM76.4173 319.541C75.8815 322.818 75.5589 326.253 75.5073 329.824L78.507 329.868C78.5564 326.449 78.8652 323.162 79.378 320.026L76.4173 319.541ZM76.1132 340.124C76.5471 343.409 77.2227 346.778 78.1768 350.217L81.0676 349.415C80.151 346.111 79.5031 342.879 79.0874 339.731L76.1132 340.124ZM81.5692 359.931C82.8498 362.966 84.3571 366.04 86.1133 369.146L88.7247 367.669C87.0241 364.662 85.568 361.691 84.3332 358.765L81.5692 359.931Z" fill="#066F85"/>
</svg>
