<svg width="20" height="21" viewBox="0 0 20 21" fill="none" xmlns="http://www.w3.org/2000/svg">
<path d="M10.7352 0.772373C11.2272 -0.0779433 12.5261 0.319239 12.5708 1.33367L12.8102 6.77307C12.83 7.22401 13.1355 7.62313 13.5602 7.753L18.4126 9.23678C19.3147 9.51261 19.4384 10.7885 18.5981 11.1496L13.7011 13.2547C13.3412 13.4094 13.1185 13.7774 13.1365 14.1876L13.3897 19.9395C13.4335 20.934 12.21 21.3261 11.6244 20.5052L8.63567 16.3154C8.35425 15.9209 7.8542 15.7679 7.43488 15.9482L2.98166 17.8624C2.10916 18.2375 1.2282 17.2018 1.71059 16.3682L4.50049 11.5468C4.69945 11.203 4.67172 10.7584 4.43021 10.4198L1.14359 5.81233C0.579662 5.02177 1.25684 3.99083 2.15887 4.26666L7.01129 5.75044C7.43598 5.88031 7.87813 5.7098 8.09686 5.33181L10.7352 0.772373Z" fill="#CDF8FF"/>
</svg>
