<svg width="118" height="87" viewBox="0 0 118 87" fill="none" xmlns="http://www.w3.org/2000/svg">
<path d="M75.1354 36.6453C63.4522 31.664 47.1576 35.1406 40.4708 37.5015C10.8616 46.5886 1.54168 60.5075 5.7428 67.9215C28.2775 90.5573 80.2767 70.7236 89.5334 63.0789C98.7901 55.4343 89.7395 42.8719 75.1354 36.6453Z" fill="white" fill-opacity="0.5"/>
<path d="M98.0237 14.0491C89.7692 8.28196 79.0337 10.4845 74.6978 12.3067C55.3967 19.0314 50.1457 32.0178 53.533 39.6184C70.4254 63.5472 104.033 47.9285 109.709 41.1044C115.385 34.2804 108.342 21.258 98.0237 14.0491Z" fill="white" fill-opacity="0.5"/>
<path d="M78.6911 31.7927C67.0078 26.8114 50.7133 30.288 44.0264 32.649C14.4173 41.7361 5.09734 55.6549 9.29847 63.069C31.8331 85.7048 83.8323 65.8711 93.089 58.2264C102.346 50.5817 93.2952 38.0194 78.6911 31.7927Z" fill="white"/>
<path d="M101.579 9.19654C93.3248 3.42942 82.5894 5.632 78.2535 7.45417C58.9524 14.1789 53.7013 27.1652 57.0887 34.7658C73.9811 58.6947 107.589 43.0759 113.265 36.2519C118.941 29.4278 111.897 16.4054 101.579 9.19654Z" fill="white"/>
</svg>
