<svg width="657" height="960" viewBox="0 0 657 960" fill="none" xmlns="http://www.w3.org/2000/svg">
<path d="M646.995 10V10C646.994 62.7014 604.271 105.424 551.57 105.424H133.123C65.1241 105.424 9.99998 160.548 9.99999 228.547V228.547C9.99999 296.546 65.1242 351.67 133.123 351.67H253.907H523.876C591.872 351.67 646.994 406.792 646.994 474.788V474.788C646.994 542.784 591.872 597.906 523.876 597.906H132.967C65.0541 597.906 9.99999 652.96 10 720.873V720.873C10 788.786 65.054 843.84 132.967 843.84H452.688L540.833 843.84C599.465 843.84 646.996 891.368 647 950V950" stroke="url(#paint0_linear_2063_91)" stroke-width="20" stroke-linecap="round"/>
<defs>
<linearGradient id="paint0_linear_2063_91" x1="647.162" y1="1058.01" x2="302.414" y2="106.173" gradientUnits="userSpaceOnUse">
<stop stop-color="#00A5E2"/>
<stop offset="1" stop-color="#3DC0C3"/>
</linearGradient>
</defs>
</svg>
