<svg width="216" height="257" viewBox="0 0 216 257" fill="none" xmlns="http://www.w3.org/2000/svg">
<path d="M16.8679 121.524C13.7519 55.0814 62.57 17.9671 104.117 17.9671C151.637 17.9671 190.069 56.3792 190.069 103.875C190.069 107.509 189.809 110.883 189.29 114.516C187.731 131.127 182.019 148.257 171.372 163.31C152.157 191.081 148.521 224.821 158.648 252.333C159.168 253.89 158.129 255.707 156.311 255.966C129.306 259.081 96.0676 242.73 78.1503 230.012C53.2219 211.585 16.6083 168.501 16.8679 121.524Z" fill="url(#paint0_linear_2047_3)"/>
<path d="M212.14 41.3258C206.428 49.112 195.002 50.4097 186.433 44.1807C180.72 40.0281 173.45 39.2495 167.737 41.5853C167.477 35.8754 169.295 29.6464 173.19 24.1961C176.825 19.0053 182.019 15.3717 187.472 13.8145C193.964 11.7381 201.234 12.5167 206.947 16.4099C215.257 22.3793 217.853 33.5396 212.14 41.3258Z" fill="url(#paint1_linear_2047_3)"/>
<path d="M2.06675 26.0129C6.22148 34.5777 17.647 37.9517 27.2548 33.28C33.7466 30.1655 41.0174 30.4251 46.2108 33.7991C47.5092 28.0892 46.7302 21.6007 43.8738 15.6312C41.0174 9.66178 36.603 5.24958 31.4096 2.65418C25.1775 -0.460315 17.9067 -0.979397 11.6746 1.87555C2.06675 6.80683 -2.08799 17.448 2.06675 26.0129Z" fill="url(#paint2_linear_2047_3)"/>
<path d="M86.2002 92.4553C85.6808 95.0507 85.1615 97.3866 84.3825 99.4629C79.9681 111.142 70.3602 118.409 60.7524 116.852C49.3269 115.035 42.0561 100.761 44.6528 85.4477C47.2495 70.1348 58.4154 59.2341 70.1006 61.0509C70.1006 61.0509 70.1006 61.0509 70.3602 61.0509C81.5261 62.8677 88.7969 77.1424 86.2002 92.4553Z" fill="white"/>
<path d="M71.3989 63.3866C70.3602 63.1271 69.3215 63.1271 68.2828 63.1271C65.9458 63.1271 63.8684 63.9057 61.791 64.9439C65.4264 65.4629 68.0231 68.5774 68.0231 72.211C68.0231 76.3637 64.6474 79.7377 60.4927 79.7377C56.8573 79.7377 53.7412 76.8827 53.2219 73.5087C51.4042 76.6232 49.8462 80.2568 49.3268 84.4094C46.9898 97.646 53.4816 109.844 63.3491 111.402C70.6199 112.699 78.1503 107.768 82.3051 99.7223C83.8631 96.8674 84.9018 93.7529 85.4211 90.1193C87.7581 77.4018 81.2664 65.2034 71.3989 63.3866Z" fill="url(#paint3_linear_2047_3)"/>
<path d="M66.2055 112.18C72.659 112.18 77.8907 108.694 77.8907 104.394C77.8907 100.094 72.659 96.6079 66.2055 96.6079C59.7519 96.6079 54.5203 100.094 54.5203 104.394C54.5203 108.694 59.7519 112.18 66.2055 112.18Z" fill="#8BD2D0"/>
<path d="M123.852 92.4553C124.372 95.0507 124.891 97.3866 125.67 99.4629C130.085 111.142 139.692 118.409 149.3 116.852C160.726 115.035 167.997 100.761 165.4 85.4477C162.803 70.1348 151.637 59.2341 139.952 61.0509C139.952 61.0509 139.952 61.0509 139.692 61.0509C128.527 62.8677 121.256 77.1424 123.852 92.4553Z" fill="white"/>
<path d="M160.726 84.6691C158.648 72.7302 150.599 63.9059 141.77 63.3868C140.731 63.3868 139.692 63.3868 138.654 63.6463C135.797 64.1654 133.46 65.4631 131.383 67.2799C132.162 67.0204 133.201 66.7608 133.98 66.7608C138.134 66.7608 141.51 70.1348 141.51 74.2875C141.51 78.4402 138.134 81.8142 133.98 81.8142C129.825 81.8142 126.449 78.4402 126.449 74.2875C124.372 78.9592 123.593 84.6691 124.631 90.8981C125.151 94.2721 126.189 97.6462 127.747 100.501C131.902 108.547 139.173 113.478 146.703 112.18C156.571 110.104 162.803 97.9057 160.726 84.6691Z" fill="url(#paint4_linear_2047_3)"/>
<path d="M143.587 112.18C150.041 112.18 155.272 108.694 155.272 104.394C155.272 100.094 150.041 96.6079 143.587 96.6079C137.134 96.6079 131.902 100.094 131.902 104.394C131.902 108.694 137.134 112.18 143.587 112.18Z" fill="#8BD2D0"/>
<defs>
<linearGradient id="paint0_linear_2047_3" x1="42.4863" y1="45.1984" x2="193.679" y2="225.473" gradientUnits="userSpaceOnUse">
<stop stop-color="#8BD2D0"/>
<stop offset="0.1902" stop-color="#62C0D5"/>
<stop offset="0.3967" stop-color="#2FB4DA"/>
<stop offset="0.6023" stop-color="#00ABDE"/>
<stop offset="0.8047" stop-color="#00A7E0"/>
<stop offset="1" stop-color="#00A5E2"/>
</linearGradient>
<linearGradient id="paint1_linear_2047_3" x1="181.459" y1="16.2662" x2="199.889" y2="49.758" gradientUnits="userSpaceOnUse">
<stop stop-color="#8BD2D0"/>
<stop offset="0.1902" stop-color="#62C0D5"/>
<stop offset="0.3967" stop-color="#2FB4DA"/>
<stop offset="0.6023" stop-color="#00ABDE"/>
<stop offset="0.8047" stop-color="#00A7E0"/>
<stop offset="1" stop-color="#00A5E2"/>
</linearGradient>
<linearGradient id="paint2_linear_2047_3" x1="22.4534" y1="-0.000327896" x2="24.4032" y2="35.1973" gradientUnits="userSpaceOnUse">
<stop stop-color="#8BD2D0"/>
<stop offset="0.1902" stop-color="#62C0D5"/>
<stop offset="0.3967" stop-color="#2FB4DA"/>
<stop offset="0.6023" stop-color="#00ABDE"/>
<stop offset="0.8047" stop-color="#00A7E0"/>
<stop offset="1" stop-color="#00A5E2"/>
</linearGradient>
<linearGradient id="paint3_linear_2047_3" x1="67.3807" y1="99.822" x2="67.3807" y2="73.0709" gradientUnits="userSpaceOnUse">
<stop stop-color="#3DC0C3"/>
<stop offset="1" stop-color="#0077B3"/>
</linearGradient>
<linearGradient id="paint4_linear_2047_3" x1="142.648" y1="111.928" x2="142.648" y2="63.3164" gradientUnits="userSpaceOnUse">
<stop stop-color="#3DC0C3"/>
<stop offset="1" stop-color="#0077B3"/>
</linearGradient>
</defs>
</svg>
