<svg width="32" height="45" viewBox="0 0 32 45" fill="none" xmlns="http://www.w3.org/2000/svg">
<path d="M31.0946 28.2009C31.0946 37.1803 24.1339 44.4595 15.5473 44.4595C6.96077 44.4595 0 37.1803 0 28.2009C0 14.3071 15.5473 3 15.5473 3C15.5473 3 31.0946 14.3071 31.0946 28.2009Z" fill="#DDDDDD"/>
<path d="M31.0946 25.2009C31.0946 34.1803 24.1339 41.4595 15.5473 41.4595C6.96077 41.4595 0 34.1803 0 25.2009C0 11.3071 15.5473 0 15.5473 0C15.5473 0 31.0946 11.3071 31.0946 25.2009Z" fill="#2E9092"/>
<path d="M31 24.7059C31 33.1526 24.5081 40 16.5 40C8.49187 40 2 33.1526 2 24.7059C2 11.6364 16.5 1 16.5 1C16.5 1 31 11.6364 31 24.7059Z" fill="#3DC0C3"/>
<path d="M26.1104 22.4595C27.4352 27.1261 26.1104 33.9595 18.6104 35.9595" stroke="#A3F5F3" stroke-width="3" stroke-linecap="round"/>
</svg>
