<svg width="258" height="184" viewBox="0 0 258 184" fill="none" xmlns="http://www.w3.org/2000/svg">
<path d="M67.6428 166.507C25.5978 151.589 -7.80241 110.761 20.4896 77.7853C73.5816 12.6126 138.289 4.7256 182.383 12.4096C196.509 14.8713 208.519 18.9312 217.355 23.2176C251.148 33.8155 280.619 90.7402 233.465 134.316C149.375 208.905 109.688 181.425 67.6428 166.507Z" fill="white" fill-opacity="0.5"/>
<path d="M57.6428 156.504C15.5978 141.586 -17.8024 100.759 10.4896 67.7824C63.5816 2.60966 128.289 -5.27733 172.383 2.40665C186.509 4.86837 198.519 8.92825 207.355 13.2146C241.148 23.8126 270.619 80.7373 223.465 124.313C139.375 198.902 99.6879 171.422 57.6428 156.504Z" fill="#00A7E0"/>
</svg>
