<svg width="400" height="340" viewBox="0 0 400 340" fill="none" xmlns="http://www.w3.org/2000/svg">
<path d="M304 20H365.297V84.8H304V20Z" fill="white"/>
<path d="M304 20H365.297V84.8H329C315.193 84.8 304 73.6071 304 59.8V20Z" fill="white"/>
<path d="M318 33H353V70H318V33Z" fill="#0077B3"/>
<path d="M318 33H353V70H343C329.193 70 318 58.8071 318 45V33Z" fill="white"/>
<path d="M0 70H375C388.807 70 400 81.1929 400 95V315C400 328.807 388.807 340 375 340H25C11.1929 340 0 328.807 0 315V70Z" fill="#0077B3"/>
<path d="M0 25C0 11.1929 11.1929 0 25 0H293C306.807 0 318 11.1929 318 25V100H0V25Z" fill="#0077B3"/>
</svg>
