<svg width="119" height="61" viewBox="0 0 119 61" fill="none" xmlns="http://www.w3.org/2000/svg">
<g clip-path="url(#clip0_2038_906)">
<path d="M104.787 6.16162H112.952V17.0985H119V24.0303H112.952V33.7349H104.787V6.16162Z" fill="#123A63"/>
<path d="M101.46 36.3535C101.46 36.3535 88.3049 43.9015 88.3049 50.3712C88.3049 56.6868 93.7484 61.154 101.46 61.154C109.323 61.154 114.766 56.6868 114.766 50.3712C114.766 43.9015 101.46 36.3535 101.46 36.3535ZM101.46 54.3762C98.2846 54.3762 96.3189 52.8358 96.3189 50.2171C96.3189 47.5985 101.46 44.3636 101.46 44.3636C101.46 44.3636 106.752 47.7525 106.752 50.2171C106.601 52.8358 104.635 54.3762 101.46 54.3762Z" fill="url(#paint0_linear_2038_906)"/>
<path d="M35.9873 1.84851H52.7713V8.47225H44.1525V14.4798H52.7713V21.1036H35.9873V1.84851Z" fill="#123A63"/>
<path d="M70.6137 0V6.77778H62.1461V12.7854H70.6137V19.4091H53.981V0H70.6137Z" fill="#123A63"/>
<path d="M91.3291 28.4975C89.2122 29.2677 87.7001 30.0379 84.0712 30.0379C80.4422 30.0379 78.7789 29.4217 76.8132 28.4975C74.3939 27.5733 71.8234 26.495 66.6823 26.495C62.7509 26.495 60.3316 27.1111 58.3659 27.8813V22.4899H50.0496V30.0379C49.8983 30.0379 49.5959 30.0379 49.4447 30.0379C45.8158 30.0379 44.1525 29.4217 42.1868 28.4975C39.7675 27.5733 37.197 26.495 32.0559 26.495V34.043C35.6849 34.043 37.3482 34.6591 39.3138 35.5834C41.7332 36.5076 44.3037 37.5859 49.4447 37.5859C54.4346 37.5859 57.1563 36.5076 59.5756 35.5834C61.6925 34.8132 63.2046 34.043 66.8335 34.043C70.4625 34.043 72.1258 34.6591 74.0915 35.5834C76.5108 36.5076 79.0813 37.5859 84.2224 37.5859C89.2122 37.5859 91.9339 36.5076 94.3532 35.5834C96.4701 34.8132 97.9822 34.043 101.611 34.043V26.495C96.3189 26.495 93.7484 27.5733 91.3291 28.4975Z" fill="url(#paint1_linear_2038_906)"/>
<path d="M9.07243 50.0631V50.8333H4.98984V51.7575H7.56036V54.0681H2.41931V54.9924H8.01398V55.7626H1.36086V53.2979H6.65311V52.3737H1.36086V51.6035H4.08259V50.8333H0V50.0631H9.07243ZM7.71156 46.058V49.2929H1.36086V46.058H7.71156ZM2.41931 46.8282V48.5227H6.80432V46.8282H2.41931Z" fill="#333333"/>
<path d="M9.52612 52.3737L11.0382 49.601C11.4918 48.9848 11.4918 48.5227 11.4918 47.9066V47.2904H9.82854V46.5202H14.2135V47.2904H12.5503V47.9066C12.5503 48.3687 12.7015 48.9848 13.0039 49.601L14.516 52.3737L13.7599 52.8359L12.2479 50.0631L12.0966 49.9091L11.9454 50.2172L10.4334 52.9899L9.52612 52.3737ZM18.2961 45.75V55.6086H17.3889V50.6793H16.1792V55.1465H15.1208V46.0581H16.028V49.9091H17.2377V45.75H18.2961Z" fill="#333333"/>
<path d="M19.2034 50.5252L20.8666 48.5227C21.1691 48.0606 21.3203 47.7525 21.3203 47.2904V46.0581H22.2275V47.2904C22.2275 47.5985 22.3787 48.0606 22.6811 48.5227L24.3444 50.5252L23.5884 51.1414L21.9251 49.1389C21.7739 48.9848 21.7739 48.9848 21.7739 48.8308C21.7739 48.9848 21.6227 48.9848 21.6227 49.1389L19.9594 51.1414L19.2034 50.5252ZM22.2275 53.9141C22.2275 52.6818 23.286 51.7576 24.6468 51.7576C26.1589 51.7576 27.0661 52.6818 27.0661 53.9141C27.0661 55.1465 26.0077 56.0707 24.6468 56.0707C23.286 56.0707 22.2275 55.3005 22.2275 53.9141ZM26.1589 53.9141C26.1589 53.1439 25.5541 52.5278 24.6468 52.5278C23.7396 52.5278 23.1348 53.1439 23.1348 53.9141C23.1348 54.6843 23.7396 55.3005 24.6468 55.3005C25.5541 55.3005 26.1589 54.6843 26.1589 53.9141ZM24.798 45.904H25.7053V48.3687H26.9149V45.5959H27.8222V51.7576H26.9149V49.2929H25.7053V51.1414H24.798V45.904Z" fill="#333333"/>
<path d="M36.2896 52.8359H32.207V46.5202H35.9872V47.2904H33.2655V49.1389H35.836V50.0631H33.2655V52.0657H36.2896V52.8359ZM37.3481 49.1389V45.904H38.2553V54.9924H37.3481V49.9091H36.1384V49.1389H37.3481ZM40.3722 45.75V55.6086H39.3138V45.75H40.3722Z" fill="#333333"/>
<path d="M46.5717 46.5202V52.8358H41.8843V46.5202H46.5717ZM42.9427 47.4444V52.0656H45.6645V47.4444H42.9427ZM49.2934 45.75V49.755H50.9567V50.5252H49.2934V55.4545H48.235V45.5959H49.2934V45.75Z" fill="#333333"/>
<path d="M51.1079 52.3737L52.7712 50.0631C53.2248 49.601 53.2248 49.1389 53.2248 48.6768V48.2146H51.4103V47.4444H53.2248V46.2121H54.1321V47.4444H55.9465V48.2146H54.1321V48.6768C54.1321 49.1389 54.2833 49.447 54.5857 50.0631L56.249 52.3737L55.4929 52.8359L53.8296 50.5253C53.6784 50.3712 53.6784 50.2172 53.5272 50.2172C53.5272 50.3712 53.376 50.5253 53.2248 50.5253L51.5615 52.8359L51.1079 52.3737ZM56.8538 49.2929V45.904H57.761V54.9924H56.8538V50.0631H55.3417V49.2929H56.8538ZM59.7267 45.75V55.6086H58.8195V45.75H59.7267Z" fill="#333333"/>
<path d="M66.6823 47.5985H65.6239C66.0775 48.0606 66.2287 48.5227 66.2287 49.1389C66.2287 50.5253 65.3214 51.4495 63.8094 51.4495C62.4485 51.4495 61.5413 50.5253 61.5413 49.1389C61.5413 48.5227 61.8437 48.0606 62.1461 47.5985H61.0876V46.8283H63.507V45.75H64.4142V46.8283H66.6823V47.5985ZM63.9606 50.6793C64.8678 50.6793 65.4726 50.0631 65.4726 49.1389C65.4726 48.2146 64.8678 47.5985 63.9606 47.5985C63.2045 47.5985 62.5997 48.2146 62.5997 49.1389C62.5997 50.0631 63.2045 50.6793 63.9606 50.6793ZM69.2528 52.2197V55.7626H63.0533V52.2197H69.2528ZM63.9606 53.1439V55.1465H68.1944V53.1439H63.9606ZM69.2528 45.75V51.7576H68.1944V49.601H66.6823V48.8308H68.1944V45.904H69.2528V45.75Z" fill="#333333"/>
<path d="M73.6378 48.8308V50.8333H76.662V51.6035H70.7649V50.8333H72.7306V48.8308H73.6378ZM76.2084 50.0631H75.3011V47.2904H71.3697V46.5202H76.3596V50.0631H76.2084ZM73.3354 52.6818V54.8384H78.9301V55.6086H72.4282V52.5278H73.3354V52.6818ZM78.4765 45.75V48.9848H79.8373V49.755H78.4765V52.8358H77.418V45.5959H78.4765V45.75Z" fill="#333333"/>
<path d="M85.2808 30.0379L85.5832 24.0303L99.0407 24.8005L100.099 7.54798L78.3253 6.16162L77.8717 12.9394L91.3291 13.7096L91.0267 18.0227L77.5693 17.2525L76.8132 28.6515C78.7789 29.4217 80.4422 30.0379 83.92 30.0379C84.5248 30.0379 84.8272 30.0379 85.2808 30.0379Z" fill="#123A63"/>
</g>
<defs>
<linearGradient id="paint0_linear_2038_906" x1="88.2249" y1="48.6325" x2="114.786" y2="48.6325" gradientUnits="userSpaceOnUse">
<stop stop-color="#8BD2D0"/>
<stop offset="0.1902" stop-color="#62C0D5"/>
<stop offset="0.3967" stop-color="#2FB4DA"/>
<stop offset="0.6023" stop-color="#00ABDE"/>
<stop offset="0.8047" stop-color="#00A7E0"/>
<stop offset="1" stop-color="#00A5E2"/>
</linearGradient>
<linearGradient id="paint1_linear_2038_906" x1="56.4042" y1="22.4536" x2="102.343" y2="55.7747" gradientUnits="userSpaceOnUse">
<stop stop-color="#1E95A2"/>
<stop offset="0.2773" stop-color="#008BA8"/>
<stop offset="0.7532" stop-color="#007CAF"/>
<stop offset="1" stop-color="#0077B3"/>
</linearGradient>
<clipPath id="clip0_2038_906">
<rect width="119" height="61" fill="white"/>
</clipPath>
</defs>
</svg>
