<svg width="201" height="101" viewBox="0 0 201 101" fill="none" xmlns="http://www.w3.org/2000/svg">
<g clip-path="url(#clip0_2086_42)">
<path d="M176.992 10.2021H190.784V28.3107H201V39.788H190.784V55.8562H176.992V10.2021Z" fill="white"/>
<path d="M171.374 60.1924C171.374 60.1924 149.154 72.6899 149.154 83.402C149.154 93.8591 158.348 101.256 171.374 101.256C184.654 101.256 193.849 93.8591 193.849 83.402C193.849 72.6899 171.374 60.1924 171.374 60.1924ZM171.374 90.0333C166.01 90.0333 162.69 87.4828 162.69 83.1469C162.69 78.8111 171.374 73.455 171.374 73.455C171.374 73.455 180.313 79.0661 180.313 83.1469C180.057 87.4828 176.737 90.0333 171.374 90.0333Z" fill="white"/>
<path d="M60.7852 3.06055H89.1346V14.0277H74.5768V23.9747H89.1346V34.9419H60.7852V3.06055Z" fill="white"/>
<path d="M119.272 0V11.2222H104.97V21.1692H119.272V32.1364H91.178V0H119.272Z" fill="white"/>
<path d="M15.324 82.8921V84.1673H8.42821V85.6976H12.77V89.5234H4.0864V91.0537H13.5362V92.3289H2.2986V88.2481H11.2376V86.7178H2.2986V85.4426H6.89581V84.1673H0V82.8921H15.324ZM13.0254 76.2607V81.6168H2.2986V76.2607H13.0254ZM4.0864 77.536V80.3416H11.493V77.536H4.0864Z" fill="white"/>
<path d="M16.0903 86.7172L18.6443 82.1263C19.4105 81.1061 19.4105 80.3409 19.4105 79.3207V78.3005H16.6011V77.0253H24.0077V78.3005H21.1983V79.3207C21.1983 80.0859 21.4537 81.1061 21.9645 82.1263L24.5185 86.7172L23.2415 87.4823L20.6875 82.8914L20.4321 82.6364L20.1767 83.1465L17.6227 87.7374L16.0903 86.7172ZM30.9035 75.75V92.0732H29.3711V83.9116H27.3279V91.3081H25.5401V76.2601H27.0725V82.6364H29.1157V75.75H30.9035Z" fill="white"/>
<path d="M32.4358 83.6567L35.2452 80.3411C35.756 79.5759 36.0114 79.0658 36.0114 78.3007V76.2603H37.5438V78.3007C37.5438 78.8108 37.7992 79.5759 38.31 80.3411L41.1194 83.6567L39.8424 84.6769L37.033 81.3613C36.7776 81.1062 36.7776 81.1062 36.7776 80.8512C36.7776 81.1062 36.5222 81.1062 36.5222 81.3613L33.7128 84.6769L32.4358 83.6567ZM37.5438 89.2678C37.5438 87.2274 39.3316 85.6971 41.6302 85.6971C44.1842 85.6971 45.7166 87.2274 45.7166 89.2678C45.7166 91.3082 43.9288 92.8386 41.6302 92.8386C39.3316 92.8386 37.5438 91.5633 37.5438 89.2678ZM44.1842 89.2678C44.1842 87.9926 43.1626 86.9724 41.6302 86.9724C40.0978 86.9724 39.0762 87.9926 39.0762 89.2678C39.0762 90.5431 40.0978 91.5633 41.6302 91.5633C43.1626 91.5633 44.1842 90.5431 44.1842 89.2678ZM41.8856 76.0052H43.418V80.086H45.4612V75.4951H46.9936V85.6971H45.4612V81.6163H43.418V84.6769H41.8856V76.0052Z" fill="white"/>
<path d="M61.296 87.4823H54.4001V77.0253H60.7852V78.3005H56.188V81.3611H60.5298V82.8914H56.188V86.2071H61.296V87.4823ZM63.0838 81.3611V76.005H64.6162V91.053H63.0838V82.6364H61.0406V81.3611H63.0838ZM68.1918 75.75V92.0732H66.404V75.75H68.1918Z" fill="white"/>
<path d="M78.6633 77.0254V87.4825H70.7458V77.0254H78.6633ZM72.5336 78.5557V86.2072H77.1309V78.5557H72.5336ZM83.2605 75.7502V82.3815H86.0699V83.6567H83.2605V91.8183H81.4727V75.4951H83.2605V75.7502Z" fill="white"/>
<path d="M86.3252 86.7172L89.1346 82.8914C89.9008 82.1263 89.9008 81.3611 89.9008 80.596V79.8308H86.836V78.5556H89.9008V76.5151H91.4332V78.5556H94.498V79.8308H91.4332V80.596C91.4332 81.3611 91.6886 81.8712 92.1994 82.8914L95.0088 86.7172L93.7318 87.4823L90.9224 83.6566C90.667 83.4015 90.667 83.1465 90.4116 83.1465C90.4116 83.4015 90.1562 83.6566 89.9008 83.6566L87.0914 87.4823L86.3252 86.7172ZM96.0304 81.6162V76.005H97.5628V91.053H96.0304V82.8914H93.4764V81.6162H96.0304ZM100.883 75.75V92.0732H99.3506V75.75H100.883Z" fill="white"/>
<path d="M112.631 78.8106H110.844C111.61 79.5758 111.865 80.3409 111.865 81.3611C111.865 83.6566 110.333 85.1869 107.779 85.1869C105.48 85.1869 103.948 83.6566 103.948 81.3611C103.948 80.3409 104.459 79.5758 104.969 78.8106H103.182V77.5354H107.268V75.75H108.8V77.5354H112.631V78.8106ZM108.034 83.9116C109.567 83.9116 110.588 82.8914 110.588 81.3611C110.588 79.8308 109.567 78.8106 108.034 78.8106C106.757 78.8106 105.736 79.8308 105.736 81.3611C105.736 82.8914 106.757 83.9116 108.034 83.9116ZM116.973 86.4621V92.3283H106.502V86.4621H116.973ZM108.034 87.9924V91.3081H115.185V87.9924H108.034ZM116.973 75.75V85.697H115.185V82.1263H112.631V80.851H115.185V76.005H116.973V75.75Z" fill="white"/>
<path d="M124.38 80.8512V84.1668H129.488V85.4421H119.527V84.1668H122.848V80.8512H124.38ZM128.722 82.8916H127.189V78.3007H120.549V77.0254H128.977V82.8916H128.722ZM123.869 87.2274V90.7981H133.319V92.0734H122.337V86.9724H123.869V87.2274ZM132.553 75.7502V81.1062H134.851V82.3815H132.553V87.4825H130.765V75.4951H132.553V75.7502Z" fill="white"/>
<path fill-rule="evenodd" clip-rule="evenodd" d="M129.76 47.1921C129.755 47.1895 129.749 47.1869 129.743 47.1843C129.562 47.1163 129.38 47.0478 129.197 46.979C125.262 45.4988 120.929 43.8686 112.631 43.8686C105.991 43.8686 101.905 44.8888 98.5844 46.1641V37.2373H84.5374V49.7348H83.5158C77.3862 49.7348 74.5768 48.7146 71.2566 47.1843C71.075 47.1163 70.893 47.0478 70.71 46.979C66.7758 45.4988 62.4426 43.8686 54.1448 43.8686V56.3661C60.2744 56.3661 63.0838 57.3863 66.404 58.9166C66.5855 58.9846 66.7676 59.0531 66.9505 59.1219C70.8848 60.602 75.218 62.2323 83.5158 62.2323C91.7808 62.2323 96.3617 60.5154 100.39 59.0058C100.469 58.976 100.548 58.9462 100.628 58.9166C101.082 58.7546 101.519 58.5926 101.95 58.4333C104.91 57.338 107.536 56.3661 112.887 56.3661C119.016 56.3661 121.826 57.3863 125.146 58.9166C125.328 58.9846 125.51 59.0531 125.693 59.1219C129.627 60.602 133.96 62.2323 142.258 62.2323C150.523 62.2323 155.104 60.5154 159.132 59.0058L159.37 58.9166C159.824 58.7546 160.262 58.5926 160.692 58.4333C163.652 57.338 166.278 56.3661 171.629 56.3661V43.8686C163.077 43.8686 158.732 45.5028 154.794 46.9843C154.616 47.0513 154.438 47.118 154.262 47.1843C153.808 47.3462 153.37 47.5082 152.939 47.6676C150.383 48.6134 148.076 49.4673 144.049 49.6826L144.557 39.788L167.287 41.0633L169.075 12.4976L132.297 10.2021L131.531 21.4244L154.262 22.6996L153.751 29.841L131.02 28.5658L129.76 47.1921Z" fill="white"/>
</g>
<defs>
<clipPath id="clip0_2086_42">
<rect width="201" height="101" fill="white"/>
</clipPath>
</defs>
</svg>
