<svg width="339" height="171" viewBox="0 0 339 171" fill="none" xmlns="http://www.w3.org/2000/svg">
<g clip-path="url(#clip0_2048_82)">
<path d="M298.51 17.2727H321.77V47.9318H339V67.3636H321.77V94.5682H298.51V17.2727Z" fill="#123A63"/>
<path d="M289.033 101.909C289.033 101.909 251.558 123.068 251.558 141.205C251.558 158.909 267.065 171.432 289.033 171.432C311.432 171.432 326.939 158.909 326.939 141.205C326.939 123.068 289.033 101.909 289.033 101.909ZM289.033 152.432C279.987 152.432 274.388 148.114 274.388 140.773C274.388 133.432 289.033 124.364 289.033 124.364C289.033 124.364 304.109 133.864 304.109 140.773C303.679 148.114 298.079 152.432 289.033 152.432Z" fill="url(#paint0_linear_2048_82)"/>
<path d="M102.518 5.18188H150.332V23.7501H125.779V40.591H150.332V59.1592H102.518V5.18188Z" fill="#123A63"/>
<path d="M201.16 0V19H177.038V35.8409H201.16V54.4091H153.778V0H201.16Z" fill="#123A63"/>
<path d="M260.173 79.8863C254.142 82.0454 249.835 84.2045 239.497 84.2045C229.159 84.2045 224.421 82.4772 218.821 79.8863C211.929 77.2954 204.606 74.2727 189.961 74.2727C178.761 74.2727 171.869 76 166.269 78.159V63.0454H142.578V84.2045C142.147 84.2045 141.286 84.2045 140.855 84.2045C130.517 84.2045 125.779 82.4772 120.179 79.8863C113.287 77.2954 105.964 74.2727 91.3188 74.2727V95.4318C101.657 95.4318 106.395 97.159 111.995 99.75C118.887 102.341 126.21 105.364 140.855 105.364C155.07 105.364 162.823 102.341 169.715 99.75C175.746 97.5909 180.053 95.4318 190.391 95.4318C200.729 95.4318 205.468 97.159 211.067 99.75C217.959 102.341 225.282 105.364 239.927 105.364C254.142 105.364 261.896 102.341 268.788 99.75C274.818 97.5909 279.126 95.4318 289.464 95.4318V74.2727C274.387 74.2727 267.065 77.2954 260.173 79.8863Z" fill="url(#paint1_linear_2048_82)"/>
<path d="M25.845 140.341V142.5H14.2147V145.091H21.5375V151.568H6.892V154.159H22.8297V156.318H3.87675V149.409H18.953V146.818H3.87675V144.659H11.6302V142.5H0V140.341H25.845ZM21.9682 129.114V138.182H3.87675V129.114H21.9682ZM6.892 131.273V136.023H19.3837V131.273H6.892Z" fill="black"/>
<path d="M27.1372 146.818L31.4447 139.045C32.737 137.318 32.737 136.023 32.737 134.295V132.568H27.9987V130.409H40.4904V132.568H35.7522V134.295C35.7522 135.591 36.183 137.318 37.0445 139.045L41.3519 146.818L39.1982 148.114L34.8907 140.341L34.46 139.909L34.0292 140.773L29.7217 148.545L27.1372 146.818ZM52.1207 128.25V155.886H49.5362V142.068H46.0902V154.591H43.0749V129.114H45.6594V139.909H49.1054V128.25H52.1207Z" fill="black"/>
<path d="M54.7053 141.636L59.4436 136.023C60.3051 134.727 60.7358 133.864 60.7358 132.568V129.114H63.3203V132.568C63.3203 133.432 63.7511 134.727 64.6126 136.023L69.3508 141.636L67.1971 143.364L62.4588 137.75C62.0281 137.318 62.0281 137.318 62.0281 136.886C62.0281 137.318 61.5973 137.318 61.5973 137.75L56.8591 143.364L54.7053 141.636ZM63.3203 151.136C63.3203 147.682 66.3356 145.091 70.2123 145.091C74.5198 145.091 77.1043 147.682 77.1043 151.136C77.1043 154.591 74.0891 157.182 70.2123 157.182C66.3356 157.182 63.3203 155.023 63.3203 151.136ZM74.5198 151.136C74.5198 148.977 72.7968 147.25 70.2123 147.25C67.6278 147.25 65.9048 148.977 65.9048 151.136C65.9048 153.295 67.6278 155.023 70.2123 155.023C72.7968 155.023 74.5198 153.295 74.5198 151.136ZM70.6431 128.682H73.2276V135.591H76.6736V127.818H79.2581V145.091H76.6736V138.182H73.2276V143.364H70.6431V128.682Z" fill="black"/>
<path d="M103.38 148.114H91.7498V130.409H102.518V132.568H94.765V137.75H102.088V140.341H94.765V145.955H103.38V148.114ZM106.395 137.75V128.682H108.98V154.159H106.395V139.909H102.949V137.75H106.395ZM115.01 128.25V155.886H111.995V128.25H115.01Z" fill="black"/>
<path d="M132.671 130.409V148.114H119.318V130.409H132.671ZM122.333 133V145.954H130.086V133H122.333ZM140.424 128.25V139.477H145.163V141.636H140.424V155.454H137.409V127.818H140.424V128.25Z" fill="black"/>
<path d="M145.593 146.818L150.332 140.341C151.624 139.045 151.624 137.75 151.624 136.455V135.159H146.455V133H151.624V129.545H154.208V133H159.377V135.159H154.208V136.455C154.208 137.75 154.639 138.614 155.501 140.341L160.239 146.818L158.085 148.114L153.347 141.636C152.916 141.205 152.916 140.773 152.485 140.773C152.485 141.205 152.055 141.636 151.624 141.636L146.886 148.114L145.593 146.818ZM161.962 138.182V128.682H164.546V154.159H161.962V140.341H157.654V138.182H161.962ZM170.146 128.25V155.886H167.562V128.25H170.146Z" fill="black"/>
<path d="M189.961 133.432H186.945C188.238 134.727 188.668 136.023 188.668 137.75C188.668 141.636 186.084 144.227 181.776 144.227C177.9 144.227 175.315 141.636 175.315 137.75C175.315 136.023 176.177 134.727 177.038 133.432H174.023V131.273H180.915V128.25H183.499V131.273H189.961V133.432ZM182.207 142.068C184.792 142.068 186.515 140.341 186.515 137.75C186.515 135.159 184.792 133.432 182.207 133.432C180.053 133.432 178.33 135.159 178.33 137.75C178.33 140.341 180.053 142.068 182.207 142.068ZM197.283 146.386V156.318H179.623V146.386H197.283ZM182.207 148.977V154.591H194.268V148.977H182.207ZM197.283 128.25V145.091H194.268V139.045H189.961V136.886H194.268V128.682H197.283V128.25Z" fill="black"/>
<path d="M209.775 136.886V142.5H218.39V144.659H201.591V142.5H207.191V136.886H209.775ZM217.098 140.341H214.513V132.568H203.314V130.409H217.529V140.341H217.098ZM208.914 147.682V153.727H224.851V155.886H206.329V147.25H208.914V147.682ZM223.559 128.25V137.318H227.436V139.477H223.559V148.114H220.544V127.818H223.559V128.25Z" fill="black"/>
<path d="M242.943 84.2045L243.804 67.3636L282.141 69.5227L285.156 21.1591L223.128 17.2727L221.836 36.2727L260.173 38.4318L259.311 50.5227L220.975 48.3636L218.821 80.3182C224.421 82.4773 229.159 84.2045 239.066 84.2045C240.789 84.2045 241.651 84.2045 242.943 84.2045Z" fill="#123A63"/>
</g>
<defs>
<linearGradient id="paint0_linear_2048_82" x1="251.33" y1="136.331" x2="326.996" y2="136.331" gradientUnits="userSpaceOnUse">
<stop stop-color="#8BD2D0"/>
<stop offset="0.1902" stop-color="#62C0D5"/>
<stop offset="0.3967" stop-color="#2FB4DA"/>
<stop offset="0.6023" stop-color="#00ABDE"/>
<stop offset="0.8047" stop-color="#00A7E0"/>
<stop offset="1" stop-color="#00A5E2"/>
</linearGradient>
<linearGradient id="paint1_linear_2048_82" x1="160.681" y1="62.9435" x2="290.088" y2="158.331" gradientUnits="userSpaceOnUse">
<stop stop-color="#1E95A2"/>
<stop offset="0.2773" stop-color="#008BA8"/>
<stop offset="0.7532" stop-color="#007CAF"/>
<stop offset="1" stop-color="#0077B3"/>
</linearGradient>
<clipPath id="clip0_2048_82">
<rect width="339" height="171" fill="white"/>
</clipPath>
</defs>
</svg>
