<svg width="476" height="395" viewBox="0 0 476 395" fill="none" xmlns="http://www.w3.org/2000/svg">
<path d="M15.4838 123.317C65.0814 28.8222 165.17 15.7284 209.015 20.9934C306.199 20.9934 487.164 123.317 475.435 216.027C463.705 308.736 242.527 412.434 133.613 392.518C24.6996 372.603 -11.3257 174.822 15.4838 123.317Z" fill="#007CAF"/>
<path d="M8.48385 103.317C58.0814 8.82223 158.17 -4.27156 202.015 0.993427C299.199 0.993427 480.164 103.317 468.435 196.027C456.705 288.736 235.527 392.433 126.613 372.518C17.6996 352.603 -18.3257 154.822 8.48385 103.317Z" fill="white"/>
<g clip-path="url(#clip0_2150_30)">
<path d="M342.51 118.273H365.77V148.932H383V168.364H365.77V195.568H342.51V118.273Z" fill="#123A63"/>
<path d="M333.033 202.909C333.033 202.909 295.558 224.068 295.558 242.205C295.558 259.909 311.065 272.432 333.033 272.432C355.432 272.432 370.939 259.909 370.939 242.205C370.939 224.068 333.033 202.909 333.033 202.909ZM333.033 253.432C323.987 253.432 318.388 249.114 318.388 241.773C318.388 234.432 333.033 225.364 333.033 225.364C333.033 225.364 348.109 234.864 348.109 241.773C347.679 249.114 342.079 253.432 333.033 253.432Z" fill="url(#paint0_linear_2150_30)"/>
<path d="M146.518 106.182H194.332V124.75H169.779V141.591H194.332V160.159H146.518V106.182Z" fill="#123A63"/>
<path d="M245.16 101V120H221.038V136.841H245.16V155.409H197.778V101H245.16Z" fill="#123A63"/>
<path d="M304.173 180.886C298.142 183.045 293.835 185.204 283.497 185.204C273.159 185.204 268.421 183.477 262.821 180.886C255.929 178.295 248.606 175.273 233.961 175.273C222.761 175.273 215.869 177 210.269 179.159V164.045H186.578V185.204C186.147 185.204 185.286 185.204 184.855 185.204C174.517 185.204 169.779 183.477 164.179 180.886C157.287 178.295 149.964 175.273 135.319 175.273V196.432C145.657 196.432 150.395 198.159 155.995 200.75C162.887 203.341 170.21 206.364 184.855 206.364C199.07 206.364 206.823 203.341 213.715 200.75C219.746 198.591 224.053 196.432 234.391 196.432C244.729 196.432 249.468 198.159 255.067 200.75C261.959 203.341 269.282 206.364 283.927 206.364C298.142 206.364 305.896 203.341 312.788 200.75C318.818 198.591 323.126 196.432 333.464 196.432V175.273C318.387 175.273 311.065 178.295 304.173 180.886Z" fill="url(#paint1_linear_2150_30)"/>
<path d="M69.845 241.341V243.5H58.2147V246.091H65.5375V252.568H50.892V255.159H66.8297V257.318H47.8767V250.409H62.953V247.818H47.8767V245.659H55.6302V243.5H44V241.341H69.845ZM65.9682 230.114V239.182H47.8767V230.114H65.9682ZM50.892 232.273V237.023H63.3837V232.273H50.892Z" fill="black"/>
<path d="M71.1372 247.818L75.4447 240.045C76.737 238.318 76.737 237.023 76.737 235.295V233.568H71.9987V231.409H84.4904V233.568H79.7522V235.295C79.7522 236.591 80.183 238.318 81.0445 240.045L85.3519 247.818L83.1982 249.114L78.8907 241.341L78.46 240.909L78.0292 241.773L73.7217 249.545L71.1372 247.818ZM96.1207 229.25V256.886H93.5362V243.068H90.0902V255.591H87.0749V230.114H89.6594V240.909H93.1054V229.25H96.1207Z" fill="black"/>
<path d="M98.7053 242.636L103.444 237.023C104.305 235.727 104.736 234.864 104.736 233.568V230.114H107.32V233.568C107.32 234.432 107.751 235.727 108.613 237.023L113.351 242.636L111.197 244.364L106.459 238.75C106.028 238.318 106.028 238.318 106.028 237.886C106.028 238.318 105.597 238.318 105.597 238.75L100.859 244.364L98.7053 242.636ZM107.32 252.136C107.32 248.682 110.336 246.091 114.212 246.091C118.52 246.091 121.104 248.682 121.104 252.136C121.104 255.591 118.089 258.182 114.212 258.182C110.336 258.182 107.32 256.023 107.32 252.136ZM118.52 252.136C118.52 249.977 116.797 248.25 114.212 248.25C111.628 248.25 109.905 249.977 109.905 252.136C109.905 254.295 111.628 256.023 114.212 256.023C116.797 256.023 118.52 254.295 118.52 252.136ZM114.643 229.682H117.228V236.591H120.674V228.818H123.258V246.091H120.674V239.182H117.228V244.364H114.643V229.682Z" fill="black"/>
<path d="M147.38 249.114H135.75V231.409H146.518V233.568H138.765V238.75H146.088V241.341H138.765V246.955H147.38V249.114ZM150.395 238.75V229.682H152.98V255.159H150.395V240.909H146.949V238.75H150.395ZM159.01 229.25V256.886H155.995V229.25H159.01Z" fill="black"/>
<path d="M176.671 231.409V249.114H163.318V231.409H176.671ZM166.333 234V246.954H174.086V234H166.333ZM184.424 229.25V240.477H189.163V242.636H184.424V256.454H181.409V228.818H184.424V229.25Z" fill="black"/>
<path d="M189.593 247.818L194.332 241.341C195.624 240.045 195.624 238.75 195.624 237.455V236.159H190.455V234H195.624V230.545H198.208V234H203.377V236.159H198.208V237.455C198.208 238.75 198.639 239.614 199.501 241.341L204.239 247.818L202.085 249.114L197.347 242.636C196.916 242.205 196.916 241.773 196.485 241.773C196.485 242.205 196.055 242.636 195.624 242.636L190.886 249.114L189.593 247.818ZM205.962 239.182V229.682H208.546V255.159H205.962V241.341H201.654V239.182H205.962ZM214.146 229.25V256.886H211.562V229.25H214.146Z" fill="black"/>
<path d="M233.961 234.432H230.945C232.238 235.727 232.668 237.023 232.668 238.75C232.668 242.636 230.084 245.227 225.776 245.227C221.9 245.227 219.315 242.636 219.315 238.75C219.315 237.023 220.177 235.727 221.038 234.432H218.023V232.273H224.915V229.25H227.499V232.273H233.961V234.432ZM226.207 243.068C228.792 243.068 230.515 241.341 230.515 238.75C230.515 236.159 228.792 234.432 226.207 234.432C224.053 234.432 222.33 236.159 222.33 238.75C222.33 241.341 224.053 243.068 226.207 243.068ZM241.283 247.386V257.318H223.623V247.386H241.283ZM226.207 249.977V255.591H238.268V249.977H226.207ZM241.283 229.25V246.091H238.268V240.045H233.961V237.886H238.268V229.682H241.283V229.25Z" fill="black"/>
<path d="M253.775 237.886V243.5H262.39V245.659H245.591V243.5H251.191V237.886H253.775ZM261.098 241.341H258.513V233.568H247.314V231.409H261.529V241.341H261.098ZM252.914 248.682V254.727H268.851V256.886H250.329V248.25H252.914V248.682ZM267.559 229.25V238.318H271.436V240.477H267.559V249.114H264.544V228.818H267.559V229.25Z" fill="black"/>
<path d="M286.943 185.205L287.804 168.364L326.141 170.523L329.156 122.159L267.128 118.273L265.836 137.273L304.173 139.432L303.311 151.523L264.975 149.364L262.821 181.318C268.421 183.477 273.159 185.205 283.066 185.205C284.789 185.205 285.651 185.205 286.943 185.205Z" fill="#123A63"/>
</g>
<defs>
<linearGradient id="paint0_linear_2150_30" x1="295.33" y1="237.331" x2="370.996" y2="237.331" gradientUnits="userSpaceOnUse">
<stop stop-color="#8BD2D0"/>
<stop offset="0.1902" stop-color="#62C0D5"/>
<stop offset="0.3967" stop-color="#2FB4DA"/>
<stop offset="0.6023" stop-color="#00ABDE"/>
<stop offset="0.8047" stop-color="#00A7E0"/>
<stop offset="1" stop-color="#00A5E2"/>
</linearGradient>
<linearGradient id="paint1_linear_2150_30" x1="204.681" y1="163.944" x2="334.088" y2="259.331" gradientUnits="userSpaceOnUse">
<stop stop-color="#1E95A2"/>
<stop offset="0.2773" stop-color="#008BA8"/>
<stop offset="0.7532" stop-color="#007CAF"/>
<stop offset="1" stop-color="#0077B3"/>
</linearGradient>
<clipPath id="clip0_2150_30">
<rect width="339" height="171" fill="white" transform="translate(44 101)"/>
</clipPath>
</defs>
</svg>
