<svg width="1920" height="2688" viewBox="0 0 1920 2688" fill="none" xmlns="http://www.w3.org/2000/svg">
<path fill-rule="evenodd" clip-rule="evenodd" d="M-92 83.2734C38.7285 48.9897 364.685 -15.0219 622.683 3.20141C786.463 14.7697 949.718 35.2395 1088.06 52.5859C1222.13 69.3962 1332.81 83.2734 1397.9 83.2734C1530.15 83.2734 1808.9 82.5825 1922.34 3.20141C1934.12 3.20141 1933.34 16.0297 1929.35 81.8542C1927.41 113.798 1924.72 158.222 1922.34 219.717H1915.1L1933.2 2687.5C1876.38 2584.77 1689.89 2378.3 1406.59 2374.23C1194.56 2371.18 1035.97 2420.56 907.132 2460.67C820.79 2487.55 747.805 2510.27 681.046 2510.27C615.332 2510.27 546.681 2493.96 473.807 2476.64C362.178 2450.11 240.642 2421.23 104.578 2445.03C-29.5183 2468.48 -27.7867 2480.49 -24.3888 2504.05C-23.2279 2512.1 -21.8724 2521.5 -25.6731 2533.17L-80.8081 165.524H-73.2954L-92 83.2734Z" fill="#8BD2D0" fill-opacity="0.3"/>
<path fill-rule="evenodd" clip-rule="evenodd" d="M1968.72 940C1719.98 804.652 1301.81 620.092 1124.95 702.5C877.069 818 549.227 955 -13.5 317V940H-153V1315.5C-138.333 1266 -64.8 1158.5 112 1124.5C245.711 1098.79 365.146 1129.99 474.844 1158.66C546.458 1177.37 613.922 1195 678.5 1195C744.104 1195 815.827 1170.45 900.676 1141.4C1027.29 1098.06 1183.13 1044.71 1391.5 1048C1669.9 1052.4 1851.17 1275.5 1907 1386.5L2088 940H1968.72Z" fill="#8BD2D0" fill-opacity="0.45"/>
</svg>
