<svg width="1920" height="2467" viewBox="0 0 1920 2467" fill="none" xmlns="http://www.w3.org/2000/svg">
<path fill-rule="evenodd" clip-rule="evenodd" d="M-36 70.6841C92.4679 41.5834 412.788 -12.7509 666.325 2.71742C827.272 12.5368 987.704 29.9119 1123.66 44.6359C1255.41 58.9049 1364.17 70.6841 1428.13 70.6841C1558.1 70.6841 1832.03 70.0977 1943.51 2.71742C1955.08 2.71742 1954.32 13.6064 1950.4 69.4793C1948.49 96.5936 1945.85 134.302 1943.51 186.5H1926.5V1811H-5V186.5H-5.50785L-36 70.6841Z" fill="url(#paint0_linear_2150_4)"/>
<path fill-rule="evenodd" clip-rule="evenodd" d="M-83 1436.87C46.6951 1407.69 370.075 1353.21 626.034 1368.72C788.518 1378.57 950.483 1395.99 1087.73 1410.76C1220.74 1425.06 1330.55 1436.87 1395.12 1436.87C1526.33 1436.87 1802.88 1436.29 1915.41 1368.72C1927.96 1368.72 1926.15 1398.39 1921.45 1475.33C1919.99 1499.17 1918.26 1527.55 1916.59 1561H2122L2009 1886.5C1953.17 1775.5 1691.4 1664.4 1413 1660C1204.63 1656.71 1048.79 1710.06 922.176 1753.4C837.327 1782.45 765.604 1807 700 1807C635.422 1807 567.958 1789.37 496.344 1770.66C386.646 1741.99 267.211 1710.79 133.5 1736.5C73.8808 1747.97 23.9007 1754.09 -16.7242 1759.06C-96.572 1768.84 -140.279 1774.19 -150 1807L-119 1561H-57.3254L-83 1436.87Z" fill="url(#paint1_linear_2150_4)"/>
<path fill-rule="evenodd" clip-rule="evenodd" d="M1957 1689.87C1827.31 1660.69 1503.93 1606.21 1247.97 1621.72C1085.48 1631.57 923.517 1648.99 786.266 1663.76C653.256 1678.06 543.455 1689.87 478.88 1689.87C347.671 1689.87 71.1223 1689.29 -41.4146 1621.72C-55.7563 1621.72 -51.3381 1710.17 -45.2898 1831.25C-44.0171 1856.73 -42.6721 1883.65 -41.4146 1911.5H-28.0723C-34.8538 2058.47 -41.595 2207.97 -25.9161 2207.97C86.6208 2140.41 342.791 2117.5 474 2117.5C533.968 2117.5 637.197 2132.35 762.161 2150.33C910.616 2171.68 1089.75 2197.45 1263.47 2207.97C1519.42 2223.48 1842.8 2169 1972.5 2139.83L2011 1864.5H1987.34L1957 1689.87Z" fill="url(#paint2_linear_2150_4)"/>
<path d="M317.319 959.118C317.319 959.118 315.077 987.835 313.425 1017.61C311.773 1047.4 305.52 1090.41 302.924 1108.85C300.328 1127.28 296.788 1160.61 294.547 1175.26C292.305 1189.92 290.181 1195.59 289.709 1197.36C289.237 1199.13 280.506 1175.85 278.382 1165.81C276.14 1155.76 274.016 1129.88 274.016 1109.2C274.016 1088.52 272.718 1051.77 274.016 1033.33C275.314 1014.9 275.786 994.334 275.786 982.398C275.786 970.463 275.314 959.118 275.314 959.118H262.571C262.571 959.118 261.745 978.971 259.975 993.507C258.206 1007.92 255.61 1047.04 254.312 1066.3C252.896 1085.57 251.008 1118.06 251.362 1131.66C251.716 1145.25 253.014 1174.67 255.61 1183.89C258.206 1193.11 266.111 1201.85 270.477 1210.24C274.842 1218.63 287.585 1240.02 287.939 1242.27C288.411 1244.51 287.467 1265.08 287.467 1274.77C287.467 1284.46 284.871 1309.16 280.506 1333.38C276.14 1357.61 272.6 1386.09 270.477 1404.05C268.235 1422.01 263.041 1610.58 260.917 1631.61C258.675 1652.65 257.023 1667.54 254.31 1679C251.714 1690.34 248.174 1698.62 248.174 1698.62L480.374 1692.37C480.374 1692.37 475.663 1664.74 470.825 1645C465.987 1625.26 453.952 1456.64 453.008 1433.36C452.183 1410.08 446.873 1371.08 444.631 1348.27C442.389 1325.46 439.322 1290.37 438.024 1260.11C436.726 1229.86 433.658 1192.16 434.956 1190.86C436.254 1189.56 461.622 1174.67 470.825 1167.58C480.028 1160.61 487.934 1152.22 493.125 1141.7C498.435 1131.18 505.396 1117.59 508.464 1106.13C511.532 1094.67 515.425 1072.33 515.425 1059.21C515.425 1046.1 514.127 1025.06 515.425 1006.15C516.723 987.244 515.425 959 515.425 959H507.992C507.992 959 507.166 984.171 505.396 999.061C503.626 1013.95 501.856 1031.56 500.558 1044.68C499.261 1057.79 496.193 1078 490.058 1095.14C483.922 1112.27 480.382 1117.12 476.017 1121.49C471.651 1125.86 449.351 1137.33 444.041 1140.75C438.732 1144.3 434.012 1146.43 434.012 1143C434.012 1139.45 433.54 1098.68 433.186 1079.42C432.714 1060.16 432.36 1045.62 431.416 1028.13C430.59 1010.64 429.174 1004.5 429.174 989.962C429.41 975.544 430.708 959.118 430.708 959.118H317.319Z" fill="#3B96AF"/>
<path d="M135.735 1069.99C135.735 1069.99 137.187 1088.6 138.258 1107.9C139.328 1127.2 143.38 1155.07 145.062 1167.02C146.744 1178.97 149.037 1200.56 150.49 1210.06C151.942 1219.56 153.319 1223.23 153.624 1224.38C153.93 1225.53 159.588 1210.44 160.964 1203.93C162.416 1197.42 163.792 1180.65 163.792 1167.25C163.792 1153.85 164.633 1130.03 163.792 1118.08C162.951 1106.14 162.646 1092.81 162.646 1085.07C162.646 1077.34 162.951 1069.99 162.951 1069.99H171.208C171.208 1069.99 171.743 1082.85 172.89 1092.27C174.037 1101.62 175.719 1126.97 176.56 1139.45C177.477 1151.93 178.7 1172.99 178.471 1181.8C178.242 1190.61 177.401 1209.68 175.719 1215.65C174.037 1221.62 168.915 1227.29 166.086 1232.73C163.257 1238.17 155 1252.03 154.771 1253.48C154.465 1254.94 155.077 1268.26 155.077 1274.54C155.077 1280.82 156.759 1296.83 159.588 1312.53C162.416 1328.23 164.71 1346.69 166.086 1358.33C167.538 1369.97 170.367 1477.44 171.743 1491.08C173.196 1504.71 174.266 1514.36 176.024 1521.79C176.024 1528.5 177.5 1533 177.5 1533L36.2722 1501.5C36.2722 1501.5 38.2599 1486.11 41.3944 1473.32C44.5289 1460.53 52.6327 1458.09 53.2443 1443C59.0546 1415.59 51.7917 1336.96 53.2443 1322.18C54.6969 1307.4 56.6846 1284.65 57.5256 1265.05C58.3665 1245.44 60.3542 1221.01 59.5133 1220.17C58.6723 1219.33 42.2354 1209.68 36.2722 1205.08C30.309 1200.56 25.1868 1195.13 21.823 1188.31C18.3827 1181.49 13.8721 1172.69 11.8844 1165.26C9.89662 1157.83 7.37373 1143.36 7.37373 1134.85C7.37373 1126.35 8.21469 1112.72 7.37373 1100.47C6.53278 1088.21 7.37373 1069.91 7.37373 1069.91H12.1901C12.1901 1069.91 12.7253 1086.22 13.8721 1095.87C15.0188 1105.52 16.1656 1116.93 17.0066 1125.43C17.8475 1133.94 19.8352 1147.03 23.8107 1158.14C27.7861 1169.24 30.0797 1172.38 32.9084 1175.21C35.737 1178.05 50.1862 1185.48 53.6265 1187.7C57.0668 1190 60.1249 1191.37 60.1249 1189.15C60.1249 1186.86 60.4307 1160.43 60.66 1147.95C60.9658 1135.47 61.1952 1126.05 61.8068 1114.71C62.3419 1103.38 63.2594 1099.4 63.2594 1089.98C63.1065 1080.63 62.2655 1069.99 62.2655 1069.99H135.735Z" fill="#3B96AF"/>
<path d="M1896.9 1061.08C1896.9 1061.08 1898.47 1081.35 1899.64 1102.36C1900.8 1123.37 1905.2 1153.72 1907.03 1166.73C1908.86 1179.74 1911.35 1203.25 1912.93 1213.59C1914.51 1223.93 1916 1227.93 1916.34 1229.18C1916.67 1230.43 1922.82 1214.01 1924.31 1206.92C1925.89 1199.83 1927.39 1181.57 1927.39 1166.98C1927.39 1152.39 1928.3 1126.46 1927.39 1113.45C1926.47 1100.44 1926.14 1085.93 1926.14 1077.51C1926.14 1069.09 1926.47 1061.08 1926.47 1061.08H1935.45C1935.45 1061.08 1936.03 1075.09 1937.27 1085.35C1938.52 1095.52 1940.35 1123.12 1941.26 1136.71C1942.26 1150.3 1943.59 1173.23 1943.34 1182.82C1943.09 1192.41 1942.17 1213.17 1940.35 1219.68C1938.52 1226.18 1932.95 1232.35 1929.88 1238.27C1926.81 1244.19 1917.83 1259.29 1917.58 1260.87C1917.25 1262.45 1917.92 1276.96 1917.92 1283.8C1917.92 1290.64 1919.74 1308.06 1922.82 1325.16C1925.89 1342.25 1928.38 1362.35 1929.88 1375.02C1931.46 1387.7 1934.53 1415.88 1936.03 1430.72C1937.61 1445.56 1938.77 1456.07 1940.68 1464.16C1942.51 1472.16 1945 1478 1945 1478L1767.87 1539C1767.87 1539 1789.31 1461.24 1792.71 1447.31C1796.12 1433.39 1800.69 1412.13 1801.35 1395.7C1801.94 1379.27 1805.67 1351.76 1807.25 1335.66C1808.83 1319.57 1810.99 1294.81 1811.91 1273.46C1812.82 1252.11 1814.98 1225.51 1814.07 1224.6C1813.15 1223.68 1795.29 1213.17 1788.81 1208.17C1782.33 1203.25 1776.76 1197.33 1773.11 1189.91C1769.37 1182.49 1764.47 1172.9 1762.31 1164.81C1760.15 1156.72 1757.41 1140.96 1757.41 1131.71C1757.41 1122.45 1758.32 1107.61 1757.41 1094.27C1756.49 1080.93 1757.41 1061 1757.41 1061H1762.64C1762.64 1061 1763.22 1078.76 1764.47 1089.27C1765.71 1099.77 1766.96 1112.2 1767.87 1121.45C1768.79 1130.71 1770.95 1144.97 1775.27 1157.06C1779.59 1169.15 1782.08 1172.57 1785.15 1175.65C1788.23 1178.74 1803.93 1186.82 1807.67 1189.24C1811.41 1191.74 1814.73 1193.25 1814.73 1190.83C1814.73 1188.33 1815.06 1159.56 1815.31 1145.97C1815.64 1132.38 1815.89 1122.12 1816.56 1109.78C1817.14 1097.44 1818.14 1093.1 1818.14 1082.85C1817.97 1072.67 1817.06 1061.08 1817.06 1061.08H1896.9Z" fill="#3B96AF"/>
<path d="M1459.23 1627.5C1459.23 1627.5 1478.08 1536.38 1482.24 1506.98C1486.4 1477.59 1492.22 1426.84 1492.22 1423.23C1492.22 1419.63 1467.82 1391.9 1453.69 1371.1C1439.27 1350.3 1430.68 1336.16 1429.29 1323.96C1427.91 1311.75 1430.12 1268.22 1425.69 1263.22C1421.53 1258.23 1412.38 1246.03 1413.21 1238.82C1414.32 1231.61 1415.71 1214.42 1413.21 1211.64C1410.72 1208.87 1379.12 1185.3 1375.51 1180.86C1371.91 1176.7 1366.92 1165.05 1365.53 1151.47C1364.15 1137.88 1362.76 1125.12 1356.11 1112.92C1349.45 1100.72 1341.69 1087.13 1336.7 1081.58C1331.99 1075.76 1327 1063 1327 1063L1330.6 1058.84C1330.6 1058.84 1339.2 1071.6 1346.96 1078.25C1354.72 1084.63 1368.3 1105.43 1374.96 1118.19C1381.33 1130.94 1388.54 1150.36 1392.15 1156.73C1395.75 1163.11 1404.9 1172.54 1409.61 1172.54C1414.32 1172.54 1416.54 1161.17 1419.31 1153.13C1422.08 1145.36 1427.07 1138.15 1427.07 1138.15L1430.68 1140.37C1430.68 1140.37 1427.07 1148.97 1426.52 1158.95C1425.69 1168.94 1422.92 1181.14 1426.52 1188.35C1430.12 1195.56 1438.72 1202.77 1440.1 1211.37C1441.49 1219.96 1442.32 1229.95 1446.48 1239.37C1450.64 1248.8 1458.68 1267.94 1459.23 1280.97C1460.06 1293.73 1462.83 1319.52 1468.66 1327.56C1474.48 1335.33 1483.07 1341.15 1486.4 1346.14C1490 1351.13 1492.22 1354.74 1492.22 1354.74C1492.22 1354.74 1494.99 1299 1497.21 1265.44C1499.43 1231.89 1498.04 1169.49 1497.21 1154.52C1496.38 1139.54 1490.83 1137.32 1478.64 1119.57C1466.44 1101.83 1457.29 1073.82 1450.08 1052.46C1442.88 1031.11 1444.26 1016.69 1440.1 1005.32C1435.95 993.951 1432.9 965.387 1432.9 965.387H1437.05C1437.05 965.387 1444.26 993.951 1447.03 999.775C1449.81 1005.6 1453.41 1018.35 1457.01 1031.11C1460.62 1043.87 1469.77 1066.05 1474.75 1074.65C1479.74 1083.25 1490.56 1098.22 1493.33 1096.83C1496.1 1095.45 1499.7 1042.48 1501.92 1015.3C1504.14 988.127 1509.13 968.715 1510.52 949.581C1511.9 930.168 1514.12 931.361 1515.51 915H1660.12C1660.12 915 1658.74 1002.35 1658.74 1023.15C1658.74 1043.95 1658.74 1017.52 1658.74 1024.73C1658.74 1031.94 1657.9 1044.7 1658.74 1047.75C1659.57 1050.52 1676.48 1039.15 1688.67 1029.17C1700.87 1019.19 1704.48 1013.36 1715.01 1006.15L1718.61 1010.31C1718.61 1010.31 1709.19 1023.07 1703.64 1030.28C1697.82 1037.49 1689.23 1048.03 1683.68 1056.07C1677.86 1063.83 1660.12 1074.65 1658.74 1077.42C1657.35 1080.2 1655.13 1098.22 1655.13 1129C1655.13 1159.79 1655.96 1196.95 1655.96 1219.13C1655.96 1241.32 1653.75 1327.84 1653.19 1367.22C1652.64 1406.6 1652.36 1475.09 1652.36 1481.75C1652.36 1488.4 1653.19 1506.15 1653.75 1508.09C1654.58 1510.31 1670.93 1493.95 1681.74 1486.74C1692.56 1479.53 1705.31 1460.95 1705.31 1460.95L1708.91 1463.72C1708.91 1463.72 1701.15 1483.69 1693.94 1490.9C1686.73 1498.11 1669.82 1515.86 1667.61 1518.91C1665.39 1521.68 1657.63 1533.33 1657.63 1533.33L1693.94 1650.5L1459.23 1627.5Z" fill="#3B96AF"/>
<path d="M1478.31 947.98C1450.92 883.975 1395.65 875.106 1371.43 878.672C1317.76 878.672 1217.82 947.98 1224.3 1010.77C1230.78 1073.57 1352.93 1143.81 1413.08 1130.32C1473.23 1116.83 1493.12 982.866 1478.31 947.98Z" fill="#008BA8"/>
<path d="M1492.28 1004.91C1393.25 957.64 1379.52 862.242 1385.04 820.452C1385.04 727.822 1492.28 555.338 1589.44 566.518C1686.6 577.697 1795.27 788.51 1774.4 892.32C1753.53 996.129 1546.25 1030.47 1492.28 1004.91Z" fill="#008BA8"/>
<path d="M2025.98 897.266C1990.76 815.622 1919.69 804.309 1888.56 808.858C1819.55 808.858 1691.06 897.266 1699.39 977.367C1707.71 1057.47 1864.76 1147.06 1942.1 1129.86C2019.43 1112.65 2045.01 941.766 2025.98 897.266Z" fill="#008BA8"/>
<path d="M132.655 950.839C191.971 1053.85 284.907 1057.05 323.961 1045.77C412.285 1034.22 561.328 894.784 536.697 789.33C512.065 683.877 295.425 590.652 199.443 626.548C103.461 662.444 100.527 894.666 132.655 950.839Z" fill="#008BA8"/>
<path d="M58.4886 1027.92C31.1079 1013.03 9.061 1025.29 1.46015 1033.28C-17.5697 1048.21 -33.8718 1100.4 -14.24 1120.69C5.39174 1140.97 68.0907 1131.69 85.6934 1110.21C103.296 1088.73 73.3688 1036.07 58.4886 1027.92Z" fill="#008BA8"/>
<path d="M605.418 931.172C584.478 882.538 542.221 875.799 523.71 878.509C482.68 878.509 406.277 931.172 411.229 978.886C416.181 1026.6 509.562 1079.97 555.545 1069.72C601.527 1059.47 616.737 957.68 605.418 931.172Z" fill="#008BA8"/>
<path d="M182.155 897.565C154.351 833.023 98.2404 824.08 73.6608 827.676C19.1788 827.676 -82.2707 897.565 -75.6953 960.886C-69.1198 1024.21 54.8739 1095.03 115.931 1081.43C176.989 1067.83 197.185 932.743 182.155 897.565Z" fill="#008BA8"/>
<path d="M2260.26 2024.13C2228.89 2148.89 2093.4 2218 2029.58 2236.95C1892.85 2290.98 1596.67 2286.35 1575.5 2184.48C1554.32 2082.61 1823.35 1853 1984.67 1812.94C2145.99 1772.87 2277.05 1956.26 2260.26 2024.13Z" fill="#008BA8"/>
<path d="M-84.5599 1625.07C-46.9105 1577.45 29.0666 1570.85 62.349 1573.5C136.121 1573.5 273.491 1625.07 264.587 1671.8C255.684 1718.52 87.7878 1770.79 5.11178 1760.75C-77.5643 1750.71 -104.911 1651.03 -84.5599 1625.07Z" fill="#1E95A2"/>
<path d="M-566.644 2055.49C-453.484 1912.36 -225.126 1892.53 -125.091 1900.5C96.6403 1900.5 509.521 2055.49 482.76 2195.92C455.999 2336.34 -48.6321 2493.41 -297.125 2463.24C-545.617 2433.08 -627.811 2133.5 -566.644 2055.49Z" fill="#1E95A2"/>
<defs>
<linearGradient id="paint0_linear_2150_4" x1="1013" y1="-22.4504" x2="1442.83" y2="1765.48" gradientUnits="userSpaceOnUse">
<stop stop-color="#00A5E2"/>
<stop offset="1" stop-color="#8BD2D0"/>
</linearGradient>
<linearGradient id="paint1_linear_2150_4" x1="1047.72" y1="1662.29" x2="1042.49" y2="1315.22" gradientUnits="userSpaceOnUse">
<stop stop-color="#3DC0C3"/>
<stop offset="1" stop-color="#00A5E2"/>
</linearGradient>
<linearGradient id="paint2_linear_2150_4" x1="965.122" y1="1796.49" x2="966.557" y2="1626.04" gradientUnits="userSpaceOnUse">
<stop stop-color="#3DC0C3"/>
<stop offset="1" stop-color="#00A5E2"/>
</linearGradient>
</defs>
</svg>
