<svg width="1920" height="3200" viewBox="0 0 1920 3200" fill="none" xmlns="http://www.w3.org/2000/svg">
<path fill-rule="evenodd" clip-rule="evenodd" d="M-136.591 2829C91.0641 2696.08 583.415 2531.78 780.776 2623.79C1028.72 2739.37 1356.64 2876.48 1919.5 2238V2829H2042V3128.5C2027.33 3079 1953.8 2971.5 1777 2937.5C1643.29 2911.79 1523.85 2942.99 1414.16 2971.66C1342.54 2990.37 1275.08 3008 1210.5 3008C1144.9 3008 1073.17 2983.45 988.324 2954.4C861.71 2911.06 705.865 2857.71 497.5 2861C219.1 2865.4 37.8333 3088.5 -18 3199.5L-205 2829H-136.591Z" fill="url(#paint0_linear_2150_4)" fill-opacity="0.5"/>
<path fill-rule="evenodd" clip-rule="evenodd" d="M-36 70.6841C92.4679 41.5834 412.788 -12.7509 666.325 2.71742C827.272 12.5368 987.704 29.9119 1123.66 44.6359C1255.41 58.9049 1364.17 70.6841 1428.13 70.6841C1558.1 70.6841 1832.03 70.0977 1943.51 2.71742C1955.08 2.71742 1954.32 13.6064 1950.4 69.4793C1948.49 96.5936 1945.85 134.302 1943.51 186.5H1926.5V1811H-5V186.5H-5.50785L-36 70.6841Z" fill="url(#paint1_linear_2150_4)"/>
<path fill-rule="evenodd" clip-rule="evenodd" d="M-83 1436.87C46.6951 1407.69 370.075 1353.21 626.034 1368.72C788.518 1378.57 950.483 1395.99 1087.73 1410.76C1220.74 1425.06 1330.55 1436.87 1395.12 1436.87C1526.33 1436.87 1802.88 1436.29 1915.41 1368.72C1927.96 1368.72 1926.15 1398.39 1921.45 1475.33C1919.99 1499.17 1918.26 1527.55 1916.59 1561H2122L2009 1886.5C1953.17 1775.5 1691.4 1664.4 1413 1660C1204.63 1656.71 1048.79 1710.06 922.176 1753.4C837.327 1782.45 765.604 1807 700 1807C635.422 1807 567.958 1789.37 496.344 1770.66C386.646 1741.99 267.211 1710.79 133.5 1736.5C73.8808 1747.97 23.9007 1754.09 -16.7242 1759.06C-96.572 1768.84 -140.279 1774.19 -150 1807L-119 1561H-57.3254L-83 1436.87Z" fill="url(#paint2_linear_2150_4)"/>
<path fill-rule="evenodd" clip-rule="evenodd" d="M1957 1689.87C1827.31 1660.69 1503.93 1606.21 1247.97 1621.72C1085.48 1631.57 923.517 1648.99 786.266 1663.76C653.256 1678.06 543.455 1689.87 478.88 1689.87C347.671 1689.87 71.1223 1689.29 -41.4146 1621.72C-55.7563 1621.72 -51.3381 1710.17 -45.2898 1831.25C-44.0171 1856.73 -42.6721 1883.65 -41.4146 1911.5H-28.0723C-34.8538 2058.47 -41.595 2207.97 -25.9161 2207.97C86.6208 2140.41 342.791 2117.5 474 2117.5C533.968 2117.5 637.197 2132.35 762.161 2150.33C910.616 2171.68 1089.75 2197.45 1263.47 2207.97C1519.42 2223.48 1842.8 2169 1972.5 2139.83L2011 1864.5H1987.34L1957 1689.87Z" fill="url(#paint3_linear_2150_4)"/>
<path d="M321.319 958.118C321.319 958.118 319.077 986.835 317.425 1016.62C315.773 1046.4 309.52 1089.41 306.924 1107.85C304.328 1126.28 300.788 1159.61 298.547 1174.26C296.305 1188.92 294.181 1194.59 293.709 1196.36C293.237 1198.13 284.506 1174.85 282.382 1164.81C280.14 1154.76 278.016 1128.88 278.016 1108.2C278.016 1087.52 276.718 1050.77 278.016 1032.33C279.314 1013.9 279.786 993.335 279.786 981.399C279.786 969.463 279.314 958.118 279.314 958.118H266.571C266.571 958.118 265.745 977.972 263.975 992.507C262.206 1006.93 259.61 1046.04 258.312 1065.3C256.896 1084.57 255.008 1117.07 255.362 1130.66C255.716 1144.25 257.014 1173.67 259.61 1182.89C262.206 1192.11 270.111 1200.85 274.477 1209.24C278.842 1217.63 291.585 1239.02 291.939 1241.27C292.411 1243.51 291.467 1264.08 291.467 1273.77C291.467 1283.46 288.871 1308.16 284.506 1332.38C280.14 1356.61 276.6 1385.09 274.477 1403.05C272.235 1421.01 267.041 1609.58 264.917 1630.61C262.675 1651.65 261.023 1666.54 258.31 1678C255.714 1689.34 252.174 1697.62 252.174 1697.62L484.374 1691.37C484.374 1691.37 479.663 1663.74 474.825 1644C469.987 1624.27 457.952 1455.64 457.008 1432.36C456.183 1409.08 450.873 1370.08 448.631 1347.27C446.389 1324.46 443.322 1289.37 442.024 1259.11C440.726 1228.86 437.658 1191.16 438.956 1189.86C440.254 1188.56 465.622 1173.67 474.825 1166.58C484.028 1159.61 491.934 1151.22 497.125 1140.7C502.435 1130.18 509.396 1116.59 512.464 1105.13C515.532 1093.67 519.425 1071.33 519.425 1058.21C519.425 1045.1 518.127 1024.06 519.425 1005.15C520.723 986.244 519.425 958 519.425 958H511.992C511.992 958 511.166 983.172 509.396 998.062C507.626 1012.95 505.856 1030.56 504.558 1043.68C503.261 1056.8 500.193 1077 494.058 1094.14C487.922 1111.27 484.382 1116.12 480.017 1120.49C475.651 1124.87 453.351 1136.33 448.041 1139.76C442.732 1143.3 438.012 1145.43 438.012 1142C438.012 1138.46 437.54 1097.68 437.186 1078.42C436.714 1059.16 436.36 1044.62 435.416 1027.13C434.59 1009.64 433.174 1003.5 433.174 988.962C433.41 974.545 434.708 958.118 434.708 958.118H321.319Z" fill="#3B96AF"/>
<path d="M139.735 1068.99C139.735 1068.99 141.187 1087.6 142.258 1106.9C143.328 1126.2 147.38 1154.07 149.062 1166.02C150.744 1177.97 153.037 1199.56 154.49 1209.06C155.942 1218.56 157.319 1222.23 157.624 1223.38C157.93 1224.53 163.588 1209.44 164.964 1202.93C166.416 1196.42 167.792 1179.65 167.792 1166.25C167.792 1152.85 168.633 1129.03 167.792 1117.08C166.951 1105.14 166.646 1091.81 166.646 1084.07C166.646 1076.34 166.951 1068.99 166.951 1068.99H175.208C175.208 1068.99 175.743 1081.85 176.89 1091.27C178.037 1100.62 179.719 1125.97 180.56 1138.45C181.477 1150.93 182.7 1171.99 182.471 1180.8C182.242 1189.61 181.401 1208.68 179.719 1214.65C178.037 1220.63 172.915 1226.29 170.086 1231.73C167.257 1237.17 159 1251.03 158.771 1252.48C158.465 1253.94 159.077 1267.27 159.077 1273.55C159.077 1279.83 160.759 1295.83 163.588 1311.53C166.416 1327.23 168.71 1345.69 170.086 1357.33C171.538 1368.97 174.367 1476.44 175.743 1490.08C177.196 1503.71 178.266 1513.36 180.024 1520.79C180.024 1527.5 181.5 1532 181.5 1532L40.2722 1500.5C40.2722 1500.5 42.2599 1485.11 45.3944 1472.32C48.5289 1459.53 56.6327 1457.09 57.2443 1442C63.0546 1414.59 55.7917 1335.96 57.2443 1321.18C58.6969 1306.4 60.6846 1283.65 61.5256 1264.05C62.3665 1244.44 64.3542 1220.01 63.5133 1219.17C62.6723 1218.33 46.2354 1208.68 40.2722 1204.08C34.309 1199.56 29.1868 1194.13 25.823 1187.31C22.3827 1180.5 17.8721 1171.69 15.8844 1164.26C13.8966 1156.83 11.3737 1142.36 11.3737 1133.85C11.3737 1125.35 12.2147 1111.72 11.3737 1099.47C10.5328 1087.21 11.3737 1068.91 11.3737 1068.91H16.1901C16.1901 1068.91 16.7253 1085.22 17.8721 1094.87C19.0188 1104.52 20.1656 1115.93 21.0066 1124.44C21.8475 1132.94 23.8352 1146.03 27.8107 1157.14C31.7861 1168.24 34.0797 1171.38 36.9084 1174.22C39.737 1177.05 54.1862 1184.48 57.6265 1186.7C61.0668 1189 64.1249 1190.37 64.1249 1188.15C64.1249 1185.86 64.4307 1159.43 64.66 1146.95C64.9658 1134.47 65.1952 1125.05 65.8068 1113.71C66.3419 1102.38 67.2594 1098.4 67.2594 1088.98C67.1065 1079.63 66.2655 1068.99 66.2655 1068.99H139.735Z" fill="#3B96AF"/>
<path d="M1900.9 1060.08C1900.9 1060.08 1902.48 1080.35 1903.64 1101.36C1904.8 1122.37 1909.2 1152.72 1911.03 1165.73C1912.86 1178.74 1915.35 1202.25 1916.93 1212.59C1918.51 1222.93 1920.01 1226.93 1920.34 1228.18C1920.67 1229.43 1926.82 1213.01 1928.31 1205.92C1929.89 1198.83 1931.39 1180.57 1931.39 1165.98C1931.39 1151.39 1932.3 1125.46 1931.39 1112.45C1930.47 1099.44 1930.14 1084.93 1930.14 1076.51C1930.14 1068.09 1930.47 1060.08 1930.47 1060.08H1939.45C1939.45 1060.08 1940.03 1074.09 1941.27 1084.35C1942.52 1094.52 1944.35 1122.12 1945.26 1135.71C1946.26 1149.3 1947.59 1172.23 1947.34 1181.82C1947.09 1191.41 1946.18 1212.17 1944.35 1218.68C1942.52 1225.18 1936.95 1231.35 1933.88 1237.27C1930.81 1243.19 1921.83 1258.29 1921.58 1259.87C1921.25 1261.45 1921.92 1275.96 1921.92 1282.8C1921.92 1289.64 1923.74 1307.06 1926.82 1324.16C1929.89 1341.25 1932.38 1361.35 1933.88 1374.02C1935.46 1386.7 1938.53 1414.88 1940.03 1429.72C1941.61 1444.56 1942.77 1455.07 1944.68 1463.16C1946.51 1471.16 1949 1477 1949 1477L1771.87 1538C1771.87 1538 1793.31 1460.24 1796.72 1446.31C1800.12 1432.39 1804.69 1411.13 1805.36 1394.7C1805.94 1378.27 1809.68 1350.76 1811.25 1334.66C1812.83 1318.57 1814.99 1293.81 1815.91 1272.46C1816.82 1251.11 1818.98 1224.52 1818.07 1223.6C1817.15 1222.68 1799.29 1212.17 1792.81 1207.17C1786.33 1202.25 1780.76 1196.33 1777.11 1188.91C1773.37 1181.49 1768.47 1171.9 1766.31 1163.81C1764.15 1155.72 1761.41 1139.96 1761.41 1130.71C1761.41 1121.45 1762.32 1106.61 1761.41 1093.27C1760.49 1079.93 1761.41 1060 1761.41 1060H1766.64C1766.64 1060 1767.22 1077.76 1768.47 1088.27C1769.71 1098.77 1770.96 1111.2 1771.87 1120.45C1772.79 1129.71 1774.95 1143.97 1779.27 1156.06C1783.59 1168.15 1786.08 1171.57 1789.15 1174.65C1792.23 1177.74 1807.93 1185.83 1811.67 1188.24C1815.41 1190.75 1818.73 1192.25 1818.73 1189.83C1818.73 1187.33 1819.06 1158.56 1819.31 1144.97C1819.65 1131.38 1819.89 1121.12 1820.56 1108.78C1821.14 1096.44 1822.14 1092.1 1822.14 1081.85C1821.97 1071.67 1821.06 1060.08 1821.06 1060.08H1900.9Z" fill="#3B96AF"/>
<path d="M1463.23 1626.5C1463.23 1626.5 1482.08 1535.38 1486.24 1505.98C1490.4 1476.59 1496.22 1425.84 1496.22 1422.23C1496.22 1418.63 1471.82 1390.9 1457.69 1370.1C1443.27 1349.3 1434.68 1335.16 1433.29 1322.96C1431.91 1310.75 1434.12 1267.22 1429.69 1262.22C1425.53 1257.23 1416.38 1245.03 1417.21 1237.82C1418.32 1230.61 1419.71 1213.42 1417.21 1210.64C1414.72 1207.87 1383.12 1184.3 1379.51 1179.86C1375.91 1175.7 1370.92 1164.05 1369.53 1150.47C1368.15 1136.88 1366.76 1124.12 1360.11 1111.92C1353.45 1099.72 1345.69 1086.13 1340.7 1080.58C1335.99 1074.76 1331 1062 1331 1062L1334.6 1057.84C1334.6 1057.84 1343.2 1070.6 1350.96 1077.26C1358.72 1083.63 1372.3 1104.43 1378.96 1117.19C1385.33 1129.94 1392.54 1149.36 1396.15 1155.74C1399.75 1162.11 1408.9 1171.54 1413.61 1171.54C1418.32 1171.54 1420.54 1160.17 1423.31 1152.13C1426.08 1144.37 1431.07 1137.16 1431.07 1137.16L1434.68 1139.37C1434.68 1139.37 1431.07 1147.97 1430.52 1157.95C1429.69 1167.94 1426.92 1180.14 1430.52 1187.35C1434.12 1194.56 1442.72 1201.77 1444.1 1210.37C1445.49 1218.96 1446.32 1228.95 1450.48 1238.38C1454.64 1247.8 1462.68 1266.94 1463.23 1279.97C1464.06 1292.73 1466.83 1318.52 1472.66 1326.56C1478.48 1334.33 1487.07 1340.15 1490.4 1345.14C1494 1350.13 1496.22 1353.74 1496.22 1353.74C1496.22 1353.74 1498.99 1298 1501.21 1264.44C1503.43 1230.89 1502.04 1168.49 1501.21 1153.52C1500.38 1138.54 1494.83 1136.32 1482.64 1118.57C1470.44 1100.83 1461.29 1072.82 1454.08 1051.46C1446.88 1030.11 1448.26 1015.69 1444.1 1004.32C1439.95 992.951 1436.9 964.388 1436.9 964.388H1441.05C1441.05 964.388 1448.26 992.951 1451.03 998.775C1453.81 1004.6 1457.41 1017.36 1461.01 1030.11C1464.62 1042.87 1473.77 1065.05 1478.75 1073.65C1483.74 1082.25 1494.56 1097.22 1497.33 1095.84C1500.1 1094.45 1503.7 1041.48 1505.92 1014.3C1508.14 987.128 1513.13 967.716 1514.52 948.581C1515.9 929.169 1518.12 930.362 1519.51 914H1664.12C1664.12 914 1662.74 1001.35 1662.74 1022.15C1662.74 1042.95 1662.74 1016.52 1662.74 1023.73C1662.74 1030.94 1661.9 1043.7 1662.74 1046.75C1663.57 1049.52 1680.48 1038.15 1692.67 1028.17C1704.87 1018.19 1708.48 1012.36 1719.01 1005.15L1722.61 1009.31C1722.61 1009.31 1713.19 1022.07 1707.64 1029.28C1701.82 1036.49 1693.23 1047.03 1687.68 1055.07C1681.86 1062.83 1664.12 1073.65 1662.74 1076.42C1661.35 1079.2 1659.13 1097.22 1659.13 1128C1659.13 1158.79 1659.96 1195.95 1659.96 1218.13C1659.96 1240.32 1657.75 1326.84 1657.19 1366.22C1656.64 1405.6 1656.36 1474.09 1656.36 1480.75C1656.36 1487.4 1657.19 1505.15 1657.75 1507.09C1658.58 1509.31 1674.93 1492.95 1685.74 1485.74C1696.56 1478.53 1709.31 1459.95 1709.31 1459.95L1712.91 1462.72C1712.91 1462.72 1705.15 1482.69 1697.94 1489.9C1690.73 1497.11 1673.82 1514.86 1671.61 1517.91C1669.39 1520.68 1661.63 1532.33 1661.63 1532.33L1697.94 1649.5L1463.23 1626.5Z" fill="#3B96AF"/>
<path d="M1478.31 947.98C1450.92 883.975 1395.65 875.106 1371.43 878.672C1317.76 878.672 1217.82 947.98 1224.3 1010.77C1230.78 1073.57 1352.93 1143.81 1413.08 1130.32C1473.23 1116.83 1493.12 982.866 1478.31 947.98Z" fill="#008BA8"/>
<path d="M1492.28 1004.91C1393.25 957.64 1379.52 862.242 1385.04 820.452C1385.04 727.822 1492.28 555.338 1589.44 566.518C1686.6 577.697 1795.27 788.51 1774.4 892.32C1753.53 996.129 1546.25 1030.47 1492.28 1004.91Z" fill="#008BA8"/>
<path d="M2025.98 897.266C1990.76 815.622 1919.69 804.309 1888.56 808.858C1819.55 808.858 1691.06 897.266 1699.39 977.367C1707.71 1057.47 1864.76 1147.06 1942.1 1129.86C2019.43 1112.65 2045.01 941.766 2025.98 897.266Z" fill="#008BA8"/>
<path d="M132.655 950.839C191.971 1053.85 284.907 1057.05 323.961 1045.77C412.285 1034.22 561.328 894.784 536.697 789.33C512.065 683.877 295.425 590.652 199.443 626.548C103.461 662.444 100.527 894.666 132.655 950.839Z" fill="#008BA8"/>
<path d="M58.4886 1027.92C31.1079 1013.03 9.061 1025.29 1.46015 1033.28C-17.5697 1048.21 -33.8718 1100.4 -14.24 1120.69C5.39174 1140.97 68.0907 1131.69 85.6934 1110.21C103.296 1088.73 73.3688 1036.07 58.4886 1027.92Z" fill="#008BA8"/>
<path d="M605.418 931.172C584.478 882.538 542.221 875.799 523.71 878.509C482.68 878.509 406.277 931.172 411.229 978.886C416.181 1026.6 509.562 1079.97 555.545 1069.72C601.527 1059.47 616.737 957.68 605.418 931.172Z" fill="#008BA8"/>
<path d="M182.155 897.565C154.351 833.023 98.2404 824.08 73.6608 827.676C19.1788 827.676 -82.2707 897.565 -75.6953 960.886C-69.1198 1024.21 54.8739 1095.03 115.931 1081.43C176.989 1067.83 197.185 932.743 182.155 897.565Z" fill="#008BA8"/>
<path d="M2260.26 2024.13C2228.89 2148.89 2093.4 2218 2029.58 2236.95C1892.85 2290.98 1596.67 2286.35 1575.5 2184.48C1554.32 2082.61 1823.35 1853 1984.67 1812.94C2145.99 1772.87 2277.05 1956.26 2260.26 2024.13Z" fill="#008BA8"/>
<path d="M-74.5599 1643.07C-36.9105 1595.45 39.0666 1588.85 72.349 1591.5C146.121 1591.5 283.491 1643.07 274.587 1689.8C265.684 1736.52 97.7878 1788.79 15.1118 1778.75C-67.5643 1768.71 -94.911 1669.03 -74.5599 1643.07Z" fill="#1E95A2"/>
<path d="M-566.644 2055.49C-453.484 1912.36 -225.126 1892.53 -125.091 1900.5C96.6403 1900.5 509.521 2055.49 482.76 2195.92C455.999 2336.34 -48.6321 2493.41 -297.125 2463.24C-545.617 2433.08 -627.811 2133.5 -566.644 2055.49Z" fill="#1E95A2"/>
<defs>
<linearGradient id="paint0_linear_2150_4" x1="1735" y1="2277" x2="582.269" y2="3220.82" gradientUnits="userSpaceOnUse">
<stop stop-color="#00A5E2"/>
<stop offset="1" stop-color="#8BD2D0"/>
</linearGradient>
<linearGradient id="paint1_linear_2150_4" x1="1013" y1="-22.4504" x2="1442.83" y2="1765.48" gradientUnits="userSpaceOnUse">
<stop stop-color="#00A5E2"/>
<stop offset="1" stop-color="#8BD2D0"/>
</linearGradient>
<linearGradient id="paint2_linear_2150_4" x1="1047.72" y1="1662.29" x2="1042.49" y2="1315.22" gradientUnits="userSpaceOnUse">
<stop stop-color="#3DC0C3"/>
<stop offset="1" stop-color="#00A5E2"/>
</linearGradient>
<linearGradient id="paint3_linear_2150_4" x1="965.122" y1="1796.49" x2="966.557" y2="1626.04" gradientUnits="userSpaceOnUse">
<stop stop-color="#3DC0C3"/>
<stop offset="1" stop-color="#00A5E2"/>
</linearGradient>
</defs>
</svg>
